G75*
G70*
%OFA0B0*%
%FSLAX24Y24*%
%IPPOS*%
%LPD*%
%AMOC8*
5,1,8,0,0,1.08239X$1,22.5*
%
%ADD10R,0.2559X0.3937*%
%ADD11R,0.0237X0.0710*%
%ADD12R,0.0592X0.0198*%
%ADD13R,0.0198X0.0592*%
%ADD14OC8,0.0680*%
%ADD15C,0.2080*%
%ADD16R,0.0880X0.0340*%
%ADD17O,0.0680X0.1280*%
%ADD18R,0.0316X0.0946*%
%ADD19O,0.1280X0.0680*%
%ADD20C,0.1380*%
%ADD21O,0.0867X0.1655*%
%ADD22O,0.1655X0.0867*%
%ADD23O,0.0600X0.1120*%
%ADD24C,0.0830*%
%ADD25OC8,0.0830*%
%ADD26R,0.2363X0.2521*%
%ADD27R,0.0710X0.1261*%
%ADD28R,0.0198X0.0552*%
%ADD29R,0.0592X0.0186*%
%ADD30R,0.0186X0.0592*%
%ADD31R,0.0592X0.0671*%
%ADD32R,0.0671X0.0592*%
%ADD33R,0.0516X0.0516*%
%ADD34O,0.1120X0.0600*%
%ADD35C,0.0630*%
%ADD36R,0.1740X0.1740*%
%ADD37R,0.1064X0.0395*%
%ADD38R,0.1655X0.1123*%
%ADD39R,0.1064X0.0356*%
%ADD40R,0.1064X0.0513*%
%ADD41C,0.0671*%
%ADD42O,0.1400X0.0740*%
%ADD43C,0.0600*%
%ADD44R,0.0671X0.0671*%
%ADD45C,0.1261*%
%ADD46C,0.0634*%
%ADD47OC8,0.0634*%
%ADD48C,0.0390*%
D10*
X016348Y038396D03*
D11*
X042470Y040148D03*
X042785Y040148D03*
X043100Y040148D03*
X043415Y040148D03*
X043730Y040148D03*
X044045Y040148D03*
X044360Y040148D03*
X044675Y040148D03*
X044990Y040148D03*
X045305Y040148D03*
X045620Y040148D03*
X045934Y040148D03*
X046249Y040148D03*
X046564Y040148D03*
X046879Y040148D03*
X047194Y040148D03*
X047509Y040148D03*
X047824Y040148D03*
X048139Y040148D03*
X048454Y040148D03*
X048769Y040148D03*
X049084Y040148D03*
X049399Y040148D03*
X049714Y040148D03*
X050029Y040148D03*
X050344Y040148D03*
X050659Y040148D03*
X050659Y035857D03*
X050344Y035857D03*
X050029Y035857D03*
X049714Y035857D03*
X049399Y035857D03*
X049084Y035857D03*
X048769Y035857D03*
X048454Y035857D03*
X048139Y035857D03*
X047824Y035857D03*
X047509Y035857D03*
X047194Y035857D03*
X046879Y035857D03*
X046564Y035857D03*
X046249Y035857D03*
X045934Y035857D03*
X045620Y035857D03*
X045305Y035857D03*
X044990Y035857D03*
X044675Y035857D03*
X044360Y035857D03*
X044045Y035857D03*
X043730Y035857D03*
X043415Y035857D03*
X043100Y035857D03*
X042785Y035857D03*
X042470Y035857D03*
D12*
X042332Y030030D03*
X042332Y029833D03*
X042332Y029636D03*
X042332Y029440D03*
X042332Y029243D03*
X042332Y029046D03*
X042332Y028849D03*
X042332Y028652D03*
X042332Y028455D03*
X042332Y028258D03*
X042332Y028062D03*
X042332Y027865D03*
X042332Y027668D03*
X042332Y027471D03*
X042332Y027274D03*
X042332Y027077D03*
X042332Y026880D03*
X042332Y026684D03*
X042332Y026487D03*
X042332Y026290D03*
X042332Y026093D03*
X042332Y025896D03*
X042332Y025699D03*
X042332Y025503D03*
X042332Y025306D03*
X042332Y025109D03*
X042332Y024912D03*
X042332Y024715D03*
X042332Y024518D03*
X042332Y024321D03*
X042332Y024125D03*
X042332Y023928D03*
X042332Y023731D03*
X042332Y023534D03*
X042332Y023337D03*
X042332Y023140D03*
X050797Y023140D03*
X050797Y023337D03*
X050797Y023534D03*
X050797Y023731D03*
X050797Y023928D03*
X050797Y024125D03*
X050797Y024321D03*
X050797Y024518D03*
X050797Y024715D03*
X050797Y024912D03*
X050797Y025109D03*
X050797Y025306D03*
X050797Y025503D03*
X050797Y025699D03*
X050797Y025896D03*
X050797Y026093D03*
X050797Y026290D03*
X050797Y026487D03*
X050797Y026684D03*
X050797Y026880D03*
X050797Y027077D03*
X050797Y027274D03*
X050797Y027471D03*
X050797Y027668D03*
X050797Y027865D03*
X050797Y028062D03*
X050797Y028258D03*
X050797Y028455D03*
X050797Y028652D03*
X050797Y028849D03*
X050797Y029046D03*
X050797Y029243D03*
X050797Y029440D03*
X050797Y029636D03*
X050797Y029833D03*
X050797Y030030D03*
X029143Y016841D03*
X029143Y016644D03*
X029143Y016447D03*
X029143Y016251D03*
X029143Y016054D03*
X029143Y015857D03*
X029143Y015660D03*
X029143Y015463D03*
X029143Y015266D03*
X029143Y015069D03*
X029143Y014873D03*
X029143Y014676D03*
X029143Y014479D03*
X029143Y014282D03*
X029143Y014085D03*
X029143Y013888D03*
X024616Y013888D03*
X024616Y014085D03*
X024616Y014282D03*
X024616Y014479D03*
X024616Y014676D03*
X024616Y014873D03*
X024616Y015069D03*
X024616Y015266D03*
X024616Y015463D03*
X024616Y015660D03*
X024616Y015857D03*
X024616Y016054D03*
X024616Y016251D03*
X024616Y016447D03*
X024616Y016644D03*
X024616Y016841D03*
D13*
X025403Y017629D03*
X025600Y017629D03*
X025797Y017629D03*
X025994Y017629D03*
X026190Y017629D03*
X026387Y017629D03*
X026584Y017629D03*
X026781Y017629D03*
X026978Y017629D03*
X027175Y017629D03*
X027371Y017629D03*
X027568Y017629D03*
X027765Y017629D03*
X027962Y017629D03*
X028159Y017629D03*
X028356Y017629D03*
X028356Y013101D03*
X028159Y013101D03*
X027962Y013101D03*
X027765Y013101D03*
X027568Y013101D03*
X027371Y013101D03*
X027175Y013101D03*
X026978Y013101D03*
X026781Y013101D03*
X026584Y013101D03*
X026387Y013101D03*
X026190Y013101D03*
X025994Y013101D03*
X025797Y013101D03*
X025600Y013101D03*
X025403Y013101D03*
X043120Y022353D03*
X043316Y022353D03*
X043513Y022353D03*
X043710Y022353D03*
X043907Y022353D03*
X044104Y022353D03*
X044301Y022353D03*
X044497Y022353D03*
X044694Y022353D03*
X044891Y022353D03*
X045088Y022353D03*
X045285Y022353D03*
X045482Y022353D03*
X045679Y022353D03*
X045875Y022353D03*
X046072Y022353D03*
X046269Y022353D03*
X046466Y022353D03*
X046663Y022353D03*
X046860Y022353D03*
X047057Y022353D03*
X047253Y022353D03*
X047450Y022353D03*
X047647Y022353D03*
X047844Y022353D03*
X048041Y022353D03*
X048238Y022353D03*
X048434Y022353D03*
X048631Y022353D03*
X048828Y022353D03*
X049025Y022353D03*
X049222Y022353D03*
X049419Y022353D03*
X049616Y022353D03*
X049812Y022353D03*
X050009Y022353D03*
X050009Y030817D03*
X049812Y030817D03*
X049616Y030817D03*
X049419Y030817D03*
X049222Y030817D03*
X049025Y030817D03*
X048828Y030817D03*
X048631Y030817D03*
X048434Y030817D03*
X048238Y030817D03*
X048041Y030817D03*
X047844Y030817D03*
X047647Y030817D03*
X047450Y030817D03*
X047253Y030817D03*
X047057Y030817D03*
X046860Y030817D03*
X046663Y030817D03*
X046466Y030817D03*
X046269Y030817D03*
X046072Y030817D03*
X045875Y030817D03*
X045679Y030817D03*
X045482Y030817D03*
X045285Y030817D03*
X045088Y030817D03*
X044891Y030817D03*
X044694Y030817D03*
X044497Y030817D03*
X044301Y030817D03*
X044104Y030817D03*
X043907Y030817D03*
X043710Y030817D03*
X043513Y030817D03*
X043316Y030817D03*
X043120Y030817D03*
D14*
X031008Y038684D03*
X029928Y038684D03*
X028848Y038684D03*
X027768Y038684D03*
X026688Y038684D03*
X027228Y039684D03*
X028308Y039684D03*
X029388Y039684D03*
X030468Y039684D03*
X046852Y013369D03*
X047852Y013369D03*
X047852Y012369D03*
X046852Y012369D03*
X046852Y011369D03*
X047852Y011369D03*
X047852Y010369D03*
X046852Y010369D03*
X046852Y009369D03*
X047852Y009369D03*
X047852Y008369D03*
X046852Y008369D03*
X046852Y007369D03*
X047852Y007369D03*
X047852Y006369D03*
X046852Y006369D03*
X046852Y005369D03*
X047852Y005369D03*
X047852Y004369D03*
X046852Y004369D03*
X033399Y007695D03*
X032309Y007695D03*
X031229Y007695D03*
X030139Y007695D03*
X029049Y007695D03*
X027969Y007695D03*
X026879Y007695D03*
X025789Y007695D03*
X024709Y007695D03*
X023619Y007695D03*
X022529Y007695D03*
X021449Y007695D03*
X020359Y007695D03*
X020899Y006695D03*
X021989Y006695D03*
X023079Y006695D03*
X024159Y006695D03*
X025249Y006695D03*
X026339Y006695D03*
X027419Y006695D03*
X028509Y006695D03*
X029599Y006695D03*
X030679Y006695D03*
X031769Y006695D03*
X032859Y006695D03*
D15*
X036139Y007195D03*
X017619Y007195D03*
X023918Y039184D03*
X033778Y039184D03*
D16*
X033927Y036209D03*
X033927Y035709D03*
X033927Y035209D03*
X033927Y034709D03*
X033927Y034209D03*
X033927Y033709D03*
X033927Y033209D03*
X033927Y032709D03*
X030067Y032709D03*
X030067Y033209D03*
X030067Y033709D03*
X030067Y034209D03*
X030067Y034709D03*
X030067Y035209D03*
X030067Y035709D03*
X030067Y036209D03*
X024940Y035959D03*
X024940Y035459D03*
X024940Y034959D03*
X024940Y034459D03*
X024940Y033959D03*
X024940Y033459D03*
X024940Y032959D03*
X022520Y032959D03*
X022520Y033459D03*
X022520Y033959D03*
X022520Y034459D03*
X022520Y034959D03*
X022520Y035459D03*
X022520Y035959D03*
X031969Y012337D03*
X031969Y011837D03*
X031969Y011337D03*
X031969Y010837D03*
X031969Y010337D03*
X031969Y009837D03*
X031969Y009337D03*
X034389Y009337D03*
X034389Y009837D03*
X034389Y010337D03*
X034389Y010837D03*
X034389Y011337D03*
X034389Y011837D03*
X034389Y012337D03*
D17*
X034179Y015365D03*
X033179Y015365D03*
X032179Y015365D03*
X012238Y021270D03*
X011238Y021270D03*
X010238Y021270D03*
X009238Y021270D03*
D18*
X009180Y007504D03*
X009680Y007504D03*
X010180Y007504D03*
X010680Y007504D03*
X010680Y005457D03*
X010180Y005457D03*
X009680Y005457D03*
X009180Y005457D03*
D19*
X012312Y005506D03*
X012312Y006506D03*
X012312Y007506D03*
X016643Y023479D03*
X016643Y024479D03*
X016643Y025479D03*
X016643Y026479D03*
X016643Y027479D03*
X016643Y028479D03*
X016643Y029479D03*
X016643Y030479D03*
X025305Y030479D03*
X025305Y029479D03*
X025305Y028479D03*
X025305Y027479D03*
X025305Y026479D03*
X025305Y025479D03*
X025305Y024479D03*
X025305Y023479D03*
X010419Y037396D03*
X010419Y038396D03*
X010419Y039396D03*
D20*
X016319Y038396D03*
D21*
X007037Y038396D03*
X004635Y038396D03*
D22*
X005816Y036506D03*
D23*
X008769Y036396D03*
X008769Y040396D03*
D24*
X020186Y039396D03*
X018218Y016562D03*
X062509Y027388D03*
D25*
X062509Y025388D03*
X020186Y037396D03*
X018218Y014562D03*
D26*
X015068Y015711D03*
X062537Y023404D03*
D27*
X063434Y020577D03*
X061639Y020577D03*
X015966Y012884D03*
X014171Y012884D03*
D28*
X039970Y013140D03*
X040167Y013140D03*
X040364Y013140D03*
X040560Y013140D03*
X040757Y013140D03*
X040954Y013140D03*
X041151Y013140D03*
X041348Y013140D03*
X041545Y013140D03*
X041742Y013140D03*
X041938Y013140D03*
X042135Y013140D03*
X042332Y013140D03*
X042529Y013140D03*
X042726Y013140D03*
X042923Y013140D03*
X042923Y005384D03*
X042726Y005384D03*
X042529Y005384D03*
X042332Y005384D03*
X042135Y005384D03*
X041938Y005384D03*
X041742Y005384D03*
X041545Y005384D03*
X041348Y005384D03*
X041151Y005384D03*
X040954Y005384D03*
X040757Y005384D03*
X040560Y005384D03*
X040364Y005384D03*
X040167Y005384D03*
X039970Y005384D03*
D29*
X023570Y025109D03*
X023570Y025306D03*
X023570Y025503D03*
X023570Y025699D03*
X023570Y025896D03*
X023570Y026093D03*
X023570Y026290D03*
X023570Y026487D03*
X023570Y026684D03*
X023570Y026880D03*
X023570Y027077D03*
X023570Y027274D03*
X023570Y027471D03*
X023570Y027668D03*
X023570Y027865D03*
X023570Y028062D03*
X023570Y028258D03*
X023570Y028455D03*
X023570Y028652D03*
X023570Y028849D03*
X018377Y028849D03*
X018377Y028652D03*
X018377Y028455D03*
X018377Y028258D03*
X018377Y028062D03*
X018377Y027865D03*
X018377Y027668D03*
X018377Y027471D03*
X018377Y027274D03*
X018377Y027077D03*
X018377Y026880D03*
X018377Y026684D03*
X018377Y026487D03*
X018377Y026290D03*
X018377Y026093D03*
X018377Y025896D03*
X018377Y025699D03*
X018377Y025503D03*
X018377Y025306D03*
X018377Y025109D03*
D30*
X019104Y024382D03*
X019301Y024382D03*
X019497Y024382D03*
X019694Y024382D03*
X019891Y024382D03*
X020088Y024382D03*
X020285Y024382D03*
X020482Y024382D03*
X020679Y024382D03*
X020875Y024382D03*
X021072Y024382D03*
X021269Y024382D03*
X021466Y024382D03*
X021663Y024382D03*
X021860Y024382D03*
X022057Y024382D03*
X022253Y024382D03*
X022450Y024382D03*
X022647Y024382D03*
X022844Y024382D03*
X022844Y029575D03*
X022647Y029575D03*
X022450Y029575D03*
X022253Y029575D03*
X022057Y029575D03*
X021860Y029575D03*
X021663Y029575D03*
X021466Y029575D03*
X021269Y029575D03*
X021072Y029575D03*
X020875Y029575D03*
X020679Y029575D03*
X020482Y029575D03*
X020285Y029575D03*
X020088Y029575D03*
X019891Y029575D03*
X019694Y029575D03*
X019497Y029575D03*
X019301Y029575D03*
X019104Y029575D03*
D31*
X014812Y027373D03*
X014143Y027373D03*
X014143Y026487D03*
X014812Y026487D03*
X026742Y026782D03*
X027411Y026782D03*
X027411Y025798D03*
X026742Y025798D03*
X026742Y024814D03*
X027411Y024814D03*
X027411Y023829D03*
X026742Y023829D03*
X037962Y024026D03*
X038631Y024026D03*
X038631Y023042D03*
X037962Y023042D03*
X037962Y025010D03*
X038631Y025010D03*
X038631Y025995D03*
X037962Y025995D03*
X037962Y026979D03*
X038631Y026979D03*
X038631Y027963D03*
X037962Y027963D03*
X037962Y028947D03*
X038631Y028947D03*
X038631Y029932D03*
X037962Y029932D03*
X028395Y033081D03*
X027726Y033081D03*
X027726Y033967D03*
X028395Y033967D03*
X028395Y034951D03*
X027726Y034951D03*
X027726Y035837D03*
X028395Y035837D03*
X028395Y036920D03*
X027726Y036920D03*
X031663Y037215D03*
X032332Y037215D03*
X055679Y036034D03*
X056348Y036034D03*
X056348Y035050D03*
X055679Y035050D03*
X055679Y034066D03*
X056348Y034066D03*
X058828Y035050D03*
X059497Y035050D03*
X059497Y036034D03*
X058828Y036034D03*
X058828Y037018D03*
X059497Y037018D03*
X056348Y039380D03*
X055679Y039380D03*
X058828Y032884D03*
X059497Y032884D03*
X059497Y031900D03*
X058828Y031900D03*
X056348Y031310D03*
X055679Y031310D03*
X055679Y030325D03*
X056348Y030325D03*
X056348Y029341D03*
X055679Y029341D03*
X055679Y028357D03*
X056348Y028357D03*
X056348Y027373D03*
X055679Y027373D03*
X055679Y026388D03*
X056348Y026388D03*
X057450Y026388D03*
X058120Y026388D03*
X056348Y025404D03*
X055679Y025404D03*
X055679Y024420D03*
X056348Y024420D03*
X056348Y023436D03*
X055679Y023436D03*
X050442Y014184D03*
X049773Y014184D03*
X049773Y013003D03*
X050442Y013003D03*
X050442Y011034D03*
X049773Y011034D03*
X049773Y009853D03*
X050442Y009853D03*
X041781Y003751D03*
X041112Y003751D03*
X033513Y013199D03*
X032844Y013199D03*
X032844Y014184D03*
X033513Y014184D03*
X005954Y009656D03*
X005285Y009656D03*
D32*
X009163Y009321D03*
X009163Y009991D03*
X010738Y009991D03*
X010738Y009321D03*
X012312Y009321D03*
X012312Y009991D03*
X013887Y009991D03*
X013887Y009321D03*
X012903Y012668D03*
X012903Y013337D03*
X012903Y015424D03*
X012903Y016093D03*
X020974Y015896D03*
X020974Y015227D03*
X020974Y009991D03*
X020974Y009321D03*
X021958Y009321D03*
X021958Y009991D03*
X025698Y009991D03*
X025698Y009321D03*
X026683Y009321D03*
X026683Y009991D03*
X026879Y021132D03*
X026879Y021802D03*
X020974Y021802D03*
X020974Y021132D03*
X020974Y032353D03*
X020974Y033022D03*
X041446Y037668D03*
X041446Y038337D03*
X043218Y033613D03*
X043218Y032943D03*
X044399Y032943D03*
X044399Y033613D03*
X045580Y033613D03*
X045580Y032943D03*
X046761Y032943D03*
X046761Y033613D03*
X049616Y033613D03*
X049616Y032943D03*
X051683Y037668D03*
X051683Y038337D03*
X060344Y023770D03*
X060344Y023101D03*
X060344Y021408D03*
X060344Y020739D03*
X050108Y018455D03*
X050108Y017786D03*
X048927Y017786D03*
X048927Y018455D03*
X047746Y018455D03*
X047746Y017786D03*
X046564Y017786D03*
X046564Y018455D03*
X045383Y018455D03*
X045383Y017786D03*
X004635Y014125D03*
X004635Y013455D03*
X004438Y016802D03*
X004438Y017471D03*
D33*
X054734Y040758D03*
X057293Y040758D03*
D34*
X012238Y030979D03*
X012238Y029979D03*
X012238Y028979D03*
X012238Y027979D03*
X012238Y026979D03*
X012238Y025979D03*
X012238Y024979D03*
X012238Y023979D03*
X012238Y022979D03*
X009238Y022979D03*
X009238Y023979D03*
X009238Y024979D03*
X009238Y025979D03*
X009238Y026979D03*
X009238Y027979D03*
X009238Y028979D03*
X009238Y029979D03*
X009238Y030979D03*
D35*
X007014Y025276D03*
X007014Y024276D03*
X007014Y023276D03*
X006014Y022776D03*
X006014Y023776D03*
X006014Y024776D03*
D36*
X003364Y026026D03*
X003364Y022026D03*
D37*
X052167Y014924D03*
X052167Y013940D03*
X052167Y012955D03*
X052167Y011971D03*
X052167Y010987D03*
X052167Y010003D03*
X052167Y009018D03*
X052167Y008034D03*
X052167Y007443D03*
D38*
X063454Y006735D03*
X063454Y015947D03*
D39*
X052167Y006853D03*
X052167Y006459D03*
D40*
X052167Y016420D03*
D41*
X061919Y016034D03*
X061919Y006467D03*
D42*
X003651Y028629D03*
X003651Y030129D03*
X003651Y031629D03*
D43*
X004120Y005006D03*
X007120Y005006D03*
X007120Y008006D03*
X004120Y008006D03*
D44*
X003454Y013101D03*
X003454Y014479D03*
X003454Y016447D03*
X003454Y017825D03*
D45*
X061620Y029314D03*
X061620Y039156D03*
D46*
X061620Y036389D03*
X061620Y035489D03*
X060620Y035039D03*
X061620Y034589D03*
X060620Y034139D03*
X061620Y033689D03*
X060620Y033239D03*
X061620Y032789D03*
X060620Y032339D03*
X062620Y032339D03*
X062620Y033239D03*
X062620Y034139D03*
X062620Y035039D03*
X062620Y035939D03*
D47*
X060620Y035939D03*
D48*
X058340Y035050D03*
X055029Y035050D03*
X054261Y035863D03*
X052581Y036668D03*
X052301Y036178D03*
X051683Y037166D03*
X051251Y037228D03*
X050971Y037508D03*
X050481Y036773D03*
X050698Y036428D03*
X050009Y036428D03*
X048779Y036428D03*
X048139Y036428D03*
X047576Y036598D03*
X046911Y036668D03*
X046246Y036423D03*
X045581Y036703D03*
X045056Y036423D03*
X044104Y036477D03*
X043661Y036477D03*
X042991Y037508D03*
X041446Y037166D03*
X041801Y036318D03*
X041801Y035338D03*
X041661Y034953D03*
X041101Y034673D03*
X040821Y034953D03*
X040121Y035023D03*
X041381Y034393D03*
X042746Y034393D03*
X043026Y034673D03*
X043411Y034743D03*
X043415Y034164D03*
X044399Y034115D03*
X044391Y034708D03*
X045056Y035023D03*
X044531Y035303D03*
X044111Y035303D03*
X045580Y034115D03*
X046761Y034115D03*
X047926Y034673D03*
X048521Y034638D03*
X048836Y034953D03*
X050131Y034743D03*
X049616Y034115D03*
X049186Y034183D03*
X050621Y035303D03*
X047646Y035303D03*
X048311Y037228D03*
X049711Y038383D03*
X048836Y039258D03*
X049123Y039577D03*
X050009Y039577D03*
X050698Y039577D03*
X051683Y038839D03*
X053701Y038908D03*
X055177Y039380D03*
X056361Y037788D03*
X051671Y033238D03*
X051391Y032398D03*
X051951Y031978D03*
X051321Y031068D03*
X051881Y030823D03*
X050551Y030683D03*
X049812Y030325D03*
X049396Y030333D03*
X049641Y029773D03*
X050206Y029833D03*
X051321Y029668D03*
X052581Y029283D03*
X051496Y028198D03*
X051289Y027865D03*
X050305Y028062D03*
X050206Y026585D03*
X050206Y026191D03*
X049816Y025818D03*
X049151Y026098D03*
X047891Y026588D03*
X047541Y026378D03*
X047051Y026658D03*
X046981Y025538D03*
X046421Y025538D03*
X046141Y027463D03*
X046981Y027883D03*
X047856Y028163D03*
X045091Y028443D03*
X043096Y029388D03*
X042816Y029108D03*
X042824Y028652D03*
X041840Y028455D03*
X041661Y027848D03*
X041840Y027471D03*
X041556Y027183D03*
X042923Y027176D03*
X042923Y026782D03*
X042824Y025306D03*
X042816Y024488D03*
X042824Y023731D03*
X042824Y023337D03*
X043516Y022843D03*
X044076Y023403D03*
X044881Y023403D03*
X044694Y022845D03*
X045476Y022843D03*
X045974Y022943D03*
X046368Y022943D03*
X047051Y022843D03*
X047844Y022845D03*
X048661Y022843D03*
X049046Y022843D03*
X049326Y023123D03*
X049616Y022845D03*
X050305Y023140D03*
X051461Y023403D03*
X052161Y023508D03*
X052861Y024068D03*
X053176Y024313D03*
X054646Y025258D03*
X055177Y025404D03*
X055171Y026133D03*
X054261Y026588D03*
X053701Y026133D03*
X052301Y025818D03*
X051289Y024912D03*
X050305Y024715D03*
X049921Y024698D03*
X049291Y024628D03*
X049851Y023753D03*
X049676Y021863D03*
X049746Y021163D03*
X048941Y020673D03*
X048801Y020043D03*
X048801Y019658D03*
X048206Y019833D03*
X046841Y020358D03*
X046456Y020358D03*
X046106Y020918D03*
X045966Y021303D03*
X045686Y021023D03*
X045056Y020743D03*
X044111Y021863D03*
X042711Y021443D03*
X042431Y021163D03*
X042046Y021303D03*
X042851Y020743D03*
X043236Y020743D03*
X042291Y020078D03*
X042151Y019693D03*
X041661Y018678D03*
X040856Y018538D03*
X040436Y018818D03*
X040716Y019098D03*
X040331Y020463D03*
X039071Y019903D03*
X038161Y019378D03*
X036026Y018538D03*
X035326Y018258D03*
X034766Y017558D03*
X034871Y017068D03*
X033856Y016648D03*
X032561Y017558D03*
X032036Y017418D03*
X031406Y017418D03*
X030076Y016998D03*
X029796Y015948D03*
X029656Y015388D03*
X030321Y014723D03*
X030321Y014338D03*
X029656Y014408D03*
X028651Y014282D03*
X028466Y015143D03*
X028501Y015598D03*
X027836Y015878D03*
X028651Y016447D03*
X028221Y017138D03*
X027568Y017136D03*
X026584Y017136D03*
X025701Y016998D03*
X025106Y017278D03*
X024966Y018258D03*
X025421Y018328D03*
X025876Y018398D03*
X026961Y019098D03*
X027696Y018958D03*
X027346Y018118D03*
X029026Y018118D03*
X030636Y018958D03*
X031406Y018678D03*
X032421Y019938D03*
X033296Y018678D03*
X033401Y017838D03*
X035466Y019238D03*
X034906Y020743D03*
X035466Y021583D03*
X036061Y022003D03*
X036621Y022668D03*
X037460Y023042D03*
X037460Y024026D03*
X037460Y025010D03*
X036621Y025258D03*
X036341Y026098D03*
X035186Y026413D03*
X037460Y026979D03*
X037411Y027963D03*
X037411Y028947D03*
X037460Y029932D03*
X039133Y029932D03*
X039133Y028947D03*
X039133Y027963D03*
X039316Y027603D03*
X039133Y026979D03*
X039631Y025818D03*
X040471Y025083D03*
X039911Y024523D03*
X040751Y024208D03*
X041626Y024698D03*
X041840Y025503D03*
X039071Y024523D03*
X039133Y024026D03*
X039351Y023368D03*
X039133Y023042D03*
X039211Y022563D03*
X039071Y022003D03*
X035746Y023158D03*
X031406Y022668D03*
X029306Y021303D03*
X028921Y021303D03*
X028291Y022703D03*
X027696Y022423D03*
X027346Y023158D03*
X026879Y022304D03*
X026879Y020630D03*
X028431Y019658D03*
X024406Y020218D03*
X023111Y019658D03*
X022621Y019378D03*
X023181Y018258D03*
X022621Y018118D03*
X021886Y018363D03*
X023111Y016858D03*
X023951Y016718D03*
X023811Y017418D03*
X025108Y016054D03*
X025108Y015266D03*
X025946Y014688D03*
X026156Y015073D03*
X026856Y014478D03*
X027171Y014198D03*
X027371Y013593D03*
X026683Y013691D03*
X026289Y013691D03*
X025666Y013603D03*
X025106Y014093D03*
X024721Y012658D03*
X023391Y012378D03*
X023881Y011468D03*
X025001Y010978D03*
X024721Y010383D03*
X025698Y010493D03*
X026683Y010493D03*
X027171Y010628D03*
X027556Y010628D03*
X027556Y011188D03*
X027276Y011748D03*
X027241Y012448D03*
X026786Y012588D03*
X025596Y012028D03*
X022481Y011818D03*
X022481Y011433D03*
X022201Y012448D03*
X020836Y013078D03*
X020346Y014058D03*
X020941Y014268D03*
X020974Y014676D03*
X022096Y014093D03*
X020974Y016398D03*
X017037Y016349D03*
X017037Y017136D03*
X017037Y017924D03*
X017037Y015562D03*
X017037Y014774D03*
X017037Y013987D03*
X015954Y013790D03*
X016594Y012904D03*
X015954Y012018D03*
X013887Y010493D03*
X012312Y010493D03*
X012903Y012166D03*
X009163Y008819D03*
X006456Y009656D03*
X004783Y009656D03*
X010147Y006802D03*
X010738Y006802D03*
X010688Y006162D03*
X010147Y006162D03*
X019506Y006848D03*
X022549Y006113D03*
X024651Y005168D03*
X023741Y004433D03*
X023111Y004433D03*
X026891Y006603D03*
X027521Y004888D03*
X030076Y006288D03*
X030496Y006008D03*
X032631Y007198D03*
X030741Y008388D03*
X030321Y008388D03*
X029341Y008948D03*
X028501Y009438D03*
X028186Y008668D03*
X026683Y008819D03*
X025698Y008819D03*
X023321Y009333D03*
X022621Y010278D03*
X021466Y010383D03*
X020974Y010493D03*
X027556Y015248D03*
X030216Y012763D03*
X031021Y012903D03*
X031266Y013813D03*
X032342Y013199D03*
X033720Y012314D03*
X034015Y013199D03*
X035186Y013743D03*
X036621Y013463D03*
X037181Y013498D03*
X037461Y013183D03*
X038931Y013323D03*
X040261Y014233D03*
X040646Y014303D03*
X040856Y014653D03*
X040296Y015073D03*
X040576Y015458D03*
X039981Y015458D03*
X039771Y016718D03*
X040576Y017558D03*
X038441Y016648D03*
X037881Y016088D03*
X037881Y015458D03*
X034906Y015213D03*
X031196Y015143D03*
X031196Y016088D03*
X035186Y012308D03*
X038721Y011608D03*
X039351Y010908D03*
X040296Y010768D03*
X040156Y011468D03*
X040576Y011748D03*
X041556Y012273D03*
X041545Y012658D03*
X042431Y012588D03*
X042151Y012028D03*
X041871Y011748D03*
X042151Y010908D03*
X042711Y010138D03*
X043166Y009158D03*
X042151Y008878D03*
X042151Y008493D03*
X041626Y007758D03*
X041346Y007198D03*
X040856Y006638D03*
X040576Y006918D03*
X040786Y007758D03*
X039946Y008038D03*
X038826Y008388D03*
X038546Y008668D03*
X039106Y009228D03*
X039246Y009858D03*
X040506Y009228D03*
X042711Y007513D03*
X043656Y007233D03*
X043376Y006918D03*
X042991Y006918D03*
X041941Y006148D03*
X042431Y005868D03*
X041348Y005867D03*
X041171Y004923D03*
X041766Y004818D03*
X042283Y003751D03*
X043236Y005098D03*
X044706Y004818D03*
X040610Y003751D03*
X040156Y004328D03*
X039666Y005378D03*
X038161Y005308D03*
X037881Y005588D03*
X037111Y005308D03*
X037111Y004923D03*
X036831Y004328D03*
X036271Y003908D03*
X036971Y006288D03*
X037041Y008108D03*
X035081Y008108D03*
X036901Y009578D03*
X032637Y009361D03*
X031301Y010768D03*
X030461Y011188D03*
X040576Y012623D03*
X042256Y013638D03*
X042816Y013813D03*
X042606Y014198D03*
X041521Y013918D03*
X044951Y015808D03*
X045231Y016648D03*
X045383Y017284D03*
X046564Y017284D03*
X047191Y017523D03*
X047746Y017284D03*
X048927Y017284D03*
X049816Y017033D03*
X050108Y017284D03*
X051181Y017978D03*
X051461Y018993D03*
X051461Y019378D03*
X051461Y019763D03*
X049676Y019938D03*
X047156Y021058D03*
X046663Y021861D03*
X047716Y021863D03*
X052126Y022073D03*
X053456Y022843D03*
X055177Y023436D03*
X055177Y024420D03*
X056850Y024420D03*
X056850Y025404D03*
X058621Y026388D03*
X060147Y026438D03*
X060147Y027028D03*
X060147Y027619D03*
X058251Y027988D03*
X057831Y027953D03*
X056850Y028357D03*
X056850Y029341D03*
X056850Y030325D03*
X056850Y031310D03*
X058111Y031173D03*
X058340Y032884D03*
X055177Y031310D03*
X055177Y030325D03*
X054611Y029563D03*
X055177Y029341D03*
X055177Y028357D03*
X055177Y027373D03*
X056850Y027373D03*
X060147Y025847D03*
X060147Y025256D03*
X056850Y023436D03*
X060344Y020237D03*
X062805Y020630D03*
X063444Y019745D03*
X064035Y020630D03*
X063444Y015168D03*
X053981Y011468D03*
X052913Y011969D03*
X052826Y010313D03*
X051289Y010985D03*
X049271Y011034D03*
X049271Y009853D03*
X046001Y011783D03*
X047226Y012798D03*
X048871Y013778D03*
X049271Y014184D03*
X049271Y013003D03*
X050796Y014933D03*
X051181Y015703D03*
X052913Y016398D03*
X047121Y016088D03*
X046421Y016368D03*
X046421Y015248D03*
X044426Y017558D03*
X044146Y018118D03*
X044146Y018993D03*
X045383Y018957D03*
X046564Y018957D03*
X046946Y018958D03*
X051289Y026880D03*
X052476Y027428D03*
X048626Y030333D03*
X048041Y030325D03*
X047646Y030333D03*
X047261Y030333D03*
X046564Y030227D03*
X046171Y030227D03*
X045756Y030228D03*
X045371Y030228D03*
X044891Y030325D03*
X044496Y030333D03*
X043316Y030325D03*
X042824Y030030D03*
X041941Y030543D03*
X041836Y029913D03*
X042571Y030753D03*
X043120Y031310D03*
X044399Y032441D03*
X045441Y032293D03*
X046417Y032097D03*
X046761Y032441D03*
X047366Y031838D03*
X046860Y031310D03*
X044986Y031313D03*
X040821Y032223D03*
X040681Y031033D03*
X035781Y029948D03*
X033716Y032328D03*
X033296Y033868D03*
X033228Y035739D03*
X033228Y036231D03*
X032834Y037215D03*
X031161Y037215D03*
X028897Y036920D03*
X027224Y036920D03*
X027224Y035837D03*
X024271Y035985D03*
X023881Y036073D03*
X020974Y033524D03*
X020451Y032573D03*
X020974Y031851D03*
X020311Y031103D03*
X020031Y031383D03*
X021501Y030893D03*
X022656Y030333D03*
X023181Y029598D03*
X023181Y029213D03*
X023076Y028653D03*
X022901Y028268D03*
X022621Y027988D03*
X022131Y027673D03*
X022131Y027078D03*
X022376Y026763D03*
X023041Y026487D03*
X023041Y027077D03*
X024371Y026973D03*
X024616Y026098D03*
X024056Y025818D03*
X022901Y025958D03*
X022901Y025258D03*
X022621Y024978D03*
X021851Y025013D03*
X021368Y025010D03*
X020974Y025010D03*
X020186Y025010D03*
X019793Y025010D03*
X019051Y025188D03*
X019331Y026308D03*
X019005Y026585D03*
X019005Y026979D03*
X019611Y027603D03*
X020031Y027078D03*
X018876Y028163D03*
X019156Y028723D03*
X019926Y029073D03*
X020777Y028947D03*
X021171Y028947D03*
X021851Y028828D03*
X019716Y030088D03*
X019296Y030088D03*
X018806Y029598D03*
X017721Y027253D03*
X017441Y025748D03*
X015314Y026487D03*
X015314Y027373D03*
X013801Y027918D03*
X013641Y027373D03*
X013346Y026763D03*
X013641Y026487D03*
X008936Y025468D03*
X014886Y021723D03*
X016076Y020463D03*
X016286Y022913D03*
X015306Y023508D03*
X020451Y021723D03*
X020974Y022304D03*
X021186Y022633D03*
X021886Y022913D03*
X021606Y023893D03*
X022446Y023893D03*
X023531Y023333D03*
X024301Y024558D03*
X026226Y024978D03*
X026296Y024278D03*
X027906Y025083D03*
X027906Y026063D03*
X027913Y026782D03*
X026366Y027323D03*
X026240Y026782D03*
X026226Y026063D03*
X027101Y027988D03*
X026646Y028898D03*
X024231Y028303D03*
X026086Y031313D03*
X027224Y033081D03*
X023188Y032934D03*
X018612Y036034D03*
X018612Y036821D03*
X018612Y037609D03*
X018612Y038396D03*
X018612Y039184D03*
X018612Y039971D03*
X018612Y040758D03*
X017824Y040758D03*
X017037Y040758D03*
X016249Y040758D03*
X015462Y040758D03*
X014675Y040758D03*
X013887Y040758D03*
X013887Y039971D03*
X013887Y039184D03*
X013887Y038396D03*
X013887Y037609D03*
X013887Y036821D03*
X013887Y036034D03*
X014675Y036034D03*
X015462Y036034D03*
X016249Y036034D03*
X017037Y036034D03*
X017824Y036034D03*
X029201Y030053D03*
X030846Y028653D03*
X030461Y027883D03*
X030076Y027043D03*
X029516Y026413D03*
X029516Y026028D03*
X031406Y027323D03*
X031406Y029598D03*
X031686Y029913D03*
X030076Y024173D03*
X020974Y020630D03*
X005821Y016840D03*
X004438Y016300D03*
X003454Y015906D03*
X004635Y014627D03*
X031616Y004048D03*
X051426Y007338D03*
X052913Y009016D03*
X049991Y031628D03*
X050691Y032678D03*
X046631Y037508D03*
X044776Y037228D03*
X043366Y039577D03*
X042431Y039577D03*
X041446Y038839D03*
X046564Y039577D03*
X047204Y039577D03*
X048139Y039577D03*
M02*
