G75*
G70*
%OFA0B0*%
%FSLAX24Y24*%
%IPPOS*%
%LPD*%
%AMOC8*
5,1,8,0,0,1.08239X$1,22.5*
%
%ADD10R,0.0157X0.0630*%
%ADD11R,0.0512X0.0118*%
%ADD12R,0.0118X0.0512*%
%ADD13OC8,0.0600*%
%ADD14C,0.2000*%
%ADD15R,0.0800X0.0260*%
%ADD16O,0.0600X0.1200*%
%ADD17R,0.0236X0.0866*%
%ADD18O,0.1200X0.0600*%
%ADD19O,0.0787X0.1575*%
%ADD20O,0.1575X0.0787*%
%ADD21O,0.0520X0.1040*%
%ADD22C,0.0750*%
%ADD23OC8,0.0750*%
%ADD24R,0.2283X0.2441*%
%ADD25R,0.0630X0.1181*%
%ADD26R,0.0118X0.0472*%
%ADD27R,0.0512X0.0106*%
%ADD28R,0.0106X0.0512*%
%ADD29R,0.0512X0.0591*%
%ADD30R,0.0591X0.0512*%
%ADD31R,0.0436X0.0436*%
%ADD32O,0.1040X0.0520*%
%ADD33C,0.0550*%
%ADD34R,0.1660X0.1660*%
%ADD35R,0.0984X0.0315*%
%ADD36R,0.1575X0.1043*%
%ADD37R,0.0984X0.0276*%
%ADD38R,0.0984X0.0433*%
%ADD39O,0.1320X0.0660*%
%ADD40C,0.0520*%
%ADD41R,0.0591X0.0591*%
%ADD42C,0.0554*%
%ADD43OC8,0.0554*%
%ADD44C,0.0100*%
%ADD45C,0.0310*%
%ADD46C,0.0160*%
%ADD47C,0.0070*%
%ADD48C,0.0200*%
D10*
X042470Y035857D03*
X042785Y035857D03*
X043100Y035857D03*
X043415Y035857D03*
X043730Y035857D03*
X044045Y035857D03*
X044360Y035857D03*
X044675Y035857D03*
X044990Y035857D03*
X045305Y035857D03*
X045620Y035857D03*
X045934Y035857D03*
X046249Y035857D03*
X046564Y035857D03*
X046879Y035857D03*
X047194Y035857D03*
X047509Y035857D03*
X047824Y035857D03*
X048139Y035857D03*
X048454Y035857D03*
X048769Y035857D03*
X049084Y035857D03*
X049399Y035857D03*
X049714Y035857D03*
X050029Y035857D03*
X050344Y035857D03*
X050659Y035857D03*
X050659Y040148D03*
X050344Y040148D03*
X050029Y040148D03*
X049714Y040148D03*
X049399Y040148D03*
X049084Y040148D03*
X048769Y040148D03*
X048454Y040148D03*
X048139Y040148D03*
X047824Y040148D03*
X047509Y040148D03*
X047194Y040148D03*
X046879Y040148D03*
X046564Y040148D03*
X046249Y040148D03*
X045934Y040148D03*
X045620Y040148D03*
X045305Y040148D03*
X044990Y040148D03*
X044675Y040148D03*
X044360Y040148D03*
X044045Y040148D03*
X043730Y040148D03*
X043415Y040148D03*
X043100Y040148D03*
X042785Y040148D03*
X042470Y040148D03*
D11*
X042332Y030030D03*
X042332Y029833D03*
X042332Y029636D03*
X042332Y029440D03*
X042332Y029243D03*
X042332Y029046D03*
X042332Y028849D03*
X042332Y028652D03*
X042332Y028455D03*
X042332Y028258D03*
X042332Y028062D03*
X042332Y027865D03*
X042332Y027668D03*
X042332Y027471D03*
X042332Y027274D03*
X042332Y027077D03*
X042332Y026880D03*
X042332Y026684D03*
X042332Y026487D03*
X042332Y026290D03*
X042332Y026093D03*
X042332Y025896D03*
X042332Y025699D03*
X042332Y025503D03*
X042332Y025306D03*
X042332Y025109D03*
X042332Y024912D03*
X042332Y024715D03*
X042332Y024518D03*
X042332Y024321D03*
X042332Y024125D03*
X042332Y023928D03*
X042332Y023731D03*
X042332Y023534D03*
X042332Y023337D03*
X042332Y023140D03*
X050797Y023140D03*
X050797Y023337D03*
X050797Y023534D03*
X050797Y023731D03*
X050797Y023928D03*
X050797Y024125D03*
X050797Y024321D03*
X050797Y024518D03*
X050797Y024715D03*
X050797Y024912D03*
X050797Y025109D03*
X050797Y025306D03*
X050797Y025503D03*
X050797Y025699D03*
X050797Y025896D03*
X050797Y026093D03*
X050797Y026290D03*
X050797Y026487D03*
X050797Y026684D03*
X050797Y026880D03*
X050797Y027077D03*
X050797Y027274D03*
X050797Y027471D03*
X050797Y027668D03*
X050797Y027865D03*
X050797Y028062D03*
X050797Y028258D03*
X050797Y028455D03*
X050797Y028652D03*
X050797Y028849D03*
X050797Y029046D03*
X050797Y029243D03*
X050797Y029440D03*
X050797Y029636D03*
X050797Y029833D03*
X050797Y030030D03*
X029143Y016841D03*
X029143Y016644D03*
X029143Y016447D03*
X029143Y016251D03*
X029143Y016054D03*
X029143Y015857D03*
X029143Y015660D03*
X029143Y015463D03*
X029143Y015266D03*
X029143Y015069D03*
X029143Y014873D03*
X029143Y014676D03*
X029143Y014479D03*
X029143Y014282D03*
X029143Y014085D03*
X029143Y013888D03*
X024616Y013888D03*
X024616Y014085D03*
X024616Y014282D03*
X024616Y014479D03*
X024616Y014676D03*
X024616Y014873D03*
X024616Y015069D03*
X024616Y015266D03*
X024616Y015463D03*
X024616Y015660D03*
X024616Y015857D03*
X024616Y016054D03*
X024616Y016251D03*
X024616Y016447D03*
X024616Y016644D03*
X024616Y016841D03*
D12*
X025403Y017629D03*
X025600Y017629D03*
X025797Y017629D03*
X025994Y017629D03*
X026190Y017629D03*
X026387Y017629D03*
X026584Y017629D03*
X026781Y017629D03*
X026978Y017629D03*
X027175Y017629D03*
X027371Y017629D03*
X027568Y017629D03*
X027765Y017629D03*
X027962Y017629D03*
X028159Y017629D03*
X028356Y017629D03*
X028356Y013101D03*
X028159Y013101D03*
X027962Y013101D03*
X027765Y013101D03*
X027568Y013101D03*
X027371Y013101D03*
X027175Y013101D03*
X026978Y013101D03*
X026781Y013101D03*
X026584Y013101D03*
X026387Y013101D03*
X026190Y013101D03*
X025994Y013101D03*
X025797Y013101D03*
X025600Y013101D03*
X025403Y013101D03*
X043120Y022353D03*
X043316Y022353D03*
X043513Y022353D03*
X043710Y022353D03*
X043907Y022353D03*
X044104Y022353D03*
X044301Y022353D03*
X044497Y022353D03*
X044694Y022353D03*
X044891Y022353D03*
X045088Y022353D03*
X045285Y022353D03*
X045482Y022353D03*
X045679Y022353D03*
X045875Y022353D03*
X046072Y022353D03*
X046269Y022353D03*
X046466Y022353D03*
X046663Y022353D03*
X046860Y022353D03*
X047057Y022353D03*
X047253Y022353D03*
X047450Y022353D03*
X047647Y022353D03*
X047844Y022353D03*
X048041Y022353D03*
X048238Y022353D03*
X048434Y022353D03*
X048631Y022353D03*
X048828Y022353D03*
X049025Y022353D03*
X049222Y022353D03*
X049419Y022353D03*
X049616Y022353D03*
X049812Y022353D03*
X050009Y022353D03*
X050009Y030817D03*
X049812Y030817D03*
X049616Y030817D03*
X049419Y030817D03*
X049222Y030817D03*
X049025Y030817D03*
X048828Y030817D03*
X048631Y030817D03*
X048434Y030817D03*
X048238Y030817D03*
X048041Y030817D03*
X047844Y030817D03*
X047647Y030817D03*
X047450Y030817D03*
X047253Y030817D03*
X047057Y030817D03*
X046860Y030817D03*
X046663Y030817D03*
X046466Y030817D03*
X046269Y030817D03*
X046072Y030817D03*
X045875Y030817D03*
X045679Y030817D03*
X045482Y030817D03*
X045285Y030817D03*
X045088Y030817D03*
X044891Y030817D03*
X044694Y030817D03*
X044497Y030817D03*
X044301Y030817D03*
X044104Y030817D03*
X043907Y030817D03*
X043710Y030817D03*
X043513Y030817D03*
X043316Y030817D03*
X043120Y030817D03*
D13*
X031008Y038684D03*
X029928Y038684D03*
X028848Y038684D03*
X027768Y038684D03*
X026688Y038684D03*
X027228Y039684D03*
X028308Y039684D03*
X029388Y039684D03*
X030468Y039684D03*
X046852Y013369D03*
X047852Y013369D03*
X047852Y012369D03*
X046852Y012369D03*
X046852Y011369D03*
X047852Y011369D03*
X047852Y010369D03*
X046852Y010369D03*
X046852Y009369D03*
X047852Y009369D03*
X047852Y008369D03*
X046852Y008369D03*
X046852Y007369D03*
X047852Y007369D03*
X047852Y006369D03*
X046852Y006369D03*
X046852Y005369D03*
X047852Y005369D03*
X047852Y004369D03*
X046852Y004369D03*
X033399Y007695D03*
X032309Y007695D03*
X031229Y007695D03*
X030139Y007695D03*
X029049Y007695D03*
X027969Y007695D03*
X026879Y007695D03*
X025789Y007695D03*
X024709Y007695D03*
X023619Y007695D03*
X022529Y007695D03*
X021449Y007695D03*
X020359Y007695D03*
X020899Y006695D03*
X021989Y006695D03*
X023079Y006695D03*
X024159Y006695D03*
X025249Y006695D03*
X026339Y006695D03*
X027419Y006695D03*
X028509Y006695D03*
X029599Y006695D03*
X030679Y006695D03*
X031769Y006695D03*
X032859Y006695D03*
D14*
X036139Y007195D03*
X017619Y007195D03*
X023918Y039184D03*
X033778Y039184D03*
D15*
X033927Y036209D03*
X033927Y035709D03*
X033927Y035209D03*
X033927Y034709D03*
X033927Y034209D03*
X033927Y033709D03*
X033927Y033209D03*
X033927Y032709D03*
X030067Y032709D03*
X030067Y033209D03*
X030067Y033709D03*
X030067Y034209D03*
X030067Y034709D03*
X030067Y035209D03*
X030067Y035709D03*
X030067Y036209D03*
X024940Y035959D03*
X024940Y035459D03*
X024940Y034959D03*
X024940Y034459D03*
X024940Y033959D03*
X024940Y033459D03*
X024940Y032959D03*
X022520Y032959D03*
X022520Y033459D03*
X022520Y033959D03*
X022520Y034459D03*
X022520Y034959D03*
X022520Y035459D03*
X022520Y035959D03*
X031969Y012337D03*
X031969Y011837D03*
X031969Y011337D03*
X031969Y010837D03*
X031969Y010337D03*
X031969Y009837D03*
X031969Y009337D03*
X034389Y009337D03*
X034389Y009837D03*
X034389Y010337D03*
X034389Y010837D03*
X034389Y011337D03*
X034389Y011837D03*
X034389Y012337D03*
D16*
X034179Y015365D03*
X033179Y015365D03*
X032179Y015365D03*
X012238Y021270D03*
X011238Y021270D03*
X010238Y021270D03*
X009238Y021270D03*
D17*
X009180Y007504D03*
X009680Y007504D03*
X010180Y007504D03*
X010680Y007504D03*
X010680Y005457D03*
X010180Y005457D03*
X009680Y005457D03*
X009180Y005457D03*
D18*
X012312Y005506D03*
X012312Y006506D03*
X012312Y007506D03*
X016643Y023479D03*
X016643Y024479D03*
X016643Y025479D03*
X016643Y026479D03*
X016643Y027479D03*
X016643Y028479D03*
X016643Y029479D03*
X016643Y030479D03*
X025305Y030479D03*
X025305Y029479D03*
X025305Y028479D03*
X025305Y027479D03*
X025305Y026479D03*
X025305Y025479D03*
X025305Y024479D03*
X025305Y023479D03*
X010419Y037396D03*
X010419Y038396D03*
X010419Y039396D03*
D19*
X007037Y038396D03*
X004635Y038396D03*
D20*
X005816Y036506D03*
D21*
X008769Y036396D03*
X008769Y040396D03*
D22*
X020186Y039396D03*
X018218Y016562D03*
X062509Y027388D03*
D23*
X062509Y025388D03*
X020186Y037396D03*
X018218Y014562D03*
D24*
X015068Y015711D03*
X062537Y023404D03*
D25*
X063434Y020577D03*
X061639Y020577D03*
X015966Y012884D03*
X014171Y012884D03*
D26*
X039970Y013140D03*
X040167Y013140D03*
X040364Y013140D03*
X040560Y013140D03*
X040757Y013140D03*
X040954Y013140D03*
X041151Y013140D03*
X041348Y013140D03*
X041545Y013140D03*
X041742Y013140D03*
X041938Y013140D03*
X042135Y013140D03*
X042332Y013140D03*
X042529Y013140D03*
X042726Y013140D03*
X042923Y013140D03*
X042923Y005384D03*
X042726Y005384D03*
X042529Y005384D03*
X042332Y005384D03*
X042135Y005384D03*
X041938Y005384D03*
X041742Y005384D03*
X041545Y005384D03*
X041348Y005384D03*
X041151Y005384D03*
X040954Y005384D03*
X040757Y005384D03*
X040560Y005384D03*
X040364Y005384D03*
X040167Y005384D03*
X039970Y005384D03*
D27*
X023570Y025109D03*
X023570Y025306D03*
X023570Y025503D03*
X023570Y025699D03*
X023570Y025896D03*
X023570Y026093D03*
X023570Y026290D03*
X023570Y026487D03*
X023570Y026684D03*
X023570Y026880D03*
X023570Y027077D03*
X023570Y027274D03*
X023570Y027471D03*
X023570Y027668D03*
X023570Y027865D03*
X023570Y028062D03*
X023570Y028258D03*
X023570Y028455D03*
X023570Y028652D03*
X023570Y028849D03*
X018377Y028849D03*
X018377Y028652D03*
X018377Y028455D03*
X018377Y028258D03*
X018377Y028062D03*
X018377Y027865D03*
X018377Y027668D03*
X018377Y027471D03*
X018377Y027274D03*
X018377Y027077D03*
X018377Y026880D03*
X018377Y026684D03*
X018377Y026487D03*
X018377Y026290D03*
X018377Y026093D03*
X018377Y025896D03*
X018377Y025699D03*
X018377Y025503D03*
X018377Y025306D03*
X018377Y025109D03*
D28*
X019104Y024382D03*
X019301Y024382D03*
X019497Y024382D03*
X019694Y024382D03*
X019891Y024382D03*
X020088Y024382D03*
X020285Y024382D03*
X020482Y024382D03*
X020679Y024382D03*
X020875Y024382D03*
X021072Y024382D03*
X021269Y024382D03*
X021466Y024382D03*
X021663Y024382D03*
X021860Y024382D03*
X022057Y024382D03*
X022253Y024382D03*
X022450Y024382D03*
X022647Y024382D03*
X022844Y024382D03*
X022844Y029575D03*
X022647Y029575D03*
X022450Y029575D03*
X022253Y029575D03*
X022057Y029575D03*
X021860Y029575D03*
X021663Y029575D03*
X021466Y029575D03*
X021269Y029575D03*
X021072Y029575D03*
X020875Y029575D03*
X020679Y029575D03*
X020482Y029575D03*
X020285Y029575D03*
X020088Y029575D03*
X019891Y029575D03*
X019694Y029575D03*
X019497Y029575D03*
X019301Y029575D03*
X019104Y029575D03*
D29*
X014812Y027373D03*
X014143Y027373D03*
X014143Y026487D03*
X014812Y026487D03*
X026742Y026782D03*
X027411Y026782D03*
X027411Y025798D03*
X026742Y025798D03*
X026742Y024814D03*
X027411Y024814D03*
X027411Y023829D03*
X026742Y023829D03*
X037962Y024026D03*
X038631Y024026D03*
X038631Y023042D03*
X037962Y023042D03*
X037962Y025010D03*
X038631Y025010D03*
X038631Y025995D03*
X037962Y025995D03*
X037962Y026979D03*
X038631Y026979D03*
X038631Y027963D03*
X037962Y027963D03*
X037962Y028947D03*
X038631Y028947D03*
X038631Y029932D03*
X037962Y029932D03*
X028395Y033081D03*
X027726Y033081D03*
X027726Y033967D03*
X028395Y033967D03*
X028395Y034951D03*
X027726Y034951D03*
X027726Y035837D03*
X028395Y035837D03*
X028395Y036920D03*
X027726Y036920D03*
X031663Y037215D03*
X032332Y037215D03*
X055679Y036034D03*
X056348Y036034D03*
X056348Y035050D03*
X055679Y035050D03*
X055679Y034066D03*
X056348Y034066D03*
X058828Y035050D03*
X059497Y035050D03*
X059497Y036034D03*
X058828Y036034D03*
X058828Y037018D03*
X059497Y037018D03*
X056348Y039380D03*
X055679Y039380D03*
X058828Y032884D03*
X059497Y032884D03*
X059497Y031900D03*
X058828Y031900D03*
X056348Y031310D03*
X055679Y031310D03*
X055679Y030325D03*
X056348Y030325D03*
X056348Y029341D03*
X055679Y029341D03*
X055679Y028357D03*
X056348Y028357D03*
X056348Y027373D03*
X055679Y027373D03*
X055679Y026388D03*
X056348Y026388D03*
X057450Y026388D03*
X058120Y026388D03*
X056348Y025404D03*
X055679Y025404D03*
X055679Y024420D03*
X056348Y024420D03*
X056348Y023436D03*
X055679Y023436D03*
X050442Y014184D03*
X049773Y014184D03*
X049773Y013003D03*
X050442Y013003D03*
X050442Y011034D03*
X049773Y011034D03*
X049773Y009853D03*
X050442Y009853D03*
X041781Y003751D03*
X041112Y003751D03*
X033513Y013199D03*
X032844Y013199D03*
X032844Y014184D03*
X033513Y014184D03*
X005954Y009656D03*
X005285Y009656D03*
D30*
X009163Y009321D03*
X009163Y009991D03*
X010738Y009991D03*
X010738Y009321D03*
X012312Y009321D03*
X012312Y009991D03*
X013887Y009991D03*
X013887Y009321D03*
X012903Y012668D03*
X012903Y013337D03*
X012903Y015424D03*
X012903Y016093D03*
X020974Y015896D03*
X020974Y015227D03*
X020974Y009991D03*
X020974Y009321D03*
X021958Y009321D03*
X021958Y009991D03*
X025698Y009991D03*
X025698Y009321D03*
X026683Y009321D03*
X026683Y009991D03*
X026879Y021132D03*
X026879Y021802D03*
X020974Y021802D03*
X020974Y021132D03*
X020974Y032353D03*
X020974Y033022D03*
X041446Y037668D03*
X041446Y038337D03*
X043218Y033613D03*
X043218Y032943D03*
X044399Y032943D03*
X044399Y033613D03*
X045580Y033613D03*
X045580Y032943D03*
X046761Y032943D03*
X046761Y033613D03*
X049616Y033613D03*
X049616Y032943D03*
X051683Y037668D03*
X051683Y038337D03*
X060344Y023770D03*
X060344Y023101D03*
X060344Y021408D03*
X060344Y020739D03*
X050108Y018455D03*
X050108Y017786D03*
X048927Y017786D03*
X048927Y018455D03*
X047746Y018455D03*
X047746Y017786D03*
X046564Y017786D03*
X046564Y018455D03*
X045383Y018455D03*
X045383Y017786D03*
X004635Y014125D03*
X004635Y013455D03*
X004438Y016802D03*
X004438Y017471D03*
D31*
X054734Y040758D03*
X057293Y040758D03*
D32*
X012238Y030979D03*
X012238Y029979D03*
X012238Y028979D03*
X012238Y027979D03*
X012238Y026979D03*
X012238Y025979D03*
X012238Y024979D03*
X012238Y023979D03*
X012238Y022979D03*
X009238Y022979D03*
X009238Y023979D03*
X009238Y024979D03*
X009238Y025979D03*
X009238Y026979D03*
X009238Y027979D03*
X009238Y028979D03*
X009238Y029979D03*
X009238Y030979D03*
D33*
X007014Y025276D03*
X007014Y024276D03*
X007014Y023276D03*
X006014Y022776D03*
X006014Y023776D03*
X006014Y024776D03*
D34*
X003364Y026026D03*
X003364Y022026D03*
D35*
X052167Y014924D03*
X052167Y013940D03*
X052167Y012955D03*
X052167Y011971D03*
X052167Y010987D03*
X052167Y010003D03*
X052167Y009018D03*
X052167Y008034D03*
X052167Y007443D03*
D36*
X063454Y006735D03*
X063454Y015947D03*
D37*
X052167Y006853D03*
X052167Y006459D03*
D38*
X052167Y016420D03*
D39*
X003651Y028629D03*
X003651Y030129D03*
X003651Y031629D03*
D40*
X004120Y005006D03*
X007120Y005006D03*
X007120Y008006D03*
X004120Y008006D03*
D41*
X003454Y013101D03*
X003454Y014479D03*
X003454Y016447D03*
X003454Y017825D03*
D42*
X060620Y032339D03*
X061620Y032789D03*
X060620Y033239D03*
X061620Y033689D03*
X060620Y034139D03*
X061620Y034589D03*
X060620Y035039D03*
X061620Y035489D03*
X061620Y036389D03*
X062620Y035939D03*
X062620Y035039D03*
X062620Y034139D03*
X062620Y033239D03*
X062620Y032339D03*
D43*
X060620Y035939D03*
D44*
X055679Y039380D02*
X055177Y039380D01*
X051683Y038839D02*
X051683Y038337D01*
X051683Y037668D02*
X051683Y037166D01*
X050698Y036428D02*
X050659Y036388D01*
X050659Y035857D01*
X050029Y035857D02*
X050029Y036408D01*
X050009Y036428D01*
X048779Y036428D02*
X048769Y036418D01*
X048769Y035857D01*
X048139Y035857D02*
X048139Y036428D01*
X046761Y034115D02*
X046761Y033613D01*
X046761Y032943D02*
X046761Y032441D01*
X046860Y031310D02*
X046860Y030817D01*
X046466Y030817D02*
X046466Y030424D01*
X046564Y030325D01*
X046564Y030227D01*
X046269Y030424D02*
X046171Y030325D01*
X046171Y030227D01*
X046269Y030424D02*
X046269Y030817D01*
X044891Y030817D02*
X044891Y030325D01*
X043316Y030325D02*
X043316Y030817D01*
X043120Y030817D02*
X043120Y031310D01*
X042824Y030030D02*
X042332Y030030D01*
X042332Y028652D02*
X042824Y028652D01*
X042332Y028455D02*
X041840Y028455D01*
X041840Y027471D02*
X042332Y027471D01*
X042332Y027077D02*
X042726Y027077D01*
X042824Y027176D01*
X042923Y027176D01*
X042726Y026880D02*
X042332Y026880D01*
X042726Y026880D02*
X042824Y026782D01*
X042923Y026782D01*
X042332Y025503D02*
X041840Y025503D01*
X042332Y025306D02*
X042824Y025306D01*
X042824Y023731D02*
X042332Y023731D01*
X042332Y023337D02*
X042824Y023337D01*
X042824Y023239D01*
X042726Y023140D01*
X042332Y023140D01*
X044694Y022845D02*
X044694Y022353D01*
X045974Y022845D02*
X045974Y022943D01*
X045974Y022845D02*
X046072Y022747D01*
X046072Y022353D01*
X046269Y022353D02*
X046269Y022747D01*
X046368Y022845D01*
X046368Y022943D01*
X046663Y022353D02*
X046663Y021861D01*
X047844Y022353D02*
X047844Y022845D01*
X049616Y022845D02*
X049616Y022353D01*
X049812Y022353D02*
X049812Y022747D01*
X049714Y022845D01*
X049616Y022845D01*
X050305Y023140D02*
X050797Y023140D01*
X050797Y024715D02*
X050305Y024715D01*
X050797Y024912D02*
X051289Y024912D01*
X050797Y026290D02*
X050501Y026290D01*
X050403Y026191D01*
X050206Y026191D01*
X050403Y026487D02*
X050305Y026585D01*
X050206Y026585D01*
X050403Y026487D02*
X050797Y026487D01*
X050797Y026880D02*
X051289Y026880D01*
X051289Y027865D02*
X050797Y027865D01*
X050797Y028062D02*
X050305Y028062D01*
X050206Y029833D02*
X050206Y029932D01*
X050305Y030030D01*
X050797Y030030D01*
X050797Y029833D02*
X050206Y029833D01*
X049812Y030325D02*
X049812Y030817D01*
X048041Y030817D02*
X048041Y030325D01*
X049616Y033613D02*
X049616Y034115D01*
X045580Y034115D02*
X045580Y033613D01*
X044399Y033613D02*
X044399Y034115D01*
X044045Y035857D02*
X044045Y036418D01*
X044104Y036477D01*
X043730Y036408D02*
X043730Y035857D01*
X043730Y036408D02*
X043661Y036477D01*
X041446Y037166D02*
X041446Y037668D01*
X041446Y038337D02*
X041446Y038839D01*
X042431Y039577D02*
X042470Y039617D01*
X042470Y040148D01*
X043415Y040148D02*
X043415Y039627D01*
X043366Y039577D01*
X046564Y039577D02*
X046564Y040148D01*
X047194Y040148D02*
X047194Y039636D01*
X047204Y039577D01*
X048139Y039577D02*
X048139Y040148D01*
X049084Y040148D02*
X049084Y039617D01*
X049123Y039577D01*
X050009Y039577D02*
X050029Y039597D01*
X050029Y040148D01*
X050659Y040148D02*
X050659Y039617D01*
X050698Y039577D01*
X055177Y031310D02*
X055679Y031310D01*
X056348Y031310D02*
X056850Y031310D01*
X056850Y030325D02*
X056348Y030325D01*
X056348Y029341D02*
X056850Y029341D01*
X055679Y029341D02*
X055177Y029341D01*
X055177Y028357D02*
X055679Y028357D01*
X056348Y028357D02*
X056850Y028357D01*
X056850Y027373D02*
X056348Y027373D01*
X055679Y027373D02*
X055177Y027373D01*
X056348Y026388D02*
X057391Y026388D01*
X057450Y026388D01*
X058120Y026388D02*
X058621Y026388D01*
X059557Y026416D02*
X059842Y026416D01*
X059842Y026437D02*
X059842Y026377D01*
X059889Y026265D01*
X059974Y026179D01*
X060063Y026142D01*
X059974Y026106D01*
X059889Y026020D01*
X059842Y025908D01*
X059842Y025847D01*
X060147Y025847D01*
X060147Y025847D01*
X059842Y025847D01*
X059842Y025786D01*
X059889Y025674D01*
X059974Y025588D01*
X060063Y025552D01*
X059974Y025515D01*
X059889Y025429D01*
X059842Y025317D01*
X059842Y025257D01*
X060147Y025257D01*
X060147Y025561D01*
X060147Y025847D01*
X060147Y026152D01*
X060147Y026437D01*
X060147Y026437D01*
X060147Y026152D01*
X060147Y025847D01*
X060147Y025847D01*
X060147Y025847D01*
X060452Y025847D01*
X060452Y025908D01*
X060406Y026020D01*
X060320Y026106D01*
X060231Y026142D01*
X060320Y026179D01*
X060406Y026265D01*
X060452Y026377D01*
X060452Y026437D01*
X060147Y026437D01*
X059842Y026437D01*
X059842Y026438D02*
X060147Y026438D01*
X060147Y026743D01*
X060147Y027028D01*
X060147Y027028D01*
X059842Y027028D01*
X059842Y026967D01*
X059889Y026855D01*
X059974Y026770D01*
X060063Y026733D01*
X059974Y026696D01*
X059889Y026610D01*
X059842Y026498D01*
X059842Y026438D01*
X059849Y026515D02*
X059557Y026515D01*
X059557Y026614D02*
X059892Y026614D01*
X060013Y026712D02*
X059557Y026712D01*
X059557Y026811D02*
X059933Y026811D01*
X059866Y026909D02*
X059557Y026909D01*
X059557Y027008D02*
X059842Y027008D01*
X059842Y027028D02*
X060147Y027028D01*
X060147Y027028D01*
X060147Y026743D01*
X060147Y026438D01*
X060147Y026438D01*
X060147Y026437D01*
X060147Y026438D01*
X060452Y026438D01*
X060452Y026498D01*
X060406Y026610D01*
X060320Y026696D01*
X060231Y026733D01*
X060320Y026770D01*
X060406Y026855D01*
X060452Y026967D01*
X060452Y027028D01*
X060147Y027028D01*
X060147Y027028D01*
X060452Y027028D01*
X060452Y027089D01*
X060406Y027201D01*
X060320Y027287D01*
X060231Y027323D01*
X060320Y027360D01*
X060406Y027446D01*
X060452Y027558D01*
X060452Y027618D01*
X060147Y027618D01*
X060147Y027618D01*
X060147Y027333D01*
X060147Y027029D01*
X060147Y027029D01*
X060147Y027333D01*
X060147Y027618D01*
X059842Y027618D01*
X059842Y027558D01*
X059889Y027446D01*
X059974Y027360D01*
X060063Y027323D01*
X059974Y027287D01*
X059889Y027201D01*
X059842Y027089D01*
X059842Y027028D01*
X059849Y027106D02*
X059557Y027106D01*
X059557Y027205D02*
X059892Y027205D01*
X060015Y027303D02*
X059557Y027303D01*
X059557Y027402D02*
X059932Y027402D01*
X059866Y027500D02*
X059557Y027500D01*
X059557Y027599D02*
X059842Y027599D01*
X059842Y027619D02*
X060147Y027619D01*
X060147Y027924D01*
X060086Y027924D01*
X059974Y027877D01*
X059889Y027791D01*
X059842Y027679D01*
X059842Y027619D01*
X059850Y027698D02*
X059557Y027698D01*
X059557Y027796D02*
X059893Y027796D01*
X060016Y027895D02*
X059557Y027895D01*
X059557Y027963D02*
X064225Y027963D01*
X064225Y021861D01*
X060514Y021861D01*
X060514Y022725D01*
X060689Y022725D01*
X060759Y022795D01*
X060759Y023407D01*
X060751Y023414D01*
X060789Y023452D01*
X060789Y023720D01*
X060394Y023720D01*
X060394Y023820D01*
X060789Y023820D01*
X060789Y024088D01*
X060701Y024176D01*
X060394Y024176D01*
X060394Y023820D01*
X060294Y023820D01*
X060294Y023720D01*
X059899Y023720D01*
X059899Y023452D01*
X059936Y023414D01*
X059929Y023407D01*
X059929Y022795D01*
X059999Y022725D01*
X060174Y022725D01*
X060174Y021861D01*
X059557Y021861D01*
X059557Y027963D01*
X060147Y027924D02*
X060147Y027619D01*
X060147Y027619D01*
X060147Y027618D01*
X060147Y027619D01*
X060452Y027619D01*
X060452Y027679D01*
X060406Y027791D01*
X060320Y027877D01*
X060208Y027924D01*
X060147Y027924D01*
X060147Y027895D02*
X060147Y027895D01*
X060147Y027796D02*
X060147Y027796D01*
X060147Y027698D02*
X060147Y027698D01*
X060147Y027599D02*
X060147Y027599D01*
X060147Y027500D02*
X060147Y027500D01*
X060147Y027402D02*
X060147Y027402D01*
X060147Y027303D02*
X060147Y027303D01*
X060147Y027205D02*
X060147Y027205D01*
X060147Y027106D02*
X060147Y027106D01*
X060147Y027008D02*
X060147Y027008D01*
X060147Y026909D02*
X060147Y026909D01*
X060147Y026811D02*
X060147Y026811D01*
X060147Y026712D02*
X060147Y026712D01*
X060147Y026614D02*
X060147Y026614D01*
X060147Y026515D02*
X060147Y026515D01*
X060147Y026416D02*
X060147Y026416D01*
X060147Y026318D02*
X060147Y026318D01*
X060147Y026219D02*
X060147Y026219D01*
X060147Y026121D02*
X060147Y026121D01*
X060147Y026022D02*
X060147Y026022D01*
X060147Y025924D02*
X060147Y025924D01*
X060147Y025847D02*
X060147Y025847D01*
X060147Y025561D01*
X060147Y025257D01*
X060147Y025257D01*
X060147Y025256D01*
X060147Y025256D01*
X060147Y024951D01*
X060086Y024951D01*
X059974Y024998D01*
X059889Y025084D01*
X059842Y025196D01*
X059842Y025256D01*
X060147Y025256D01*
X060147Y024951D01*
X060208Y024951D01*
X060320Y024998D01*
X060406Y025084D01*
X060452Y025196D01*
X060452Y025256D01*
X060147Y025256D01*
X060147Y025257D01*
X060452Y025257D01*
X060452Y025317D01*
X060406Y025429D01*
X060320Y025515D01*
X060231Y025552D01*
X060320Y025588D01*
X060406Y025674D01*
X060452Y025786D01*
X060452Y025847D01*
X060147Y025847D01*
X060147Y025825D02*
X060147Y025825D01*
X060147Y025727D02*
X060147Y025727D01*
X060147Y025628D02*
X060147Y025628D01*
X060147Y025530D02*
X060147Y025530D01*
X060147Y025431D02*
X060147Y025431D01*
X060147Y025332D02*
X060147Y025332D01*
X060147Y025234D02*
X060147Y025234D01*
X060147Y025135D02*
X060147Y025135D01*
X060147Y025037D02*
X060147Y025037D01*
X059935Y025037D02*
X059557Y025037D01*
X059557Y025135D02*
X059867Y025135D01*
X059842Y025234D02*
X059557Y025234D01*
X059557Y025332D02*
X059848Y025332D01*
X059890Y025431D02*
X059557Y025431D01*
X059557Y025530D02*
X060009Y025530D01*
X059935Y025628D02*
X059557Y025628D01*
X059557Y025727D02*
X059867Y025727D01*
X059842Y025825D02*
X059557Y025825D01*
X059557Y025924D02*
X059849Y025924D01*
X059891Y026022D02*
X059557Y026022D01*
X059557Y026121D02*
X060011Y026121D01*
X059934Y026219D02*
X059557Y026219D01*
X059557Y026318D02*
X059866Y026318D01*
X060283Y026121D02*
X064225Y026121D01*
X064225Y026219D02*
X060360Y026219D01*
X060428Y026318D02*
X064225Y026318D01*
X064225Y026416D02*
X060452Y026416D01*
X060445Y026515D02*
X064225Y026515D01*
X064225Y026614D02*
X060402Y026614D01*
X060281Y026712D02*
X064225Y026712D01*
X064225Y026811D02*
X060361Y026811D01*
X060428Y026909D02*
X062294Y026909D01*
X062212Y026943D02*
X062405Y026863D01*
X062479Y026863D01*
X062479Y027358D01*
X062539Y027358D01*
X062539Y026863D01*
X062614Y026863D01*
X062807Y026943D01*
X062954Y027091D01*
X063034Y027284D01*
X063034Y027358D01*
X062540Y027358D01*
X062540Y027418D01*
X063034Y027418D01*
X063034Y027493D01*
X062954Y027686D01*
X062807Y027833D01*
X062614Y027913D01*
X062539Y027913D01*
X062539Y027419D01*
X062479Y027419D01*
X062479Y027913D01*
X062405Y027913D01*
X062212Y027833D01*
X062064Y027686D01*
X061984Y027493D01*
X061984Y027418D01*
X062479Y027418D01*
X062479Y027358D01*
X061984Y027358D01*
X061984Y027284D01*
X062064Y027091D01*
X062212Y026943D01*
X062147Y027008D02*
X060452Y027008D01*
X060445Y027106D02*
X062058Y027106D01*
X062017Y027205D02*
X060402Y027205D01*
X060280Y027303D02*
X061984Y027303D01*
X061987Y027500D02*
X060428Y027500D01*
X060452Y027599D02*
X062028Y027599D01*
X062076Y027698D02*
X060445Y027698D01*
X060401Y027796D02*
X062175Y027796D01*
X062360Y027895D02*
X060278Y027895D01*
X060362Y027402D02*
X062479Y027402D01*
X062540Y027402D02*
X064225Y027402D01*
X064225Y027500D02*
X063031Y027500D01*
X062990Y027599D02*
X064225Y027599D01*
X064225Y027698D02*
X062943Y027698D01*
X062844Y027796D02*
X064225Y027796D01*
X064225Y027895D02*
X062659Y027895D01*
X062539Y027895D02*
X062479Y027895D01*
X062479Y027796D02*
X062539Y027796D01*
X062539Y027698D02*
X062479Y027698D01*
X062479Y027599D02*
X062539Y027599D01*
X062539Y027500D02*
X062479Y027500D01*
X062479Y027303D02*
X062539Y027303D01*
X062539Y027205D02*
X062479Y027205D01*
X062479Y027106D02*
X062539Y027106D01*
X062539Y027008D02*
X062479Y027008D01*
X062479Y026909D02*
X062539Y026909D01*
X062724Y026909D02*
X064225Y026909D01*
X064225Y027008D02*
X062871Y027008D01*
X062961Y027106D02*
X064225Y027106D01*
X064225Y027205D02*
X063001Y027205D01*
X063034Y027303D02*
X064225Y027303D01*
X064225Y026022D02*
X060403Y026022D01*
X060445Y025924D02*
X064225Y025924D01*
X064225Y025825D02*
X062772Y025825D01*
X062714Y025883D02*
X062304Y025883D01*
X062014Y025593D01*
X062014Y025183D01*
X062304Y024893D01*
X062714Y024893D01*
X063004Y025183D01*
X063004Y025593D01*
X062714Y025883D01*
X062871Y025727D02*
X064225Y025727D01*
X064225Y025628D02*
X062969Y025628D01*
X063004Y025530D02*
X064225Y025530D01*
X064225Y025431D02*
X063004Y025431D01*
X063004Y025332D02*
X064225Y025332D01*
X064225Y025234D02*
X063004Y025234D01*
X062956Y025135D02*
X064225Y025135D01*
X064225Y025037D02*
X062858Y025037D01*
X062759Y024938D02*
X064225Y024938D01*
X064225Y024840D02*
X059557Y024840D01*
X059557Y024938D02*
X062259Y024938D01*
X062161Y025037D02*
X060359Y025037D01*
X060427Y025135D02*
X062062Y025135D01*
X062014Y025234D02*
X060452Y025234D01*
X060446Y025332D02*
X062014Y025332D01*
X062014Y025431D02*
X060404Y025431D01*
X060285Y025530D02*
X062014Y025530D01*
X062049Y025628D02*
X060360Y025628D01*
X060427Y025727D02*
X062148Y025727D01*
X062246Y025825D02*
X060452Y025825D01*
X061333Y024775D02*
X061245Y024687D01*
X061245Y023454D01*
X062487Y023454D01*
X062487Y024775D01*
X061333Y024775D01*
X061300Y024741D02*
X059557Y024741D01*
X059557Y024643D02*
X061245Y024643D01*
X061245Y024544D02*
X059557Y024544D01*
X059557Y024446D02*
X061245Y024446D01*
X061245Y024347D02*
X059557Y024347D01*
X059557Y024249D02*
X061245Y024249D01*
X061245Y024150D02*
X060727Y024150D01*
X060789Y024051D02*
X061245Y024051D01*
X061245Y023953D02*
X060789Y023953D01*
X060789Y023854D02*
X061245Y023854D01*
X061245Y023756D02*
X060394Y023756D01*
X060394Y023854D02*
X060294Y023854D01*
X060294Y023820D02*
X060294Y024176D01*
X059986Y024176D01*
X059899Y024088D01*
X059899Y023820D01*
X060294Y023820D01*
X060294Y023756D02*
X059557Y023756D01*
X059557Y023854D02*
X059899Y023854D01*
X059899Y023953D02*
X059557Y023953D01*
X059557Y024051D02*
X059899Y024051D01*
X059960Y024150D02*
X059557Y024150D01*
X059557Y023657D02*
X059899Y023657D01*
X059899Y023559D02*
X059557Y023559D01*
X059557Y023460D02*
X059899Y023460D01*
X059929Y023362D02*
X059557Y023362D01*
X059557Y023263D02*
X059929Y023263D01*
X059929Y023165D02*
X059557Y023165D01*
X059557Y023066D02*
X059929Y023066D01*
X059929Y022967D02*
X059557Y022967D01*
X059557Y022869D02*
X059929Y022869D01*
X059954Y022770D02*
X059557Y022770D01*
X059557Y022672D02*
X060174Y022672D01*
X060174Y022573D02*
X059557Y022573D01*
X059557Y022475D02*
X060174Y022475D01*
X060174Y022376D02*
X059557Y022376D01*
X059557Y022278D02*
X060174Y022278D01*
X060174Y022179D02*
X059557Y022179D01*
X059557Y022081D02*
X060174Y022081D01*
X060174Y021982D02*
X059557Y021982D01*
X059557Y021883D02*
X060174Y021883D01*
X060514Y021883D02*
X064225Y021883D01*
X064225Y021982D02*
X060514Y021982D01*
X060514Y022081D02*
X061286Y022081D01*
X061245Y022121D02*
X061333Y022034D01*
X062487Y022034D01*
X062487Y023354D01*
X062587Y023354D01*
X062587Y023454D01*
X063829Y023454D01*
X063829Y024687D01*
X063741Y024775D01*
X062587Y024775D01*
X062587Y023454D01*
X062487Y023454D01*
X062487Y023354D01*
X061245Y023354D01*
X061245Y022121D01*
X061245Y022179D02*
X060514Y022179D01*
X060514Y022278D02*
X061245Y022278D01*
X061245Y022376D02*
X060514Y022376D01*
X060514Y022475D02*
X061245Y022475D01*
X061245Y022573D02*
X060514Y022573D01*
X060514Y022672D02*
X061245Y022672D01*
X061245Y022770D02*
X060734Y022770D01*
X060759Y022869D02*
X061245Y022869D01*
X061245Y022967D02*
X060759Y022967D01*
X060759Y023066D02*
X061245Y023066D01*
X061245Y023165D02*
X060759Y023165D01*
X060759Y023263D02*
X061245Y023263D01*
X061245Y023460D02*
X060789Y023460D01*
X060789Y023559D02*
X061245Y023559D01*
X061245Y023657D02*
X060789Y023657D01*
X060759Y023362D02*
X062487Y023362D01*
X062487Y023460D02*
X062587Y023460D01*
X062587Y023362D02*
X064225Y023362D01*
X064225Y023460D02*
X063829Y023460D01*
X063829Y023559D02*
X064225Y023559D01*
X064225Y023657D02*
X063829Y023657D01*
X063829Y023756D02*
X064225Y023756D01*
X064225Y023854D02*
X063829Y023854D01*
X063829Y023953D02*
X064225Y023953D01*
X064225Y024051D02*
X063829Y024051D01*
X063829Y024150D02*
X064225Y024150D01*
X064225Y024249D02*
X063829Y024249D01*
X063829Y024347D02*
X064225Y024347D01*
X064225Y024446D02*
X063829Y024446D01*
X063829Y024544D02*
X064225Y024544D01*
X064225Y024643D02*
X063829Y024643D01*
X063774Y024741D02*
X064225Y024741D01*
X062587Y024741D02*
X062487Y024741D01*
X062487Y024643D02*
X062587Y024643D01*
X062587Y024544D02*
X062487Y024544D01*
X062487Y024446D02*
X062587Y024446D01*
X062587Y024347D02*
X062487Y024347D01*
X062487Y024249D02*
X062587Y024249D01*
X062587Y024150D02*
X062487Y024150D01*
X062487Y024051D02*
X062587Y024051D01*
X062587Y023953D02*
X062487Y023953D01*
X062487Y023854D02*
X062587Y023854D01*
X062587Y023756D02*
X062487Y023756D01*
X062487Y023657D02*
X062587Y023657D01*
X062587Y023559D02*
X062487Y023559D01*
X062587Y023354D02*
X063829Y023354D01*
X063829Y022121D01*
X063741Y022034D01*
X062587Y022034D01*
X062587Y023354D01*
X062587Y023263D02*
X062487Y023263D01*
X062487Y023165D02*
X062587Y023165D01*
X062587Y023066D02*
X062487Y023066D01*
X062487Y022967D02*
X062587Y022967D01*
X062587Y022869D02*
X062487Y022869D01*
X062487Y022770D02*
X062587Y022770D01*
X062587Y022672D02*
X062487Y022672D01*
X062487Y022573D02*
X062587Y022573D01*
X062587Y022475D02*
X062487Y022475D01*
X062487Y022376D02*
X062587Y022376D01*
X062587Y022278D02*
X062487Y022278D01*
X062487Y022179D02*
X062587Y022179D01*
X062587Y022081D02*
X062487Y022081D01*
X061639Y021254D02*
X061525Y021369D01*
X061476Y021418D01*
X061082Y021418D01*
X060885Y021418D01*
X060875Y021408D01*
X060344Y021408D01*
X060344Y021418D01*
X060344Y023101D01*
X060294Y023953D02*
X060394Y023953D01*
X060394Y024051D02*
X060294Y024051D01*
X060294Y024150D02*
X060394Y024150D01*
X063829Y023263D02*
X064225Y023263D01*
X064225Y023165D02*
X063829Y023165D01*
X063829Y023066D02*
X064225Y023066D01*
X064225Y022967D02*
X063829Y022967D01*
X063829Y022869D02*
X064225Y022869D01*
X064225Y022770D02*
X063829Y022770D01*
X063829Y022672D02*
X064225Y022672D01*
X064225Y022573D02*
X063829Y022573D01*
X063829Y022475D02*
X064225Y022475D01*
X064225Y022376D02*
X063829Y022376D01*
X063829Y022278D02*
X064225Y022278D01*
X064225Y022179D02*
X063829Y022179D01*
X063788Y022081D02*
X064225Y022081D01*
X061639Y021254D02*
X061639Y020577D01*
X060344Y020739D02*
X060344Y020237D01*
X056850Y023436D02*
X056348Y023436D01*
X055679Y023436D02*
X055177Y023436D01*
X055177Y024420D02*
X055679Y024420D01*
X056348Y024420D02*
X056850Y024420D01*
X056850Y025404D02*
X056348Y025404D01*
X055679Y025404D02*
X055177Y025404D01*
X046564Y018957D02*
X046564Y018455D01*
X046564Y017786D02*
X046564Y017284D01*
X045383Y017284D02*
X045383Y017786D01*
X045383Y018455D02*
X045383Y018957D01*
X047746Y017786D02*
X047746Y017284D01*
X048927Y017284D02*
X048927Y017786D01*
X050108Y017786D02*
X050108Y017284D01*
X052167Y016420D02*
X052891Y016420D01*
X052913Y016398D01*
X052167Y013940D02*
X051139Y013940D01*
X050895Y014184D01*
X050501Y014184D01*
X050442Y014184D01*
X049773Y014184D02*
X049271Y014184D01*
X049271Y013003D02*
X049773Y013003D01*
X050403Y013003D02*
X050895Y013003D01*
X050942Y012955D01*
X052167Y012955D01*
X052167Y011971D02*
X052862Y011971D01*
X052913Y011969D01*
X052167Y010987D02*
X051426Y010987D01*
X050942Y010987D01*
X050895Y011034D01*
X050501Y011034D01*
X050442Y011034D01*
X049773Y011034D02*
X049271Y011034D01*
X049271Y009853D02*
X049773Y009853D01*
X050442Y009853D02*
X050501Y009853D01*
X050895Y009853D01*
X051045Y010003D01*
X052167Y010003D01*
X052167Y009018D02*
X052960Y009018D01*
X052913Y009016D01*
X050442Y013003D02*
X050403Y013003D01*
X041545Y013140D02*
X041545Y012658D01*
X034389Y012337D02*
X033793Y012337D01*
X033720Y012314D01*
X033513Y013199D02*
X034015Y013199D01*
X034015Y014085D01*
X033917Y014184D01*
X033513Y014184D01*
X032844Y014184D02*
X032834Y014184D01*
X032342Y014184D01*
X032322Y014204D01*
X032179Y014347D01*
X032179Y015365D01*
X029143Y016447D02*
X028651Y016447D01*
X027568Y017136D02*
X027568Y017629D01*
X026584Y017629D02*
X026584Y017136D01*
X025108Y016054D02*
X024616Y016054D01*
X024616Y015266D02*
X025108Y015266D01*
X026289Y013691D02*
X026289Y013544D01*
X026387Y013445D01*
X026387Y013101D01*
X026584Y013101D02*
X026584Y013445D01*
X026633Y013495D01*
X026683Y013544D01*
X026683Y013691D01*
X028651Y014282D02*
X029143Y014282D01*
X032342Y013199D02*
X032844Y013199D01*
X032637Y009361D02*
X032614Y009337D01*
X031969Y009337D01*
X026683Y009321D02*
X026683Y008819D01*
X025698Y008819D02*
X025698Y009321D01*
X025698Y009991D02*
X025698Y010493D01*
X026683Y010493D02*
X026683Y009991D01*
X020974Y009991D02*
X020974Y010493D01*
X019626Y013593D02*
X016332Y013593D01*
X016331Y013595D01*
X016186Y013595D01*
X016186Y013633D01*
X016187Y013634D01*
X016229Y013735D01*
X016229Y013845D01*
X016187Y013946D01*
X016110Y014023D01*
X016009Y014065D01*
X015899Y014065D01*
X015798Y014023D01*
X015721Y013946D01*
X015679Y013845D01*
X015679Y013735D01*
X015721Y013634D01*
X015746Y013609D01*
X015746Y013595D01*
X015601Y013595D01*
X015599Y013593D01*
X014537Y013593D01*
X014535Y013595D01*
X014341Y013595D01*
X014341Y013731D01*
X014341Y013872D01*
X014156Y014057D01*
X014056Y014157D01*
X013170Y014157D01*
X013073Y014254D01*
X013073Y015048D01*
X013248Y015048D01*
X013318Y015118D01*
X013318Y015729D01*
X013310Y015737D01*
X013348Y015775D01*
X013348Y016043D01*
X012953Y016043D01*
X012953Y016143D01*
X013348Y016143D01*
X013348Y016411D01*
X013260Y016499D01*
X012953Y016499D01*
X012953Y016143D01*
X012853Y016143D01*
X012853Y016043D01*
X012458Y016043D01*
X012458Y015775D01*
X012496Y015737D01*
X012488Y015729D01*
X012488Y015118D01*
X012558Y015048D01*
X012733Y015048D01*
X012733Y014254D01*
X012733Y014113D01*
X012859Y013987D01*
X012833Y013960D01*
X012733Y013860D01*
X012733Y013713D01*
X012558Y013713D01*
X012488Y013643D01*
X012488Y013593D01*
X012312Y013593D01*
X012312Y018514D01*
X019556Y018514D01*
X019626Y018444D01*
X019626Y013593D01*
X019626Y013606D02*
X016186Y013606D01*
X016216Y013704D02*
X016922Y013704D01*
X016976Y013682D02*
X017037Y013682D01*
X017098Y013682D01*
X017210Y013728D01*
X017295Y013814D01*
X017342Y013926D01*
X017342Y013987D01*
X017342Y014047D01*
X017295Y014160D01*
X017210Y014245D01*
X017098Y014292D01*
X017037Y014292D01*
X017037Y013987D01*
X017037Y013987D01*
X017342Y013987D01*
X017037Y013987D01*
X017037Y013987D01*
X017037Y014292D01*
X016976Y014292D01*
X016864Y014245D01*
X016778Y014160D01*
X016732Y014047D01*
X016732Y013987D01*
X017036Y013987D01*
X017036Y013987D01*
X016732Y013987D01*
X016732Y013926D01*
X016778Y013814D01*
X016864Y013728D01*
X016976Y013682D01*
X017037Y013682D02*
X017037Y013986D01*
X017037Y013682D01*
X017037Y013704D02*
X017037Y013704D01*
X017037Y013803D02*
X017037Y013803D01*
X017037Y013901D02*
X017037Y013901D01*
X017037Y013986D02*
X017037Y013986D01*
X017037Y014000D02*
X017037Y014000D01*
X017037Y014099D02*
X017037Y014099D01*
X017037Y014197D02*
X017037Y014197D01*
X017258Y014197D02*
X017882Y014197D01*
X017784Y014296D02*
X013073Y014296D01*
X013073Y014394D02*
X013811Y014394D01*
X013777Y014429D02*
X013864Y014341D01*
X015018Y014341D01*
X015018Y015661D01*
X013777Y015661D01*
X013777Y014429D01*
X013777Y014493D02*
X013073Y014493D01*
X013073Y014591D02*
X013777Y014591D01*
X013777Y014690D02*
X013073Y014690D01*
X013073Y014788D02*
X013777Y014788D01*
X013777Y014887D02*
X013073Y014887D01*
X013073Y014985D02*
X013777Y014985D01*
X013777Y015084D02*
X013284Y015084D01*
X013318Y015183D02*
X013777Y015183D01*
X013777Y015281D02*
X013318Y015281D01*
X013318Y015380D02*
X013777Y015380D01*
X013777Y015478D02*
X013318Y015478D01*
X013318Y015577D02*
X013777Y015577D01*
X013777Y015761D02*
X015018Y015761D01*
X015018Y015661D01*
X015118Y015661D01*
X015118Y014341D01*
X016272Y014341D01*
X016360Y014429D01*
X016360Y015661D01*
X015118Y015661D01*
X015118Y015761D01*
X015018Y015761D01*
X015018Y017082D01*
X013864Y017082D01*
X013777Y016994D01*
X013777Y015761D01*
X013777Y015774D02*
X013347Y015774D01*
X013348Y015872D02*
X013777Y015872D01*
X013777Y015971D02*
X013348Y015971D01*
X013348Y016168D02*
X013777Y016168D01*
X013777Y016266D02*
X013348Y016266D01*
X013348Y016365D02*
X013777Y016365D01*
X013777Y016464D02*
X013296Y016464D01*
X012953Y016464D02*
X012853Y016464D01*
X012853Y016499D02*
X012546Y016499D01*
X012458Y016411D01*
X012458Y016143D01*
X012853Y016143D01*
X012853Y016499D01*
X012853Y016365D02*
X012953Y016365D01*
X012953Y016266D02*
X012853Y016266D01*
X012853Y016168D02*
X012953Y016168D01*
X012953Y016069D02*
X013777Y016069D01*
X013777Y016562D02*
X012312Y016562D01*
X012312Y016464D02*
X012510Y016464D01*
X012458Y016365D02*
X012312Y016365D01*
X012312Y016266D02*
X012458Y016266D01*
X012458Y016168D02*
X012312Y016168D01*
X012312Y016069D02*
X012853Y016069D01*
X012458Y015971D02*
X012312Y015971D01*
X012312Y015872D02*
X012458Y015872D01*
X012459Y015774D02*
X012312Y015774D01*
X012312Y015675D02*
X012488Y015675D01*
X012488Y015577D02*
X012312Y015577D01*
X012312Y015478D02*
X012488Y015478D01*
X012488Y015380D02*
X012312Y015380D01*
X012312Y015281D02*
X012488Y015281D01*
X012488Y015183D02*
X012312Y015183D01*
X012312Y015084D02*
X012522Y015084D01*
X012312Y014985D02*
X012733Y014985D01*
X012733Y014887D02*
X012312Y014887D01*
X012312Y014788D02*
X012733Y014788D01*
X012733Y014690D02*
X012312Y014690D01*
X012312Y014591D02*
X012733Y014591D01*
X012733Y014493D02*
X012312Y014493D01*
X012312Y014394D02*
X012733Y014394D01*
X012733Y014296D02*
X012312Y014296D01*
X012312Y014197D02*
X012733Y014197D01*
X012748Y014099D02*
X012312Y014099D01*
X012312Y014000D02*
X012846Y014000D01*
X012774Y013901D02*
X012312Y013901D01*
X012312Y013803D02*
X012733Y013803D01*
X012903Y013790D02*
X012903Y013396D01*
X012903Y013337D01*
X012903Y013790D02*
X013100Y013987D01*
X012903Y014184D01*
X012903Y015424D01*
X013318Y015675D02*
X015018Y015675D01*
X015018Y015577D02*
X015118Y015577D01*
X015118Y015675D02*
X016754Y015675D01*
X016732Y015622D02*
X016732Y015562D01*
X017036Y015562D01*
X017036Y015561D01*
X016732Y015561D01*
X016732Y015501D01*
X016778Y015389D01*
X016864Y015303D01*
X016976Y015257D01*
X017037Y015257D01*
X017098Y015257D01*
X017210Y015303D01*
X017295Y015389D01*
X017342Y015501D01*
X017342Y015561D01*
X017037Y015561D01*
X017037Y015257D01*
X017037Y015561D01*
X017037Y015561D01*
X017037Y015562D01*
X017037Y015562D01*
X017037Y015867D01*
X017098Y015867D01*
X017210Y015820D01*
X017295Y015734D01*
X017342Y015622D01*
X017342Y015562D01*
X017037Y015562D01*
X017037Y015867D01*
X016976Y015867D01*
X016864Y015820D01*
X016778Y015734D01*
X016732Y015622D01*
X016732Y015577D02*
X016360Y015577D01*
X016360Y015478D02*
X016741Y015478D01*
X016787Y015380D02*
X016360Y015380D01*
X016360Y015281D02*
X016917Y015281D01*
X017037Y015281D02*
X017037Y015281D01*
X017037Y015380D02*
X017037Y015380D01*
X017037Y015478D02*
X017037Y015478D01*
X017037Y015577D02*
X017037Y015577D01*
X017037Y015675D02*
X017037Y015675D01*
X017037Y015774D02*
X017037Y015774D01*
X017256Y015774D02*
X019626Y015774D01*
X019626Y015872D02*
X016360Y015872D01*
X016360Y015774D02*
X016818Y015774D01*
X016915Y016069D02*
X016360Y016069D01*
X016360Y015971D02*
X019626Y015971D01*
X019626Y016069D02*
X018402Y016069D01*
X018322Y016037D02*
X018515Y016116D01*
X018663Y016264D01*
X018743Y016457D01*
X018743Y016531D01*
X018248Y016531D01*
X018248Y016037D01*
X018322Y016037D01*
X018248Y016069D02*
X018188Y016069D01*
X018188Y016037D02*
X018188Y016531D01*
X018248Y016531D01*
X018248Y016592D01*
X018188Y016592D01*
X018188Y017087D01*
X018114Y017087D01*
X017921Y017007D01*
X017773Y016859D01*
X017693Y016666D01*
X017693Y016592D01*
X018188Y016592D01*
X018188Y016531D01*
X017693Y016531D01*
X017693Y016457D01*
X017773Y016264D01*
X017921Y016116D01*
X018114Y016037D01*
X018188Y016037D01*
X018188Y016168D02*
X018248Y016168D01*
X018248Y016266D02*
X018188Y016266D01*
X018188Y016365D02*
X018248Y016365D01*
X018248Y016464D02*
X018188Y016464D01*
X018188Y016562D02*
X017255Y016562D01*
X017295Y016522D02*
X017210Y016608D01*
X017098Y016654D01*
X017037Y016654D01*
X017037Y016349D01*
X017342Y016349D01*
X017342Y016410D01*
X017295Y016522D01*
X017319Y016464D02*
X017693Y016464D01*
X017731Y016365D02*
X017342Y016365D01*
X017342Y016349D02*
X017037Y016349D01*
X017037Y016349D01*
X017037Y016349D01*
X017037Y016044D01*
X017098Y016044D01*
X017210Y016090D01*
X017295Y016176D01*
X017342Y016288D01*
X017342Y016349D01*
X017333Y016266D02*
X017772Y016266D01*
X017869Y016168D02*
X017287Y016168D01*
X017159Y016069D02*
X018034Y016069D01*
X018248Y016562D02*
X019626Y016562D01*
X019626Y016464D02*
X018743Y016464D01*
X018705Y016365D02*
X019626Y016365D01*
X019626Y016266D02*
X018664Y016266D01*
X018567Y016168D02*
X019626Y016168D01*
X019626Y016661D02*
X018743Y016661D01*
X018743Y016666D02*
X018663Y016859D01*
X018515Y017007D01*
X018322Y017087D01*
X018248Y017087D01*
X018248Y016592D01*
X018743Y016592D01*
X018743Y016666D01*
X018704Y016759D02*
X019626Y016759D01*
X019626Y016858D02*
X018664Y016858D01*
X018566Y016956D02*
X019626Y016956D01*
X019626Y017055D02*
X018399Y017055D01*
X018248Y017055D02*
X018188Y017055D01*
X018188Y016956D02*
X018248Y016956D01*
X018248Y016858D02*
X018188Y016858D01*
X018188Y016759D02*
X018248Y016759D01*
X018248Y016661D02*
X018188Y016661D01*
X018037Y017055D02*
X017333Y017055D01*
X017342Y017076D02*
X017342Y017136D01*
X017037Y017136D01*
X017037Y016831D01*
X017098Y016831D01*
X017210Y016878D01*
X017295Y016964D01*
X017342Y017076D01*
X017342Y017137D02*
X017342Y017197D01*
X017295Y017309D01*
X017210Y017395D01*
X017098Y017441D01*
X017037Y017441D01*
X017037Y017137D01*
X017037Y017137D01*
X017037Y017441D01*
X016976Y017441D01*
X016864Y017395D01*
X016778Y017309D01*
X016732Y017197D01*
X016732Y017137D01*
X017036Y017137D01*
X017036Y017136D01*
X016732Y017136D01*
X016732Y017076D01*
X016778Y016964D01*
X016864Y016878D01*
X016976Y016831D01*
X017037Y016831D01*
X017037Y017136D01*
X017037Y017136D01*
X017037Y017137D01*
X017342Y017137D01*
X017342Y017153D02*
X019626Y017153D01*
X019626Y017252D02*
X017319Y017252D01*
X017254Y017350D02*
X019626Y017350D01*
X019626Y017449D02*
X012312Y017449D01*
X012312Y017548D02*
X019626Y017548D01*
X019626Y017646D02*
X017163Y017646D01*
X017210Y017665D02*
X017098Y017619D01*
X017037Y017619D01*
X017037Y017923D01*
X017037Y017923D01*
X017037Y017619D01*
X016976Y017619D01*
X016864Y017665D01*
X016778Y017751D01*
X016732Y017863D01*
X016732Y017924D01*
X017036Y017924D01*
X017036Y017924D01*
X016732Y017924D01*
X016732Y017984D01*
X016778Y018097D01*
X016864Y018182D01*
X016976Y018229D01*
X017037Y018229D01*
X017037Y017924D01*
X017037Y017924D01*
X017342Y017924D01*
X017342Y017984D01*
X017295Y018097D01*
X017210Y018182D01*
X017098Y018229D01*
X017037Y018229D01*
X017037Y017924D01*
X017037Y017924D01*
X017342Y017924D01*
X017342Y017863D01*
X017295Y017751D01*
X017210Y017665D01*
X017289Y017745D02*
X019626Y017745D01*
X019626Y017843D02*
X017334Y017843D01*
X017342Y017942D02*
X019626Y017942D01*
X019626Y018040D02*
X017319Y018040D01*
X017253Y018139D02*
X019626Y018139D01*
X019626Y018237D02*
X012312Y018237D01*
X012312Y018139D02*
X016821Y018139D01*
X016755Y018040D02*
X012312Y018040D01*
X012312Y017942D02*
X016732Y017942D01*
X016740Y017843D02*
X012312Y017843D01*
X012312Y017745D02*
X016785Y017745D01*
X016910Y017646D02*
X012312Y017646D01*
X012312Y017350D02*
X016820Y017350D01*
X016755Y017252D02*
X012312Y017252D01*
X012312Y017153D02*
X016732Y017153D01*
X016740Y017055D02*
X016299Y017055D01*
X016272Y017082D02*
X015118Y017082D01*
X015118Y015761D01*
X016360Y015761D01*
X016360Y016994D01*
X016272Y017082D01*
X016360Y016956D02*
X016786Y016956D01*
X016912Y016858D02*
X016360Y016858D01*
X016360Y016759D02*
X017732Y016759D01*
X017693Y016661D02*
X016360Y016661D01*
X016360Y016562D02*
X016819Y016562D01*
X016778Y016522D02*
X016732Y016410D01*
X016732Y016349D01*
X017036Y016349D01*
X017036Y016349D01*
X016732Y016349D01*
X016732Y016288D01*
X016778Y016176D01*
X016864Y016090D01*
X016976Y016044D01*
X017037Y016044D01*
X017037Y016349D01*
X017037Y016349D01*
X017037Y016654D01*
X016976Y016654D01*
X016864Y016608D01*
X016778Y016522D01*
X016754Y016464D02*
X016360Y016464D01*
X016360Y016365D02*
X016732Y016365D01*
X016741Y016266D02*
X016360Y016266D01*
X016360Y016168D02*
X016786Y016168D01*
X017037Y016168D02*
X017037Y016168D01*
X017037Y016266D02*
X017037Y016266D01*
X017037Y016365D02*
X017037Y016365D01*
X017037Y016464D02*
X017037Y016464D01*
X017037Y016562D02*
X017037Y016562D01*
X017037Y016858D02*
X017037Y016858D01*
X017037Y016956D02*
X017037Y016956D01*
X017037Y017055D02*
X017037Y017055D01*
X017037Y017153D02*
X017037Y017153D01*
X017037Y017252D02*
X017037Y017252D01*
X017037Y017350D02*
X017037Y017350D01*
X017037Y017646D02*
X017037Y017646D01*
X017037Y017745D02*
X017037Y017745D01*
X017037Y017843D02*
X017037Y017843D01*
X017037Y017942D02*
X017037Y017942D01*
X017037Y018040D02*
X017037Y018040D01*
X017037Y018139D02*
X017037Y018139D01*
X017288Y016956D02*
X017870Y016956D01*
X017772Y016858D02*
X017161Y016858D01*
X017037Y016069D02*
X017037Y016069D01*
X017320Y015675D02*
X019626Y015675D01*
X019626Y015577D02*
X017342Y015577D01*
X017332Y015478D02*
X019626Y015478D01*
X019626Y015380D02*
X017286Y015380D01*
X017157Y015281D02*
X019626Y015281D01*
X019626Y015183D02*
X016360Y015183D01*
X016360Y015084D02*
X019626Y015084D01*
X019626Y014985D02*
X018494Y014985D01*
X018423Y015057D02*
X018013Y015057D01*
X017723Y014767D01*
X017723Y014357D01*
X018013Y014067D01*
X018423Y014067D01*
X018713Y014357D01*
X018713Y014767D01*
X018423Y015057D01*
X018593Y014887D02*
X019626Y014887D01*
X019626Y014788D02*
X018691Y014788D01*
X018713Y014690D02*
X019626Y014690D01*
X019626Y014591D02*
X018713Y014591D01*
X018713Y014493D02*
X019626Y014493D01*
X019626Y014394D02*
X018713Y014394D01*
X018652Y014296D02*
X019626Y014296D01*
X019626Y014197D02*
X018553Y014197D01*
X018455Y014099D02*
X019626Y014099D01*
X019626Y014000D02*
X017342Y014000D01*
X017332Y013901D02*
X019626Y013901D01*
X019626Y013803D02*
X017284Y013803D01*
X017152Y013704D02*
X019626Y013704D01*
X020974Y014676D02*
X020974Y015227D01*
X020974Y015896D02*
X020974Y016398D01*
X019626Y018336D02*
X012312Y018336D01*
X012312Y018434D02*
X019626Y018434D01*
X020974Y020630D02*
X020974Y021132D01*
X020974Y021802D02*
X020974Y022304D01*
X021072Y024382D02*
X021072Y024814D01*
X020974Y024912D01*
X020974Y025010D01*
X021269Y024814D02*
X021368Y024912D01*
X021368Y025010D01*
X021269Y024814D02*
X021269Y024382D01*
X020088Y024382D02*
X020088Y024715D01*
X020088Y024814D01*
X020186Y024912D01*
X020186Y025010D01*
X019891Y024814D02*
X019891Y024382D01*
X019891Y024814D02*
X019793Y024912D01*
X019793Y025010D01*
X019005Y026585D02*
X018907Y026585D01*
X018809Y026684D01*
X018377Y026684D01*
X018377Y026880D02*
X018809Y026880D01*
X018907Y026979D01*
X019005Y026979D01*
X020777Y028947D02*
X020777Y029046D01*
X020875Y029144D01*
X020875Y029575D01*
X021072Y029575D02*
X021072Y029144D01*
X021171Y029046D01*
X021171Y028947D01*
X023041Y027077D02*
X023570Y027077D01*
X023570Y026487D02*
X023041Y026487D01*
X026240Y026782D02*
X026742Y026782D01*
X027411Y026782D02*
X027913Y026782D01*
X026879Y022304D02*
X026879Y021802D01*
X026879Y021132D02*
X026879Y020630D01*
X017942Y014985D02*
X017257Y014985D01*
X017295Y014947D02*
X017210Y015033D01*
X017098Y015079D01*
X017037Y015079D01*
X017037Y014775D01*
X017037Y014775D01*
X017037Y015079D01*
X016976Y015079D01*
X016864Y015033D01*
X016778Y014947D01*
X016732Y014835D01*
X016732Y014774D01*
X016732Y014713D01*
X016778Y014601D01*
X016864Y014516D01*
X016976Y014469D01*
X017037Y014469D01*
X017098Y014469D01*
X017210Y014516D01*
X017295Y014601D01*
X017342Y014713D01*
X017342Y014774D01*
X017037Y014774D01*
X017037Y014774D01*
X017037Y014469D01*
X017037Y014774D01*
X017037Y014774D01*
X017342Y014774D01*
X017342Y014835D01*
X017295Y014947D01*
X017320Y014887D02*
X017843Y014887D01*
X017745Y014788D02*
X017342Y014788D01*
X017332Y014690D02*
X017723Y014690D01*
X017723Y014591D02*
X017285Y014591D01*
X017154Y014493D02*
X017723Y014493D01*
X017723Y014394D02*
X016326Y014394D01*
X016360Y014493D02*
X016919Y014493D01*
X017037Y014493D02*
X017037Y014493D01*
X017037Y014591D02*
X017037Y014591D01*
X017037Y014690D02*
X017037Y014690D01*
X017036Y014774D02*
X016732Y014774D01*
X017036Y014774D01*
X017036Y014774D01*
X017037Y014788D02*
X017037Y014788D01*
X017037Y014887D02*
X017037Y014887D01*
X017037Y014985D02*
X017037Y014985D01*
X016817Y014985D02*
X016360Y014985D01*
X016360Y014887D02*
X016753Y014887D01*
X016732Y014788D02*
X016360Y014788D01*
X016360Y014690D02*
X016742Y014690D01*
X016788Y014591D02*
X016360Y014591D01*
X016816Y014197D02*
X013130Y014197D01*
X013100Y013987D02*
X013986Y013987D01*
X014171Y013802D01*
X014171Y012884D01*
X014341Y013606D02*
X015746Y013606D01*
X015692Y013704D02*
X014341Y013704D01*
X014341Y013803D02*
X015679Y013803D01*
X015703Y013901D02*
X014311Y013901D01*
X014213Y014000D02*
X015775Y014000D01*
X016133Y014000D02*
X016732Y014000D01*
X016742Y013901D02*
X016206Y013901D01*
X016229Y013803D02*
X016789Y013803D01*
X016753Y014099D02*
X014114Y014099D01*
X015018Y014394D02*
X015118Y014394D01*
X015118Y014493D02*
X015018Y014493D01*
X015018Y014591D02*
X015118Y014591D01*
X015118Y014690D02*
X015018Y014690D01*
X015018Y014788D02*
X015118Y014788D01*
X015118Y014887D02*
X015018Y014887D01*
X015018Y014985D02*
X015118Y014985D01*
X015118Y015084D02*
X015018Y015084D01*
X015018Y015183D02*
X015118Y015183D01*
X015118Y015281D02*
X015018Y015281D01*
X015018Y015380D02*
X015118Y015380D01*
X015118Y015478D02*
X015018Y015478D01*
X015018Y015774D02*
X015118Y015774D01*
X015118Y015872D02*
X015018Y015872D01*
X015018Y015971D02*
X015118Y015971D01*
X015118Y016069D02*
X015018Y016069D01*
X015018Y016168D02*
X015118Y016168D01*
X015118Y016266D02*
X015018Y016266D01*
X015018Y016365D02*
X015118Y016365D01*
X015118Y016464D02*
X015018Y016464D01*
X015018Y016562D02*
X015118Y016562D01*
X015118Y016661D02*
X015018Y016661D01*
X015018Y016759D02*
X015118Y016759D01*
X015118Y016858D02*
X015018Y016858D01*
X015018Y016956D02*
X015118Y016956D01*
X015118Y017055D02*
X015018Y017055D01*
X013838Y017055D02*
X012312Y017055D01*
X012312Y016956D02*
X013777Y016956D01*
X013777Y016858D02*
X012312Y016858D01*
X012312Y016759D02*
X013777Y016759D01*
X013777Y016661D02*
X012312Y016661D01*
X012312Y013704D02*
X012549Y013704D01*
X012488Y013606D02*
X012312Y013606D01*
X012903Y012668D02*
X012903Y012166D01*
X012312Y010493D02*
X012312Y009991D01*
X013887Y009991D02*
X013887Y010493D01*
X010680Y007504D02*
X010680Y006859D01*
X010738Y006802D01*
X010180Y006835D02*
X010147Y006802D01*
X010180Y006835D02*
X010180Y007504D01*
X010147Y006162D02*
X010180Y006129D01*
X010180Y005457D01*
X010680Y005457D02*
X010680Y006104D01*
X010688Y006162D01*
X009163Y008819D02*
X009163Y009321D01*
X006456Y009656D02*
X005954Y009656D01*
X005285Y009656D02*
X004783Y009656D01*
X004635Y014125D02*
X004635Y014627D01*
X003454Y015906D02*
X003454Y016447D01*
X004438Y016300D02*
X004438Y016802D01*
X017321Y014099D02*
X017981Y014099D01*
X015314Y026487D02*
X014812Y026487D01*
X014143Y026487D02*
X013641Y026487D01*
X013641Y027373D02*
X014143Y027373D01*
X014812Y027373D02*
X015314Y027373D01*
X020974Y031851D02*
X020974Y032353D01*
X020974Y033022D02*
X020974Y033524D01*
X022520Y032959D02*
X023212Y032959D01*
X023188Y032934D01*
X024297Y035959D02*
X024271Y035985D01*
X024297Y035959D02*
X024940Y035959D01*
X027224Y035837D02*
X027726Y035837D01*
X027726Y036920D02*
X027224Y036920D01*
X028395Y036920D02*
X028897Y036920D01*
X031161Y037215D02*
X031663Y037215D01*
X032332Y037215D02*
X032834Y037215D01*
X033228Y036231D02*
X033249Y036209D01*
X033927Y036209D01*
X033927Y035709D02*
X033257Y035709D01*
X033228Y035739D01*
X027726Y033081D02*
X027224Y033081D01*
X037460Y029932D02*
X037962Y029932D01*
X038631Y029932D02*
X039133Y029932D01*
X039133Y028947D02*
X038631Y028947D01*
X037962Y028947D02*
X037411Y028947D01*
X037411Y027963D02*
X037962Y027963D01*
X038631Y027963D02*
X039133Y027963D01*
X039133Y026979D02*
X038631Y026979D01*
X037962Y026979D02*
X037460Y026979D01*
X037460Y024026D02*
X037962Y024026D01*
X038631Y024026D02*
X039133Y024026D01*
X039133Y023042D02*
X038631Y023042D01*
X037962Y023042D02*
X037460Y023042D01*
X041348Y005867D02*
X041348Y005384D01*
X041112Y003751D02*
X040610Y003751D01*
X041781Y003751D02*
X042283Y003751D01*
X063444Y015168D02*
X063454Y015227D01*
X063454Y015947D01*
D45*
X063444Y015168D03*
X063444Y019745D03*
X064035Y020630D03*
X062805Y020630D03*
X060344Y020237D03*
X056850Y023436D03*
X056850Y024420D03*
X056850Y025404D03*
X055177Y025404D03*
X054646Y025258D03*
X055177Y024420D03*
X055177Y023436D03*
X053456Y022843D03*
X052861Y024068D03*
X053176Y024313D03*
X052161Y023508D03*
X051461Y023403D03*
X050305Y023140D03*
X049616Y022845D03*
X049326Y023123D03*
X049046Y022843D03*
X048661Y022843D03*
X047844Y022845D03*
X047051Y022843D03*
X046368Y022943D03*
X045974Y022943D03*
X045476Y022843D03*
X044694Y022845D03*
X044881Y023403D03*
X044076Y023403D03*
X043516Y022843D03*
X042824Y023337D03*
X042824Y023731D03*
X042816Y024488D03*
X042824Y025306D03*
X041840Y025503D03*
X041626Y024698D03*
X040751Y024208D03*
X039911Y024523D03*
X040471Y025083D03*
X039631Y025818D03*
X039133Y026979D03*
X039316Y027603D03*
X039133Y027963D03*
X039133Y028947D03*
X039133Y029932D03*
X037460Y029932D03*
X037411Y028947D03*
X037411Y027963D03*
X037460Y026979D03*
X036341Y026098D03*
X035186Y026413D03*
X036621Y025258D03*
X037460Y025010D03*
X037460Y024026D03*
X037460Y023042D03*
X036621Y022668D03*
X036061Y022003D03*
X035466Y021583D03*
X034906Y020743D03*
X035466Y019238D03*
X036026Y018538D03*
X035326Y018258D03*
X034766Y017558D03*
X034871Y017068D03*
X033856Y016648D03*
X032561Y017558D03*
X032036Y017418D03*
X031406Y017418D03*
X030076Y016998D03*
X029796Y015948D03*
X029656Y015388D03*
X030321Y014723D03*
X030321Y014338D03*
X029656Y014408D03*
X028651Y014282D03*
X028466Y015143D03*
X028501Y015598D03*
X027836Y015878D03*
X028651Y016447D03*
X028221Y017138D03*
X027568Y017136D03*
X026584Y017136D03*
X025701Y016998D03*
X025106Y017278D03*
X024966Y018258D03*
X025421Y018328D03*
X025876Y018398D03*
X026961Y019098D03*
X027696Y018958D03*
X027346Y018118D03*
X029026Y018118D03*
X030636Y018958D03*
X031406Y018678D03*
X032421Y019938D03*
X033296Y018678D03*
X033401Y017838D03*
X031196Y016088D03*
X031196Y015143D03*
X031266Y013813D03*
X031021Y012903D03*
X030216Y012763D03*
X030461Y011188D03*
X031301Y010768D03*
X032637Y009361D03*
X030741Y008388D03*
X030321Y008388D03*
X029341Y008948D03*
X028501Y009438D03*
X028186Y008668D03*
X026683Y008819D03*
X025698Y008819D03*
X025698Y010493D03*
X025001Y010978D03*
X024721Y010383D03*
X023881Y011468D03*
X023391Y012378D03*
X024721Y012658D03*
X025596Y012028D03*
X026786Y012588D03*
X027241Y012448D03*
X027276Y011748D03*
X027556Y011188D03*
X027556Y010628D03*
X027171Y010628D03*
X026683Y010493D03*
X023321Y009333D03*
X022621Y010278D03*
X021466Y010383D03*
X020974Y010493D03*
X022481Y011433D03*
X022481Y011818D03*
X022201Y012448D03*
X020836Y013078D03*
X020346Y014058D03*
X020941Y014268D03*
X020974Y014676D03*
X022096Y014093D03*
X025106Y014093D03*
X025666Y013603D03*
X026289Y013691D03*
X026683Y013691D03*
X027371Y013593D03*
X027171Y014198D03*
X026856Y014478D03*
X026156Y015073D03*
X025946Y014688D03*
X025108Y015266D03*
X025108Y016054D03*
X023951Y016718D03*
X023811Y017418D03*
X023111Y016858D03*
X022621Y018118D03*
X023181Y018258D03*
X022621Y019378D03*
X023111Y019658D03*
X024406Y020218D03*
X026879Y020630D03*
X028431Y019658D03*
X028921Y021303D03*
X029306Y021303D03*
X028291Y022703D03*
X027696Y022423D03*
X027346Y023158D03*
X026879Y022304D03*
X026296Y024278D03*
X026226Y024978D03*
X027906Y025083D03*
X027906Y026063D03*
X027913Y026782D03*
X026366Y027323D03*
X026240Y026782D03*
X026226Y026063D03*
X024616Y026098D03*
X024056Y025818D03*
X022901Y025958D03*
X022901Y025258D03*
X022621Y024978D03*
X021851Y025013D03*
X021368Y025010D03*
X020974Y025010D03*
X020186Y025010D03*
X019793Y025010D03*
X019051Y025188D03*
X019331Y026308D03*
X019005Y026585D03*
X019005Y026979D03*
X019611Y027603D03*
X020031Y027078D03*
X018876Y028163D03*
X019156Y028723D03*
X019926Y029073D03*
X020777Y028947D03*
X021171Y028947D03*
X021851Y028828D03*
X022621Y027988D03*
X022901Y028268D03*
X023076Y028653D03*
X023181Y029213D03*
X023181Y029598D03*
X022656Y030333D03*
X021501Y030893D03*
X020974Y031851D03*
X020311Y031103D03*
X020031Y031383D03*
X020451Y032573D03*
X020974Y033524D03*
X023188Y032934D03*
X026086Y031313D03*
X027224Y033081D03*
X027224Y035837D03*
X027224Y036920D03*
X028897Y036920D03*
X031161Y037215D03*
X032834Y037215D03*
X033228Y036231D03*
X033228Y035739D03*
X033296Y033868D03*
X033716Y032328D03*
X035781Y029948D03*
X031686Y029913D03*
X031406Y029598D03*
X030846Y028653D03*
X030461Y027883D03*
X030076Y027043D03*
X029516Y026413D03*
X029516Y026028D03*
X031406Y027323D03*
X030076Y024173D03*
X031406Y022668D03*
X035746Y023158D03*
X039133Y023042D03*
X039351Y023368D03*
X039133Y024026D03*
X039071Y024523D03*
X039211Y022563D03*
X039071Y022003D03*
X040331Y020463D03*
X039071Y019903D03*
X038161Y019378D03*
X040436Y018818D03*
X040716Y019098D03*
X041661Y018678D03*
X040856Y018538D03*
X040576Y017558D03*
X039771Y016718D03*
X038441Y016648D03*
X037881Y016088D03*
X037881Y015458D03*
X039981Y015458D03*
X040296Y015073D03*
X040576Y015458D03*
X040856Y014653D03*
X040646Y014303D03*
X040261Y014233D03*
X041521Y013918D03*
X042256Y013638D03*
X042816Y013813D03*
X042606Y014198D03*
X042431Y012588D03*
X041545Y012658D03*
X041556Y012273D03*
X041871Y011748D03*
X042151Y012028D03*
X042151Y010908D03*
X042711Y010138D03*
X043166Y009158D03*
X042151Y008878D03*
X042151Y008493D03*
X041626Y007758D03*
X041346Y007198D03*
X040856Y006638D03*
X040576Y006918D03*
X040786Y007758D03*
X039946Y008038D03*
X038826Y008388D03*
X038546Y008668D03*
X039106Y009228D03*
X039246Y009858D03*
X039351Y010908D03*
X040296Y010768D03*
X040156Y011468D03*
X040576Y011748D03*
X040576Y012623D03*
X038931Y013323D03*
X037461Y013183D03*
X037181Y013498D03*
X036621Y013463D03*
X035186Y013743D03*
X034015Y013199D03*
X033720Y012314D03*
X035186Y012308D03*
X032342Y013199D03*
X034906Y015213D03*
X038721Y011608D03*
X036901Y009578D03*
X037041Y008108D03*
X035081Y008108D03*
X032631Y007198D03*
X030496Y006008D03*
X030076Y006288D03*
X027521Y004888D03*
X026891Y006603D03*
X024651Y005168D03*
X023741Y004433D03*
X023111Y004433D03*
X022549Y006113D03*
X019506Y006848D03*
X013887Y010493D03*
X012312Y010493D03*
X012903Y012166D03*
X015954Y012018D03*
X016594Y012904D03*
X015954Y013790D03*
X017037Y013987D03*
X017037Y014774D03*
X017037Y015562D03*
X017037Y016349D03*
X017037Y017136D03*
X017037Y017924D03*
X016076Y020463D03*
X014886Y021723D03*
X016286Y022913D03*
X015306Y023508D03*
X017441Y025748D03*
X017721Y027253D03*
X015314Y027373D03*
X015314Y026487D03*
X013641Y026487D03*
X013346Y026763D03*
X013641Y027373D03*
X013801Y027918D03*
X018806Y029598D03*
X019296Y030088D03*
X019716Y030088D03*
X022131Y027673D03*
X022131Y027078D03*
X022376Y026763D03*
X023041Y026487D03*
X023041Y027077D03*
X024371Y026973D03*
X024231Y028303D03*
X026646Y028898D03*
X027101Y027988D03*
X029201Y030053D03*
X024301Y024558D03*
X023531Y023333D03*
X022446Y023893D03*
X021606Y023893D03*
X021886Y022913D03*
X021186Y022633D03*
X020974Y022304D03*
X020451Y021723D03*
X020974Y020630D03*
X021886Y018363D03*
X020974Y016398D03*
X027556Y015248D03*
X040506Y009228D03*
X042711Y007513D03*
X043656Y007233D03*
X043376Y006918D03*
X042991Y006918D03*
X041941Y006148D03*
X042431Y005868D03*
X041348Y005867D03*
X041171Y004923D03*
X041766Y004818D03*
X042283Y003751D03*
X043236Y005098D03*
X044706Y004818D03*
X040610Y003751D03*
X040156Y004328D03*
X039666Y005378D03*
X038161Y005308D03*
X037881Y005588D03*
X037111Y005308D03*
X037111Y004923D03*
X036831Y004328D03*
X036271Y003908D03*
X036971Y006288D03*
X031616Y004048D03*
X046001Y011783D03*
X047226Y012798D03*
X048871Y013778D03*
X049271Y014184D03*
X049271Y013003D03*
X050796Y014933D03*
X051181Y015703D03*
X052913Y016398D03*
X051181Y017978D03*
X051461Y018993D03*
X051461Y019378D03*
X051461Y019763D03*
X049676Y019938D03*
X048801Y020043D03*
X048801Y019658D03*
X048206Y019833D03*
X048941Y020673D03*
X049746Y021163D03*
X049676Y021863D03*
X047716Y021863D03*
X047156Y021058D03*
X046106Y020918D03*
X045966Y021303D03*
X045686Y021023D03*
X045056Y020743D03*
X046456Y020358D03*
X046841Y020358D03*
X046946Y018958D03*
X046564Y018957D03*
X045383Y018957D03*
X044146Y018993D03*
X044146Y018118D03*
X044426Y017558D03*
X045383Y017284D03*
X046564Y017284D03*
X047191Y017523D03*
X047746Y017284D03*
X048927Y017284D03*
X049816Y017033D03*
X050108Y017284D03*
X047121Y016088D03*
X046421Y016368D03*
X045231Y016648D03*
X044951Y015808D03*
X046421Y015248D03*
X049271Y011034D03*
X049271Y009853D03*
X051289Y010985D03*
X052826Y010313D03*
X053981Y011468D03*
X052913Y011969D03*
X052913Y009016D03*
X051426Y007338D03*
X042151Y019693D03*
X042291Y020078D03*
X042851Y020743D03*
X043236Y020743D03*
X042431Y021163D03*
X042711Y021443D03*
X042046Y021303D03*
X044111Y021863D03*
X046663Y021861D03*
X049851Y023753D03*
X049921Y024698D03*
X050305Y024715D03*
X051289Y024912D03*
X052301Y025818D03*
X053701Y026133D03*
X054261Y026588D03*
X055171Y026133D03*
X055177Y027373D03*
X055177Y028357D03*
X055177Y029341D03*
X054611Y029563D03*
X055177Y030325D03*
X055177Y031310D03*
X056850Y031310D03*
X056850Y030325D03*
X056850Y029341D03*
X056850Y028357D03*
X056850Y027373D03*
X057831Y027953D03*
X058251Y027988D03*
X060147Y027619D03*
X060147Y027028D03*
X060147Y026438D03*
X060147Y025847D03*
X060147Y025256D03*
X058621Y026388D03*
X052476Y027428D03*
X051496Y028198D03*
X051289Y027865D03*
X050305Y028062D03*
X050206Y026585D03*
X050206Y026191D03*
X049816Y025818D03*
X049151Y026098D03*
X047891Y026588D03*
X047541Y026378D03*
X047051Y026658D03*
X046981Y025538D03*
X046421Y025538D03*
X046141Y027463D03*
X046981Y027883D03*
X047856Y028163D03*
X049641Y029773D03*
X050206Y029833D03*
X049812Y030325D03*
X049396Y030333D03*
X048626Y030333D03*
X048041Y030325D03*
X047646Y030333D03*
X047261Y030333D03*
X046564Y030227D03*
X046171Y030227D03*
X045756Y030228D03*
X045371Y030228D03*
X044891Y030325D03*
X044496Y030333D03*
X043316Y030325D03*
X042824Y030030D03*
X043096Y029388D03*
X042816Y029108D03*
X042824Y028652D03*
X041840Y028455D03*
X041661Y027848D03*
X041840Y027471D03*
X041556Y027183D03*
X042923Y027176D03*
X042923Y026782D03*
X045091Y028443D03*
X041941Y030543D03*
X041836Y029913D03*
X042571Y030753D03*
X043120Y031310D03*
X044399Y032441D03*
X045441Y032293D03*
X046417Y032097D03*
X046761Y032441D03*
X047366Y031838D03*
X046860Y031310D03*
X044986Y031313D03*
X044399Y034115D03*
X044391Y034708D03*
X045056Y035023D03*
X044531Y035303D03*
X044111Y035303D03*
X043411Y034743D03*
X043026Y034673D03*
X042746Y034393D03*
X043415Y034164D03*
X041661Y034953D03*
X041801Y035338D03*
X040821Y034953D03*
X041101Y034673D03*
X041381Y034393D03*
X040121Y035023D03*
X041801Y036318D03*
X041446Y037166D03*
X042991Y037508D03*
X043661Y036477D03*
X044104Y036477D03*
X045056Y036423D03*
X045581Y036703D03*
X046246Y036423D03*
X046911Y036668D03*
X047576Y036598D03*
X048139Y036428D03*
X048779Y036428D03*
X050009Y036428D03*
X050481Y036773D03*
X050698Y036428D03*
X051251Y037228D03*
X050971Y037508D03*
X051683Y037166D03*
X052581Y036668D03*
X052301Y036178D03*
X050621Y035303D03*
X050131Y034743D03*
X049616Y034115D03*
X049186Y034183D03*
X048521Y034638D03*
X048836Y034953D03*
X047926Y034673D03*
X046761Y034115D03*
X045580Y034115D03*
X047646Y035303D03*
X048311Y037228D03*
X049711Y038383D03*
X048836Y039258D03*
X049123Y039577D03*
X050009Y039577D03*
X050698Y039577D03*
X051683Y038839D03*
X053701Y038908D03*
X055177Y039380D03*
X056361Y037788D03*
X054261Y035863D03*
X055029Y035050D03*
X058340Y035050D03*
X058340Y032884D03*
X058111Y031173D03*
X052581Y029283D03*
X051321Y029668D03*
X050551Y030683D03*
X051321Y031068D03*
X051881Y030823D03*
X051951Y031978D03*
X051391Y032398D03*
X050691Y032678D03*
X051671Y033238D03*
X049991Y031628D03*
X051289Y026880D03*
X049291Y024628D03*
X052126Y022073D03*
X040681Y031033D03*
X040821Y032223D03*
X044776Y037228D03*
X046631Y037508D03*
X046564Y039577D03*
X047204Y039577D03*
X048139Y039577D03*
X043366Y039577D03*
X042431Y039577D03*
X041446Y038839D03*
X024271Y035985D03*
X023881Y036073D03*
X018612Y036034D03*
X018612Y036821D03*
X018612Y037609D03*
X018612Y038396D03*
X018612Y039184D03*
X018612Y039971D03*
X018612Y040758D03*
X017824Y040758D03*
X017037Y040758D03*
X016249Y040758D03*
X015462Y040758D03*
X014675Y040758D03*
X013887Y040758D03*
X013887Y039971D03*
X013887Y039184D03*
X013887Y038396D03*
X013887Y037609D03*
X013887Y036821D03*
X013887Y036034D03*
X014675Y036034D03*
X015462Y036034D03*
X016249Y036034D03*
X017037Y036034D03*
X017824Y036034D03*
X008936Y025468D03*
X005821Y016840D03*
X004438Y016300D03*
X003454Y015906D03*
X004635Y014627D03*
X004783Y009656D03*
X006456Y009656D03*
X009163Y008819D03*
X010147Y006802D03*
X010738Y006802D03*
X010688Y006162D03*
X010147Y006162D03*
D46*
X009557Y035247D02*
X005816Y035247D01*
X005816Y035963D01*
X006435Y035963D01*
X006754Y036281D01*
X006754Y036732D01*
X006435Y037050D01*
X005816Y037050D01*
X005816Y039479D01*
X007686Y039479D01*
X009557Y037609D01*
X009557Y035247D01*
X009557Y035306D02*
X005816Y035306D01*
X005816Y035465D02*
X009557Y035465D01*
X009557Y035623D02*
X005816Y035623D01*
X005816Y035782D02*
X008501Y035782D01*
X008587Y035696D02*
X008329Y035954D01*
X008329Y036396D01*
X008769Y036396D01*
X008769Y036396D01*
X008769Y035696D01*
X008587Y035696D01*
X008769Y035696D02*
X008951Y035696D01*
X009209Y035954D01*
X009209Y036396D01*
X008770Y036396D01*
X008770Y036396D01*
X009209Y036396D01*
X009209Y036838D01*
X008951Y037096D01*
X008769Y037096D01*
X008769Y036397D01*
X008769Y036397D01*
X008769Y037096D01*
X008587Y037096D01*
X008329Y036838D01*
X008329Y036396D01*
X008769Y036396D01*
X008769Y035696D01*
X008769Y035782D02*
X008769Y035782D01*
X008769Y035940D02*
X008769Y035940D01*
X008769Y036099D02*
X008769Y036099D01*
X008769Y036257D02*
X008769Y036257D01*
X008769Y036396D02*
X008769Y036396D01*
X008769Y036416D02*
X008769Y036416D01*
X008769Y036574D02*
X008769Y036574D01*
X008769Y036733D02*
X008769Y036733D01*
X008769Y036891D02*
X008769Y036891D01*
X008769Y037050D02*
X008769Y037050D01*
X008541Y037050D02*
X006435Y037050D01*
X006594Y036891D02*
X008382Y036891D01*
X008329Y036733D02*
X006752Y036733D01*
X006754Y036574D02*
X008329Y036574D01*
X008329Y036416D02*
X006754Y036416D01*
X006730Y036257D02*
X008329Y036257D01*
X008329Y036099D02*
X006571Y036099D01*
X005816Y035940D02*
X008343Y035940D01*
X009037Y035782D02*
X009557Y035782D01*
X009557Y035940D02*
X009195Y035940D01*
X009209Y036099D02*
X009557Y036099D01*
X009557Y036257D02*
X009209Y036257D01*
X009209Y036416D02*
X009557Y036416D01*
X009557Y036574D02*
X009209Y036574D01*
X009209Y036733D02*
X009557Y036733D01*
X009557Y036891D02*
X009156Y036891D01*
X008998Y037050D02*
X009557Y037050D01*
X009557Y037209D02*
X005816Y037209D01*
X005816Y037367D02*
X009557Y037367D01*
X009557Y037526D02*
X007371Y037526D01*
X007274Y037429D02*
X007611Y037765D01*
X007611Y038378D01*
X007056Y038378D01*
X007056Y038415D01*
X007611Y038415D01*
X007611Y039028D01*
X007274Y039364D01*
X007055Y039364D01*
X007055Y038415D01*
X007018Y038415D01*
X007018Y039364D01*
X006799Y039364D01*
X006463Y039028D01*
X006463Y038415D01*
X007018Y038415D01*
X007018Y038378D01*
X006463Y038378D01*
X006463Y037765D01*
X006799Y037429D01*
X007018Y037429D01*
X007018Y038378D01*
X007055Y038378D01*
X007055Y037429D01*
X007274Y037429D01*
X007055Y037526D02*
X007018Y037526D01*
X007018Y037684D02*
X007055Y037684D01*
X007055Y037843D02*
X007018Y037843D01*
X007018Y038001D02*
X007055Y038001D01*
X007055Y038160D02*
X007018Y038160D01*
X007018Y038318D02*
X007055Y038318D01*
X007055Y038477D02*
X007018Y038477D01*
X007018Y038635D02*
X007055Y038635D01*
X007055Y038794D02*
X007018Y038794D01*
X007018Y038952D02*
X007055Y038952D01*
X007055Y039111D02*
X007018Y039111D01*
X007018Y039270D02*
X007055Y039270D01*
X007368Y039270D02*
X007896Y039270D01*
X007737Y039428D02*
X005816Y039428D01*
X005816Y039270D02*
X006705Y039270D01*
X006547Y039111D02*
X005816Y039111D01*
X005816Y038952D02*
X006463Y038952D01*
X006463Y038794D02*
X005816Y038794D01*
X005816Y038635D02*
X006463Y038635D01*
X006463Y038477D02*
X005816Y038477D01*
X005816Y038318D02*
X006463Y038318D01*
X006463Y038160D02*
X005816Y038160D01*
X005816Y038001D02*
X006463Y038001D01*
X006463Y037843D02*
X005816Y037843D01*
X005816Y037684D02*
X006544Y037684D01*
X006702Y037526D02*
X005816Y037526D01*
X007530Y037684D02*
X009481Y037684D01*
X009323Y037843D02*
X007611Y037843D01*
X007611Y038001D02*
X009164Y038001D01*
X009006Y038160D02*
X007611Y038160D01*
X007611Y038318D02*
X008847Y038318D01*
X008689Y038477D02*
X007611Y038477D01*
X007611Y038635D02*
X008530Y038635D01*
X008371Y038794D02*
X007611Y038794D01*
X007611Y038952D02*
X008213Y038952D01*
X008054Y039111D02*
X007527Y039111D01*
X008246Y039904D02*
X008379Y039904D01*
X008329Y039954D02*
X008587Y039696D01*
X008769Y039696D01*
X008769Y040396D01*
X008769Y040396D01*
X008769Y039696D01*
X008951Y039696D01*
X009209Y039954D01*
X009209Y040396D01*
X008770Y040396D01*
X008770Y040396D01*
X009209Y040396D01*
X009209Y040838D01*
X008951Y041096D01*
X008769Y041096D01*
X008587Y041096D01*
X008329Y040838D01*
X008329Y040396D01*
X008329Y039954D01*
X008329Y040062D02*
X005816Y040062D01*
X005816Y039971D02*
X008179Y039971D01*
X009261Y038888D01*
X011919Y038888D01*
X011919Y041460D01*
X005816Y041460D01*
X005816Y039971D01*
X005816Y040221D02*
X008329Y040221D01*
X008329Y040379D02*
X005816Y040379D01*
X005816Y040538D02*
X008329Y040538D01*
X008329Y040396D02*
X008769Y040396D01*
X008329Y040396D01*
X008329Y040696D02*
X005816Y040696D01*
X005816Y040855D02*
X008346Y040855D01*
X008504Y041014D02*
X005816Y041014D01*
X005816Y041172D02*
X011919Y041172D01*
X011919Y041014D02*
X009034Y041014D01*
X009193Y040855D02*
X011919Y040855D01*
X011919Y040696D02*
X009209Y040696D01*
X009209Y040538D02*
X011919Y040538D01*
X011919Y040379D02*
X009209Y040379D01*
X009209Y040221D02*
X011919Y040221D01*
X011919Y040062D02*
X009209Y040062D01*
X009159Y039904D02*
X011919Y039904D01*
X011919Y039745D02*
X011049Y039745D01*
X010918Y039876D02*
X011199Y039595D01*
X011199Y039416D01*
X010439Y039416D01*
X010439Y039376D01*
X011199Y039376D01*
X011199Y039197D01*
X010918Y038916D01*
X010439Y038916D01*
X010439Y039376D01*
X010399Y039376D01*
X010399Y038916D01*
X009920Y038916D01*
X009639Y039197D01*
X009639Y039376D01*
X010398Y039376D01*
X010398Y039416D01*
X009639Y039416D01*
X009639Y039595D01*
X009920Y039876D01*
X010399Y039876D01*
X010399Y039416D01*
X010439Y039416D01*
X010439Y039876D01*
X010918Y039876D01*
X011199Y039587D02*
X011919Y039587D01*
X011919Y039428D02*
X011199Y039428D01*
X011199Y039270D02*
X011919Y039270D01*
X011919Y039111D02*
X011112Y039111D01*
X010954Y038952D02*
X011919Y038952D01*
X013100Y038952D02*
X013645Y038952D01*
X013603Y038994D02*
X013697Y038900D01*
X013821Y038849D01*
X013887Y038849D01*
X013887Y039183D01*
X013887Y039183D01*
X013552Y039183D01*
X013552Y039117D01*
X013603Y038994D01*
X013555Y039111D02*
X013100Y039111D01*
X013100Y039270D02*
X013560Y039270D01*
X013552Y039250D02*
X013552Y039184D01*
X013887Y039184D01*
X013887Y039519D01*
X013821Y039519D01*
X013697Y039468D01*
X013603Y039373D01*
X013552Y039250D01*
X013658Y039428D02*
X013100Y039428D01*
X013100Y039587D02*
X019202Y039587D01*
X019202Y039745D02*
X018860Y039745D01*
X018896Y039781D02*
X018947Y039904D01*
X018947Y039971D01*
X018947Y040038D01*
X018896Y040161D01*
X018801Y040255D01*
X018678Y040306D01*
X018612Y040306D01*
X018612Y039971D01*
X018947Y039971D01*
X018612Y039971D01*
X018612Y039971D01*
X018612Y039636D01*
X018678Y039636D01*
X018801Y039687D01*
X018896Y039781D01*
X018946Y039904D02*
X019202Y039904D01*
X019202Y040062D02*
X018936Y040062D01*
X018836Y040221D02*
X019202Y040221D01*
X019202Y040379D02*
X013100Y040379D01*
X013100Y040221D02*
X013663Y040221D01*
X013697Y040255D02*
X013603Y040161D01*
X013552Y040038D01*
X013552Y039971D01*
X013552Y039904D01*
X013603Y039781D01*
X013697Y039687D01*
X013821Y039636D01*
X013887Y039636D01*
X013887Y039971D01*
X013552Y039971D01*
X013887Y039971D01*
X013887Y039971D01*
X013887Y039971D01*
X013887Y040306D01*
X013821Y040306D01*
X013697Y040255D01*
X013887Y040221D02*
X013887Y040221D01*
X013887Y040306D02*
X013887Y039971D01*
X013887Y039971D01*
X013887Y039636D01*
X013954Y039636D01*
X014077Y039687D01*
X014171Y039781D01*
X014222Y039904D01*
X018277Y039904D01*
X018328Y039781D01*
X018422Y039687D01*
X018545Y039636D01*
X018611Y039636D01*
X018611Y039971D01*
X018277Y039971D01*
X018277Y039904D01*
X018277Y039971D02*
X018611Y039971D01*
X018611Y039971D01*
X018612Y039971D01*
X018611Y039971D01*
X018611Y040306D01*
X018545Y040306D01*
X018422Y040255D01*
X018328Y040161D01*
X018277Y040038D01*
X018277Y039971D01*
X018287Y040062D02*
X014212Y040062D01*
X014222Y040038D02*
X014171Y040161D01*
X014077Y040255D01*
X013954Y040306D01*
X013887Y040306D01*
X013887Y040423D02*
X013821Y040423D01*
X013697Y040474D01*
X013603Y040569D01*
X013552Y040692D01*
X013552Y040758D01*
X013887Y040758D01*
X013887Y040758D01*
X013887Y040423D01*
X013954Y040423D01*
X014077Y040474D01*
X014171Y040569D01*
X014222Y040692D01*
X014222Y040758D01*
X013888Y040758D01*
X013888Y040759D01*
X014222Y040759D01*
X014222Y040825D01*
X014171Y040948D01*
X014077Y041042D01*
X013954Y041093D01*
X013887Y041093D01*
X013821Y041093D01*
X013697Y041042D01*
X013603Y040948D01*
X013552Y040825D01*
X013552Y040759D01*
X013887Y040759D01*
X013887Y041093D01*
X013887Y040759D01*
X013887Y040759D01*
X013887Y040758D01*
X013887Y040423D01*
X013887Y040538D02*
X013887Y040538D01*
X013887Y040696D02*
X013887Y040696D01*
X013887Y040855D02*
X013887Y040855D01*
X013887Y041014D02*
X013887Y041014D01*
X013669Y041014D02*
X013100Y041014D01*
X013100Y041172D02*
X019202Y041172D01*
X019202Y041014D02*
X018830Y041014D01*
X018801Y041042D02*
X018678Y041093D01*
X018612Y041093D01*
X018612Y040759D01*
X018611Y040759D01*
X018611Y040758D01*
X018277Y040758D01*
X018277Y040692D01*
X018328Y040569D01*
X018422Y040474D01*
X018545Y040423D01*
X018611Y040423D01*
X018611Y040758D01*
X018612Y040758D01*
X018612Y040759D01*
X018947Y040759D01*
X018947Y040825D01*
X018896Y040948D01*
X018801Y041042D01*
X018612Y041014D02*
X018611Y041014D01*
X018611Y041093D02*
X018545Y041093D01*
X018422Y041042D01*
X018328Y040948D01*
X018277Y040825D01*
X018277Y040759D01*
X018611Y040759D01*
X018611Y041093D01*
X018393Y041014D02*
X018043Y041014D01*
X018014Y041042D02*
X017891Y041093D01*
X017824Y041093D01*
X017758Y041093D01*
X017634Y041042D01*
X017540Y040948D01*
X017489Y040825D01*
X017489Y040759D01*
X017824Y040759D01*
X017824Y041093D01*
X017824Y040759D01*
X017824Y040759D01*
X017824Y040758D01*
X017824Y040758D01*
X017824Y040423D01*
X017758Y040423D01*
X017634Y040474D01*
X017540Y040569D01*
X017489Y040692D01*
X017489Y040758D01*
X017824Y040758D01*
X017824Y040423D01*
X017891Y040423D01*
X018014Y040474D01*
X018108Y040569D01*
X018159Y040692D01*
X018159Y040758D01*
X017825Y040758D01*
X017825Y040759D01*
X018159Y040759D01*
X018159Y040825D01*
X018108Y040948D01*
X018014Y041042D01*
X017824Y041014D02*
X017824Y041014D01*
X017824Y040855D02*
X017824Y040855D01*
X017824Y040696D02*
X017824Y040696D01*
X017824Y040538D02*
X017824Y040538D01*
X017571Y040538D02*
X017290Y040538D01*
X017321Y040569D02*
X017372Y040692D01*
X017372Y040758D01*
X017037Y040758D01*
X017037Y040423D01*
X017103Y040423D01*
X017227Y040474D01*
X017321Y040569D01*
X017372Y040696D02*
X017489Y040696D01*
X017372Y040759D02*
X017372Y040825D01*
X017321Y040948D01*
X017227Y041042D01*
X017103Y041093D01*
X017037Y041093D01*
X017037Y040759D01*
X017037Y040759D01*
X017037Y041093D01*
X016970Y041093D01*
X016847Y041042D01*
X016753Y040948D01*
X016702Y040825D01*
X016702Y040759D01*
X017036Y040759D01*
X017036Y040758D01*
X016702Y040758D01*
X016702Y040692D01*
X016753Y040569D01*
X016847Y040474D01*
X016970Y040423D01*
X017037Y040423D01*
X017037Y040758D01*
X017037Y040758D01*
X017037Y040759D01*
X017372Y040759D01*
X017359Y040855D02*
X017502Y040855D01*
X017606Y041014D02*
X017255Y041014D01*
X017037Y041014D02*
X017037Y041014D01*
X017037Y040855D02*
X017037Y040855D01*
X017037Y040696D02*
X017037Y040696D01*
X017037Y040538D02*
X017037Y040538D01*
X016784Y040538D02*
X016503Y040538D01*
X016533Y040569D02*
X016584Y040692D01*
X016584Y040758D01*
X016250Y040758D01*
X016250Y040759D01*
X016249Y040759D01*
X016249Y041093D01*
X016183Y041093D01*
X016060Y041042D01*
X015965Y040948D01*
X015914Y040825D01*
X015914Y040759D01*
X016249Y040759D01*
X016249Y040758D01*
X015914Y040758D01*
X015914Y040692D01*
X015965Y040569D01*
X016060Y040474D01*
X016183Y040423D01*
X016249Y040423D01*
X016249Y040758D01*
X016250Y040758D01*
X016250Y040423D01*
X016316Y040423D01*
X016439Y040474D01*
X016533Y040569D01*
X016584Y040696D02*
X016702Y040696D01*
X016584Y040759D02*
X016584Y040825D01*
X016533Y040948D01*
X016439Y041042D01*
X016316Y041093D01*
X016250Y041093D01*
X016250Y040759D01*
X016584Y040759D01*
X016572Y040855D02*
X016714Y040855D01*
X016818Y041014D02*
X016468Y041014D01*
X016250Y041014D02*
X016249Y041014D01*
X016249Y040855D02*
X016250Y040855D01*
X016249Y040696D02*
X016250Y040696D01*
X016249Y040538D02*
X016250Y040538D01*
X015996Y040538D02*
X015715Y040538D01*
X015746Y040569D02*
X015797Y040692D01*
X015797Y040758D01*
X015462Y040758D01*
X015462Y040423D01*
X015395Y040423D01*
X015272Y040474D01*
X015178Y040569D01*
X015127Y040692D01*
X015127Y040758D01*
X015462Y040758D01*
X015462Y040758D01*
X015462Y040423D01*
X015529Y040423D01*
X015652Y040474D01*
X015746Y040569D01*
X015797Y040696D02*
X015914Y040696D01*
X015797Y040759D02*
X015797Y040825D01*
X015746Y040948D01*
X015652Y041042D01*
X015529Y041093D01*
X015462Y041093D01*
X015395Y041093D01*
X015272Y041042D01*
X015178Y040948D01*
X015127Y040825D01*
X015127Y040759D01*
X015462Y040759D01*
X015462Y041093D01*
X015462Y040759D01*
X015462Y040759D01*
X015462Y040758D01*
X015462Y040759D01*
X015797Y040759D01*
X015785Y040855D02*
X015927Y040855D01*
X016031Y041014D02*
X015681Y041014D01*
X015462Y041014D02*
X015462Y041014D01*
X015462Y040855D02*
X015462Y040855D01*
X015462Y040696D02*
X015462Y040696D01*
X015462Y040538D02*
X015462Y040538D01*
X015209Y040538D02*
X014928Y040538D01*
X014959Y040569D02*
X015010Y040692D01*
X015010Y040758D01*
X014675Y040758D01*
X014675Y040759D01*
X014674Y040759D01*
X014674Y041093D01*
X014608Y041093D01*
X014485Y041042D01*
X014391Y040948D01*
X014340Y040825D01*
X014340Y040759D01*
X014674Y040759D01*
X014674Y040758D01*
X014340Y040758D01*
X014340Y040692D01*
X014391Y040569D01*
X014485Y040474D01*
X014608Y040423D01*
X014674Y040423D01*
X014674Y040758D01*
X014675Y040758D01*
X014675Y040423D01*
X014741Y040423D01*
X014864Y040474D01*
X014959Y040569D01*
X015010Y040696D02*
X015127Y040696D01*
X015010Y040759D02*
X015010Y040825D01*
X014959Y040948D01*
X014864Y041042D01*
X014741Y041093D01*
X014675Y041093D01*
X014675Y040759D01*
X015010Y040759D01*
X014997Y040855D02*
X015139Y040855D01*
X015243Y041014D02*
X014893Y041014D01*
X014675Y041014D02*
X014674Y041014D01*
X014674Y040855D02*
X014675Y040855D01*
X014674Y040696D02*
X014675Y040696D01*
X014674Y040538D02*
X014675Y040538D01*
X014421Y040538D02*
X014140Y040538D01*
X014222Y040696D02*
X014340Y040696D01*
X014352Y040855D02*
X014210Y040855D01*
X014106Y041014D02*
X014456Y041014D01*
X014111Y040221D02*
X018388Y040221D01*
X018611Y040221D02*
X018612Y040221D01*
X018611Y040062D02*
X018612Y040062D01*
X018611Y039904D02*
X018612Y039904D01*
X018611Y039745D02*
X018612Y039745D01*
X018611Y039519D02*
X018545Y039519D01*
X018422Y039468D01*
X018328Y039373D01*
X018277Y039250D01*
X018277Y039184D01*
X018611Y039184D01*
X018611Y039183D01*
X018277Y039183D01*
X018277Y039117D01*
X018328Y038994D01*
X018422Y038900D01*
X018545Y038849D01*
X018611Y038849D01*
X018611Y039183D01*
X018612Y039183D01*
X018612Y038849D01*
X018678Y038849D01*
X018801Y038900D01*
X018896Y038994D01*
X018947Y039117D01*
X018947Y039183D01*
X018612Y039183D01*
X018612Y039184D01*
X018611Y039184D01*
X018611Y039519D01*
X018612Y039519D02*
X018612Y039184D01*
X018947Y039184D01*
X018947Y039250D01*
X018896Y039373D01*
X018801Y039468D01*
X018678Y039519D01*
X018612Y039519D01*
X018611Y039428D02*
X018612Y039428D01*
X018611Y039270D02*
X018612Y039270D01*
X018611Y039111D02*
X018612Y039111D01*
X018611Y038952D02*
X018612Y038952D01*
X018611Y038731D02*
X018545Y038731D01*
X018422Y038680D01*
X018328Y038586D01*
X018277Y038463D01*
X018277Y038396D01*
X018277Y038330D01*
X018328Y038206D01*
X018422Y038112D01*
X018545Y038061D01*
X018611Y038061D01*
X018611Y038396D01*
X018277Y038396D01*
X018611Y038396D01*
X018611Y038396D01*
X018612Y038396D01*
X018612Y038396D01*
X018947Y038396D01*
X018947Y038330D01*
X018896Y038206D01*
X018801Y038112D01*
X018678Y038061D01*
X018612Y038061D01*
X018612Y038396D01*
X018947Y038396D01*
X018947Y038463D01*
X018896Y038586D01*
X018801Y038680D01*
X018678Y038731D01*
X018612Y038731D01*
X018612Y038397D01*
X018611Y038397D01*
X018611Y038731D01*
X018611Y038635D02*
X018612Y038635D01*
X018611Y038477D02*
X018612Y038477D01*
X018611Y038318D02*
X018612Y038318D01*
X018611Y038160D02*
X018612Y038160D01*
X018611Y037944D02*
X018545Y037944D01*
X018422Y037893D01*
X018328Y037799D01*
X018277Y037675D01*
X018277Y037609D01*
X018611Y037609D01*
X018611Y037609D01*
X018277Y037609D01*
X018277Y037542D01*
X018328Y037419D01*
X018422Y037325D01*
X018545Y037274D01*
X018611Y037274D01*
X018611Y037608D01*
X018612Y037608D01*
X018612Y037274D01*
X018678Y037274D01*
X018801Y037325D01*
X018896Y037419D01*
X018947Y037542D01*
X018947Y037609D01*
X018947Y037675D01*
X018896Y037799D01*
X018801Y037893D01*
X018678Y037944D01*
X018612Y037944D01*
X018612Y037609D01*
X018947Y037609D01*
X018612Y037609D01*
X018612Y037609D01*
X018611Y037609D01*
X018611Y037944D01*
X018611Y037843D02*
X018612Y037843D01*
X018611Y037684D02*
X018612Y037684D01*
X018611Y037526D02*
X018612Y037526D01*
X018611Y037367D02*
X018612Y037367D01*
X018611Y037156D02*
X018545Y037156D01*
X018422Y037105D01*
X018328Y037011D01*
X018277Y036888D01*
X018277Y036822D01*
X018611Y036822D01*
X018611Y036821D01*
X018277Y036821D01*
X018277Y036755D01*
X018328Y036632D01*
X018422Y036537D01*
X018545Y036486D01*
X018611Y036486D01*
X018611Y036821D01*
X018612Y036821D01*
X018612Y036822D01*
X018611Y036822D01*
X018611Y037156D01*
X018612Y037156D02*
X018612Y036822D01*
X018947Y036822D01*
X018947Y036888D01*
X018896Y037011D01*
X018801Y037105D01*
X018678Y037156D01*
X018612Y037156D01*
X018611Y037050D02*
X018612Y037050D01*
X018611Y036891D02*
X018612Y036891D01*
X018612Y036821D02*
X018947Y036821D01*
X018947Y036755D01*
X018896Y036632D01*
X018801Y036537D01*
X018678Y036486D01*
X018612Y036486D01*
X018612Y036821D01*
X018611Y036733D02*
X018612Y036733D01*
X018611Y036574D02*
X018612Y036574D01*
X018611Y036369D02*
X018545Y036369D01*
X018422Y036318D01*
X018328Y036224D01*
X018277Y036101D01*
X018277Y036034D01*
X018611Y036034D01*
X018611Y036034D01*
X018277Y036034D01*
X018277Y035967D01*
X018328Y035844D01*
X018422Y035750D01*
X018545Y035699D01*
X018611Y035699D01*
X018611Y036034D01*
X018611Y036369D01*
X018612Y036369D02*
X018612Y036034D01*
X018947Y036034D01*
X018947Y036101D01*
X018896Y036224D01*
X018801Y036318D01*
X018678Y036369D01*
X018612Y036369D01*
X018611Y036257D02*
X018612Y036257D01*
X018611Y036099D02*
X018612Y036099D01*
X018612Y036034D02*
X018611Y036034D01*
X018612Y036034D01*
X018612Y036034D01*
X018947Y036034D01*
X018947Y035967D01*
X018896Y035844D01*
X018801Y035750D01*
X018678Y035699D01*
X018612Y035699D01*
X018612Y036034D01*
X018611Y035940D02*
X018612Y035940D01*
X018611Y035782D02*
X018612Y035782D01*
X018833Y035782D02*
X019202Y035782D01*
X019202Y035940D02*
X018935Y035940D01*
X018947Y036099D02*
X019202Y036099D01*
X019202Y036257D02*
X018862Y036257D01*
X018838Y036574D02*
X019202Y036574D01*
X019202Y036416D02*
X013100Y036416D01*
X013100Y036574D02*
X013661Y036574D01*
X013697Y036537D02*
X013821Y036486D01*
X013887Y036486D01*
X013887Y036821D01*
X013887Y036821D01*
X013552Y036821D01*
X013552Y036755D01*
X013603Y036632D01*
X013697Y036537D01*
X013887Y036574D02*
X013887Y036574D01*
X013887Y036486D02*
X013954Y036486D01*
X014077Y036537D01*
X014171Y036632D01*
X014222Y036755D01*
X014222Y036821D01*
X013888Y036821D01*
X013888Y036822D01*
X014222Y036822D01*
X014222Y036888D01*
X014171Y037011D01*
X014077Y037105D01*
X013954Y037156D01*
X013887Y037156D01*
X013821Y037156D01*
X013697Y037105D01*
X013603Y037011D01*
X013552Y036888D01*
X013552Y036822D01*
X013887Y036822D01*
X013887Y037156D01*
X013887Y036822D01*
X013887Y036822D01*
X013887Y036821D01*
X013887Y036486D01*
X013887Y036369D02*
X013821Y036369D01*
X013697Y036318D01*
X013603Y036224D01*
X013552Y036101D01*
X013552Y036034D01*
X013887Y036034D01*
X013887Y036034D01*
X013552Y036034D01*
X013552Y035967D01*
X013603Y035844D01*
X013697Y035750D01*
X013821Y035699D01*
X013887Y035699D01*
X013887Y036034D01*
X013887Y036369D01*
X013887Y036034D01*
X013887Y036034D01*
X013887Y036034D01*
X013887Y035699D01*
X013954Y035699D01*
X014077Y035750D01*
X014171Y035844D01*
X014222Y035967D01*
X014222Y036034D01*
X014222Y036101D01*
X014171Y036224D01*
X014077Y036318D01*
X013954Y036369D01*
X013887Y036369D01*
X013887Y036257D02*
X013887Y036257D01*
X013887Y036099D02*
X013887Y036099D01*
X013888Y036034D02*
X014222Y036034D01*
X013888Y036034D01*
X013888Y036034D01*
X013887Y035940D02*
X013887Y035940D01*
X013887Y035782D02*
X013887Y035782D01*
X013666Y035782D02*
X013100Y035782D01*
X013100Y035940D02*
X013564Y035940D01*
X013552Y036099D02*
X013100Y036099D01*
X013100Y036257D02*
X013637Y036257D01*
X013561Y036733D02*
X013100Y036733D01*
X013100Y036891D02*
X013554Y036891D01*
X013642Y037050D02*
X013100Y037050D01*
X013100Y037209D02*
X019202Y037209D01*
X019202Y037367D02*
X018844Y037367D01*
X018940Y037526D02*
X019202Y037526D01*
X019202Y037684D02*
X018943Y037684D01*
X018851Y037843D02*
X019202Y037843D01*
X019202Y038001D02*
X017378Y038001D01*
X017313Y037843D02*
X018372Y037843D01*
X018280Y037684D02*
X017205Y037684D01*
X017277Y037756D02*
X017449Y038171D01*
X017449Y038621D01*
X017277Y039036D01*
X016959Y039354D01*
X016544Y039526D01*
X016094Y039526D01*
X015679Y039354D01*
X015361Y039036D01*
X015189Y038621D01*
X015189Y038171D01*
X015361Y037756D01*
X015679Y037438D01*
X016094Y037266D01*
X016544Y037266D01*
X016959Y037438D01*
X017277Y037756D01*
X017046Y037526D02*
X018284Y037526D01*
X018380Y037367D02*
X016787Y037367D01*
X015850Y037367D02*
X014119Y037367D01*
X014077Y037325D02*
X014171Y037419D01*
X014222Y037542D01*
X014222Y037609D01*
X014222Y037675D01*
X014171Y037799D01*
X014077Y037893D01*
X013954Y037944D01*
X013887Y037944D01*
X013821Y037944D01*
X013697Y037893D01*
X013603Y037799D01*
X013552Y037675D01*
X013552Y037609D01*
X013887Y037609D01*
X013887Y037609D01*
X013887Y037944D01*
X013887Y037609D01*
X013887Y037609D01*
X013552Y037609D01*
X013552Y037542D01*
X013603Y037419D01*
X013697Y037325D01*
X013821Y037274D01*
X013887Y037274D01*
X013887Y037608D01*
X013887Y037608D01*
X013887Y037274D01*
X013954Y037274D01*
X014077Y037325D01*
X013887Y037367D02*
X013887Y037367D01*
X013887Y037526D02*
X013887Y037526D01*
X013888Y037609D02*
X013888Y037609D01*
X014222Y037609D01*
X013888Y037609D01*
X013887Y037684D02*
X013887Y037684D01*
X013887Y037843D02*
X013887Y037843D01*
X013887Y038061D02*
X013821Y038061D01*
X013697Y038112D01*
X013603Y038206D01*
X013552Y038330D01*
X013552Y038396D01*
X013887Y038396D01*
X013887Y038396D01*
X013887Y038396D01*
X013887Y038061D01*
X013954Y038061D01*
X014077Y038112D01*
X014171Y038206D01*
X014222Y038330D01*
X014222Y038396D01*
X013888Y038396D01*
X013888Y038396D01*
X014222Y038396D01*
X014222Y038463D01*
X014171Y038586D01*
X014077Y038680D01*
X013954Y038731D01*
X013887Y038731D01*
X013821Y038731D01*
X013697Y038680D01*
X013603Y038586D01*
X013552Y038463D01*
X013552Y038396D01*
X013887Y038396D01*
X013887Y038061D01*
X013887Y038160D02*
X013887Y038160D01*
X013887Y038318D02*
X013887Y038318D01*
X013887Y038397D02*
X013887Y038731D01*
X013887Y038397D01*
X013887Y038397D01*
X013887Y038477D02*
X013887Y038477D01*
X013887Y038635D02*
X013887Y038635D01*
X013887Y038849D02*
X013954Y038849D01*
X014077Y038900D01*
X014171Y038994D01*
X014222Y039117D01*
X014222Y039183D01*
X013888Y039183D01*
X013888Y039184D01*
X014222Y039184D01*
X014222Y039250D01*
X014171Y039373D01*
X014077Y039468D01*
X013954Y039519D01*
X013887Y039519D01*
X013887Y039184D01*
X013887Y039184D01*
X013887Y039183D01*
X013887Y038849D01*
X013887Y038952D02*
X013887Y038952D01*
X013887Y039111D02*
X013887Y039111D01*
X013887Y039270D02*
X013887Y039270D01*
X013887Y039428D02*
X013887Y039428D01*
X014116Y039428D02*
X015857Y039428D01*
X015594Y039270D02*
X014214Y039270D01*
X014220Y039111D02*
X015435Y039111D01*
X015326Y038952D02*
X014130Y038952D01*
X014122Y038635D02*
X015195Y038635D01*
X015189Y038477D02*
X014216Y038477D01*
X014218Y038318D02*
X015189Y038318D01*
X015194Y038160D02*
X014125Y038160D01*
X014127Y037843D02*
X015325Y037843D01*
X015259Y038001D02*
X013100Y038001D01*
X013100Y037843D02*
X013647Y037843D01*
X013556Y037684D02*
X013100Y037684D01*
X013100Y037526D02*
X013559Y037526D01*
X013655Y037367D02*
X013100Y037367D01*
X013887Y037050D02*
X013887Y037050D01*
X013887Y036891D02*
X013887Y036891D01*
X013887Y036733D02*
X013887Y036733D01*
X014114Y036574D02*
X018385Y036574D01*
X018286Y036733D02*
X014213Y036733D01*
X014221Y036891D02*
X018278Y036891D01*
X018366Y037050D02*
X014132Y037050D01*
X014215Y037526D02*
X015591Y037526D01*
X015433Y037684D02*
X014219Y037684D01*
X013650Y038160D02*
X013100Y038160D01*
X013100Y038318D02*
X013557Y038318D01*
X013558Y038477D02*
X013100Y038477D01*
X013100Y038635D02*
X013653Y038635D01*
X013100Y038794D02*
X015260Y038794D01*
X014135Y039745D02*
X018364Y039745D01*
X018382Y039428D02*
X016780Y039428D01*
X017043Y039270D02*
X018285Y039270D01*
X018279Y039111D02*
X017202Y039111D01*
X017311Y038952D02*
X018369Y038952D01*
X018377Y038635D02*
X017443Y038635D01*
X017449Y038477D02*
X018282Y038477D01*
X018281Y038318D02*
X017449Y038318D01*
X017444Y038160D02*
X018374Y038160D01*
X018849Y038160D02*
X019202Y038160D01*
X019202Y038318D02*
X018942Y038318D01*
X018941Y038477D02*
X019202Y038477D01*
X019202Y038635D02*
X018846Y038635D01*
X018854Y038952D02*
X019202Y038952D01*
X019202Y038794D02*
X017377Y038794D01*
X018841Y039428D02*
X019202Y039428D01*
X019202Y039270D02*
X018939Y039270D01*
X018944Y039111D02*
X019202Y039111D01*
X018678Y040423D02*
X018801Y040474D01*
X018896Y040569D01*
X018947Y040692D01*
X018947Y040758D01*
X018612Y040758D01*
X018612Y040423D01*
X018678Y040423D01*
X018612Y040538D02*
X018611Y040538D01*
X018611Y040696D02*
X018612Y040696D01*
X018611Y040855D02*
X018612Y040855D01*
X018934Y040855D02*
X019202Y040855D01*
X019202Y040696D02*
X018947Y040696D01*
X018865Y040538D02*
X019202Y040538D01*
X018358Y040538D02*
X018077Y040538D01*
X018159Y040696D02*
X018277Y040696D01*
X018289Y040855D02*
X018147Y040855D01*
X019202Y041331D02*
X013100Y041331D01*
X013100Y041460D02*
X019202Y041460D01*
X019202Y035247D01*
X013100Y035247D01*
X013100Y041460D01*
X013100Y040855D02*
X013565Y040855D01*
X013552Y040696D02*
X013100Y040696D01*
X013100Y040538D02*
X013634Y040538D01*
X013562Y040062D02*
X013100Y040062D01*
X013100Y039904D02*
X013552Y039904D01*
X013639Y039745D02*
X013100Y039745D01*
X013887Y039745D02*
X013887Y039745D01*
X013887Y039904D02*
X013887Y039904D01*
X013888Y039971D02*
X013888Y039971D01*
X014222Y039971D01*
X014222Y040038D01*
X014222Y039971D02*
X013888Y039971D01*
X013887Y040062D02*
X013887Y040062D01*
X014222Y039971D02*
X014222Y039904D01*
X011919Y041331D02*
X005816Y041331D01*
X008769Y041096D02*
X008769Y040397D01*
X008769Y040397D01*
X008769Y041096D01*
X008769Y041014D02*
X008769Y041014D01*
X008769Y040855D02*
X008769Y040855D01*
X008769Y040696D02*
X008769Y040696D01*
X008769Y040538D02*
X008769Y040538D01*
X008769Y040396D02*
X008769Y040396D01*
X008769Y040379D02*
X008769Y040379D01*
X008769Y040221D02*
X008769Y040221D01*
X008769Y040062D02*
X008769Y040062D01*
X008769Y039904D02*
X008769Y039904D01*
X008769Y039745D02*
X008769Y039745D01*
X008538Y039745D02*
X008404Y039745D01*
X008563Y039587D02*
X009639Y039587D01*
X009639Y039428D02*
X008721Y039428D01*
X008880Y039270D02*
X009639Y039270D01*
X009725Y039111D02*
X009039Y039111D01*
X009197Y038952D02*
X009884Y038952D01*
X010399Y038952D02*
X010439Y038952D01*
X010439Y039111D02*
X010399Y039111D01*
X010399Y039270D02*
X010439Y039270D01*
X010439Y039428D02*
X010399Y039428D01*
X010399Y039587D02*
X010439Y039587D01*
X010439Y039745D02*
X010399Y039745D01*
X009789Y039745D02*
X009000Y039745D01*
X014138Y036257D02*
X014424Y036257D01*
X014391Y036224D02*
X014485Y036318D01*
X014608Y036369D01*
X014674Y036369D01*
X014674Y036034D01*
X014674Y036034D01*
X014340Y036034D01*
X014340Y036101D01*
X014391Y036224D01*
X014340Y036099D02*
X014222Y036099D01*
X014340Y036034D02*
X014340Y035967D01*
X014391Y035844D01*
X014485Y035750D01*
X014608Y035699D01*
X014674Y035699D01*
X014674Y036034D01*
X014340Y036034D01*
X014351Y035940D02*
X014211Y035940D01*
X014109Y035782D02*
X014453Y035782D01*
X014674Y035782D02*
X014675Y035782D01*
X014675Y035699D02*
X014675Y036034D01*
X015010Y036034D01*
X015010Y036101D01*
X014959Y036224D01*
X014864Y036318D01*
X014741Y036369D01*
X014675Y036369D01*
X014675Y036034D01*
X014675Y036034D01*
X015010Y036034D01*
X015010Y035967D01*
X014959Y035844D01*
X014864Y035750D01*
X014741Y035699D01*
X014675Y035699D01*
X014896Y035782D02*
X015241Y035782D01*
X015272Y035750D02*
X015395Y035699D01*
X015462Y035699D01*
X015529Y035699D01*
X015652Y035750D01*
X015746Y035844D01*
X015797Y035967D01*
X015797Y036034D01*
X015797Y036101D01*
X015746Y036224D01*
X015652Y036318D01*
X015529Y036369D01*
X015462Y036369D01*
X015395Y036369D01*
X015272Y036318D01*
X015178Y036224D01*
X015127Y036101D01*
X015127Y036034D01*
X015462Y036034D01*
X015462Y036034D01*
X015127Y036034D01*
X015127Y035967D01*
X015178Y035844D01*
X015272Y035750D01*
X015462Y035782D02*
X015462Y035782D01*
X015462Y035699D02*
X015462Y036034D01*
X015462Y036369D01*
X015462Y036034D01*
X015462Y036034D01*
X015797Y036034D01*
X015462Y036034D01*
X015462Y036034D01*
X015462Y036034D01*
X015462Y035699D01*
X015683Y035782D02*
X016028Y035782D01*
X016060Y035750D02*
X016183Y035699D01*
X016249Y035699D01*
X016249Y036034D01*
X016249Y036034D01*
X015914Y036034D01*
X015914Y036101D01*
X015965Y036224D01*
X016060Y036318D01*
X016183Y036369D01*
X016249Y036369D01*
X016249Y036034D01*
X015914Y036034D01*
X015914Y035967D01*
X015965Y035844D01*
X016060Y035750D01*
X016249Y035782D02*
X016250Y035782D01*
X016250Y035699D02*
X016250Y036034D01*
X016584Y036034D01*
X016584Y036101D01*
X016533Y036224D01*
X016439Y036318D01*
X016316Y036369D01*
X016250Y036369D01*
X016250Y036034D01*
X016250Y036034D01*
X016584Y036034D01*
X016584Y035967D01*
X016533Y035844D01*
X016439Y035750D01*
X016316Y035699D01*
X016250Y035699D01*
X016471Y035782D02*
X016815Y035782D01*
X016847Y035750D02*
X016970Y035699D01*
X017037Y035699D01*
X017103Y035699D01*
X017227Y035750D01*
X017321Y035844D01*
X017372Y035967D01*
X017372Y036034D01*
X017372Y036101D01*
X017321Y036224D01*
X017227Y036318D01*
X017103Y036369D01*
X017037Y036369D01*
X017037Y036034D01*
X017372Y036034D01*
X017037Y036034D01*
X017037Y036034D01*
X017037Y036034D01*
X017037Y035699D01*
X017037Y036034D01*
X017037Y036034D01*
X017037Y036369D01*
X016970Y036369D01*
X016847Y036318D01*
X016753Y036224D01*
X016702Y036101D01*
X016702Y036034D01*
X017036Y036034D01*
X017036Y036034D01*
X016702Y036034D01*
X016702Y035967D01*
X016753Y035844D01*
X016847Y035750D01*
X017037Y035782D02*
X017037Y035782D01*
X017037Y035940D02*
X017037Y035940D01*
X017037Y036099D02*
X017037Y036099D01*
X017037Y036257D02*
X017037Y036257D01*
X017287Y036257D02*
X017574Y036257D01*
X017540Y036224D02*
X017489Y036101D01*
X017489Y036034D01*
X017824Y036034D01*
X017824Y036034D01*
X017489Y036034D01*
X017489Y035967D01*
X017540Y035844D01*
X017634Y035750D01*
X017758Y035699D01*
X017824Y035699D01*
X017824Y036034D01*
X017824Y036369D01*
X017758Y036369D01*
X017634Y036318D01*
X017540Y036224D01*
X017489Y036099D02*
X017372Y036099D01*
X017361Y035940D02*
X017501Y035940D01*
X017603Y035782D02*
X017258Y035782D01*
X017824Y035782D02*
X017824Y035782D01*
X017824Y035699D02*
X017824Y036034D01*
X017824Y036034D01*
X017824Y036034D01*
X017824Y036369D01*
X017891Y036369D01*
X018014Y036318D01*
X018108Y036224D01*
X018159Y036101D01*
X018159Y036034D01*
X017825Y036034D01*
X017825Y036034D01*
X018159Y036034D01*
X018159Y035967D01*
X018108Y035844D01*
X018014Y035750D01*
X017891Y035699D01*
X017824Y035699D01*
X018046Y035782D02*
X018390Y035782D01*
X018288Y035940D02*
X018148Y035940D01*
X018159Y036099D02*
X018277Y036099D01*
X018361Y036257D02*
X018075Y036257D01*
X017824Y036257D02*
X017824Y036257D01*
X017824Y036099D02*
X017824Y036099D01*
X017824Y035940D02*
X017824Y035940D01*
X016786Y036257D02*
X016500Y036257D01*
X016584Y036099D02*
X016702Y036099D01*
X016713Y035940D02*
X016573Y035940D01*
X016250Y035940D02*
X016249Y035940D01*
X016249Y036034D02*
X016250Y036034D01*
X016249Y036034D01*
X016249Y036099D02*
X016250Y036099D01*
X016249Y036257D02*
X016250Y036257D01*
X015999Y036257D02*
X015713Y036257D01*
X015797Y036099D02*
X015914Y036099D01*
X015926Y035940D02*
X015786Y035940D01*
X015462Y035940D02*
X015462Y035940D01*
X015462Y036099D02*
X015462Y036099D01*
X015462Y036257D02*
X015462Y036257D01*
X015212Y036257D02*
X014925Y036257D01*
X015010Y036099D02*
X015127Y036099D01*
X015138Y035940D02*
X014998Y035940D01*
X014675Y035940D02*
X014674Y035940D01*
X014674Y036034D02*
X014675Y036034D01*
X014674Y036034D01*
X014674Y036099D02*
X014675Y036099D01*
X014674Y036257D02*
X014675Y036257D01*
X013100Y035623D02*
X019202Y035623D01*
X019202Y035465D02*
X013100Y035465D01*
X013100Y035306D02*
X019202Y035306D01*
X019202Y036733D02*
X018938Y036733D01*
X018945Y036891D02*
X019202Y036891D01*
X019202Y037050D02*
X018857Y037050D01*
D47*
X022520Y035959D02*
X022901Y036073D01*
X023881Y036073D01*
X022901Y035338D02*
X022520Y035459D01*
X022901Y035338D02*
X023461Y034778D01*
X023461Y029493D01*
X023181Y029213D01*
X023181Y029598D02*
X022866Y029598D01*
X022844Y029575D01*
X022647Y029575D02*
X022656Y029808D01*
X022656Y030333D01*
X021501Y030893D02*
X020482Y029874D01*
X020482Y029575D01*
X020285Y029575D02*
X020285Y030832D01*
X020311Y030858D01*
X020311Y031138D01*
X020311Y031103D01*
X020088Y030941D02*
X020066Y030963D01*
X020031Y030998D01*
X020031Y031383D01*
X020088Y030941D02*
X020088Y029575D01*
X019891Y029575D02*
X019891Y029283D01*
X019926Y029248D01*
X019926Y029073D01*
X019506Y028968D02*
X020031Y028443D01*
X020031Y027078D01*
X019751Y027288D02*
X019891Y027428D01*
X019891Y027533D01*
X019891Y028373D01*
X019051Y029213D01*
X018701Y029213D01*
X018526Y029388D01*
X018526Y030613D01*
X018526Y030648D01*
X020451Y032573D01*
X021081Y033798D02*
X004106Y033798D01*
X004106Y031943D01*
X003651Y031629D01*
X003651Y030129D02*
X004931Y030129D01*
X007047Y028012D01*
X007080Y027979D01*
X009238Y027979D01*
X007014Y026963D02*
X006997Y026979D01*
X005348Y028629D01*
X003651Y028629D01*
X007014Y026963D02*
X007014Y025276D01*
X007116Y023648D02*
X008936Y025468D01*
X010246Y025798D02*
X010393Y025945D01*
X010427Y025979D01*
X012238Y025979D01*
X013346Y025468D02*
X015306Y023508D01*
X015936Y023263D02*
X016286Y022913D01*
X015936Y023263D02*
X015936Y025643D01*
X015936Y025783D01*
X016076Y025923D01*
X017266Y025923D01*
X017441Y025748D01*
X017747Y025109D02*
X017616Y024978D01*
X017616Y024663D01*
X017441Y024488D01*
X016636Y024488D01*
X016643Y024488D01*
X016643Y024479D01*
X016643Y023479D02*
X017231Y023473D01*
X018771Y025013D01*
X018771Y025223D01*
X018689Y025306D01*
X018377Y025306D01*
X018377Y025109D02*
X017747Y025109D01*
X019051Y025118D02*
X019051Y024978D01*
X019104Y024926D01*
X019104Y024382D01*
X019301Y024382D02*
X019301Y025053D01*
X019331Y025083D01*
X019331Y026308D01*
X019331Y027288D02*
X019751Y027288D01*
X019611Y027603D02*
X019611Y028198D01*
X019354Y028455D01*
X018377Y028455D01*
X018377Y028258D02*
X017816Y028258D01*
X017791Y028233D01*
X017686Y028128D01*
X017686Y027603D01*
X017056Y026973D01*
X015936Y026973D01*
X015796Y026833D01*
X015796Y026658D01*
X015796Y026623D01*
X015796Y020358D01*
X016881Y019273D01*
X017161Y018993D01*
X018666Y018993D01*
X019576Y018993D01*
X019926Y018643D01*
X020031Y018538D01*
X020031Y014373D01*
X020031Y007968D01*
X019926Y007863D01*
X019926Y007058D01*
X022831Y004153D01*
X027801Y004153D01*
X027976Y004153D01*
X028186Y004363D01*
X028921Y003628D01*
X030216Y003628D01*
X039246Y003628D01*
X039386Y003768D01*
X039386Y003803D01*
X039386Y003873D01*
X039526Y004013D01*
X039386Y004153D01*
X039386Y005483D01*
X039526Y005623D01*
X039526Y010593D01*
X039631Y010698D01*
X039631Y012483D01*
X039631Y012553D01*
X039771Y012693D01*
X039876Y012693D01*
X039970Y012787D01*
X039970Y013140D01*
X040167Y013140D02*
X040167Y013453D01*
X039981Y013638D01*
X039981Y013778D01*
X039981Y015388D01*
X039981Y015458D01*
X040296Y015073D02*
X040296Y014373D01*
X040261Y014233D01*
X040364Y014131D01*
X040364Y013140D01*
X040560Y013140D02*
X040560Y012849D01*
X040576Y012833D01*
X040576Y012658D01*
X040576Y012623D01*
X040576Y011748D01*
X040576Y010068D01*
X042151Y008493D01*
X042151Y008878D02*
X040961Y010068D01*
X040954Y010075D01*
X040954Y013140D01*
X040954Y014555D01*
X040856Y014653D01*
X040926Y014583D01*
X040734Y014391D02*
X040716Y014373D01*
X040646Y014303D01*
X040757Y014192D01*
X040757Y013140D01*
X041151Y013140D02*
X041151Y018663D01*
X041136Y018678D01*
X040716Y019098D01*
X040436Y018818D02*
X040436Y017698D01*
X040576Y017558D01*
X040856Y018538D02*
X040856Y015353D01*
X040576Y015073D01*
X040576Y014548D01*
X040734Y014391D01*
X040751Y014373D01*
X041521Y013918D02*
X041661Y014058D01*
X041661Y018678D01*
X041801Y018433D02*
X042151Y018783D01*
X042151Y019693D01*
X042431Y019938D02*
X042431Y015003D01*
X041941Y014513D01*
X041941Y013358D01*
X041938Y013140D01*
X041938Y012200D01*
X041906Y012168D01*
X041871Y012133D01*
X041871Y011748D01*
X042151Y012028D02*
X042151Y012343D01*
X042135Y012359D01*
X042135Y013140D01*
X042332Y013140D02*
X042332Y013422D01*
X042256Y013498D01*
X042256Y013638D01*
X042256Y014408D01*
X042326Y014478D01*
X042396Y014548D01*
X042396Y014758D01*
X042571Y014933D01*
X042571Y020638D01*
X042431Y020778D01*
X042431Y021163D01*
X042711Y021443D02*
X042746Y021443D01*
X043201Y021443D01*
X043316Y021558D01*
X043316Y022353D01*
X043120Y022353D02*
X043120Y021956D01*
X042991Y021828D01*
X042571Y021828D01*
X042046Y021303D01*
X042851Y020743D02*
X042851Y015003D01*
X042641Y014793D01*
X042606Y014758D01*
X042606Y014198D01*
X042529Y014121D01*
X042529Y013140D01*
X042726Y013140D02*
X042726Y013478D01*
X042746Y013498D01*
X042816Y013568D01*
X042816Y013813D01*
X043096Y013743D02*
X043096Y013638D01*
X042923Y013465D01*
X042923Y013140D01*
X042921Y012938D01*
X042921Y010348D01*
X042711Y010138D01*
X042151Y010908D02*
X041206Y011853D01*
X041151Y011908D01*
X041101Y011958D01*
X041101Y012798D01*
X041151Y012848D01*
X041151Y013140D01*
X041348Y013140D02*
X041346Y012938D01*
X041346Y012833D01*
X041276Y012763D01*
X041276Y012553D01*
X041556Y012273D01*
X042431Y012588D02*
X042431Y006253D01*
X042151Y005973D01*
X042135Y005957D01*
X042135Y005384D01*
X042135Y004659D01*
X042256Y004538D01*
X042711Y004538D01*
X045240Y004538D01*
X045686Y004538D01*
X045966Y004818D01*
X045966Y006918D01*
X045966Y006988D01*
X045966Y007163D01*
X046172Y007369D01*
X046852Y007369D01*
X047852Y007369D02*
X048342Y007369D01*
X048591Y007618D01*
X048591Y013848D01*
X048591Y014178D01*
X048641Y014229D01*
X049536Y015123D01*
X049536Y019798D01*
X049676Y019938D01*
X049221Y019693D02*
X049221Y019588D01*
X049011Y019378D01*
X048731Y019378D01*
X048241Y019378D01*
X047926Y019063D01*
X047751Y018888D01*
X047734Y018906D01*
X047751Y018923D01*
X047751Y018461D01*
X047746Y018455D01*
X047734Y018906D02*
X047576Y019063D01*
X047436Y019063D01*
X047191Y018818D01*
X047191Y017523D01*
X048346Y017313D02*
X048346Y018958D01*
X048556Y019168D01*
X048801Y019168D01*
X048941Y019028D01*
X048941Y018470D01*
X048927Y018455D01*
X049676Y018223D02*
X049676Y018923D01*
X049886Y019133D01*
X050108Y018912D01*
X050108Y018455D01*
X049676Y018223D02*
X049676Y017173D01*
X049816Y017033D01*
X048346Y017313D02*
X047121Y016088D01*
X047261Y015528D02*
X046421Y016368D01*
X047261Y015528D02*
X047261Y013533D01*
X047261Y013323D01*
X047611Y012973D01*
X047852Y012733D01*
X047852Y012369D01*
X047261Y012763D02*
X047261Y004923D01*
X046852Y004369D02*
X046112Y004369D01*
X046001Y004258D01*
X045301Y004258D01*
X045282Y004258D01*
X040856Y004258D01*
X040611Y004258D01*
X040366Y004013D01*
X039526Y004013D01*
X040156Y004328D02*
X040156Y004678D01*
X040167Y004689D01*
X040167Y005384D01*
X040167Y006103D01*
X040156Y006113D01*
X040156Y007093D01*
X040226Y007163D01*
X040226Y010698D01*
X040296Y010768D01*
X040156Y011013D02*
X039666Y010523D01*
X039666Y005378D01*
X039970Y005384D02*
X039970Y005914D01*
X039946Y005938D01*
X039946Y008038D01*
X040786Y007758D02*
X041241Y007303D01*
X041346Y007198D01*
X041346Y006743D01*
X041346Y006323D01*
X040954Y005931D01*
X040954Y005384D01*
X040757Y005384D02*
X040757Y006119D01*
X040856Y006218D01*
X040856Y006638D01*
X040576Y006428D02*
X040576Y006918D01*
X040364Y006746D02*
X040331Y006778D01*
X040296Y006813D01*
X040296Y007023D01*
X040506Y007233D01*
X040506Y009228D01*
X039386Y009718D02*
X039246Y009858D01*
X039386Y009718D02*
X039386Y006533D01*
X038161Y005308D01*
X037881Y005588D02*
X038161Y005868D01*
X038161Y019378D01*
X039071Y019903D02*
X039211Y019763D01*
X039211Y011363D01*
X038826Y010978D01*
X038826Y008388D01*
X038546Y008668D02*
X038441Y008773D01*
X038441Y016648D01*
X038511Y016788D01*
X038511Y021443D01*
X039071Y022003D01*
X039351Y022423D02*
X039351Y011293D01*
X038966Y010908D01*
X038966Y009368D01*
X039106Y009228D01*
X037321Y009753D02*
X037321Y006113D01*
X036271Y005063D01*
X036271Y003908D01*
X036831Y004328D02*
X036831Y005413D01*
X037461Y006043D01*
X037461Y012798D01*
X037181Y013078D01*
X037181Y013498D01*
X037041Y013253D02*
X037041Y010033D01*
X037321Y009753D01*
X037181Y009683D02*
X037181Y008248D01*
X037041Y008108D01*
X035886Y008913D02*
X035081Y008108D01*
X034801Y008248D02*
X034801Y006288D01*
X035011Y006078D01*
X035046Y006078D01*
X036761Y006078D01*
X036971Y006288D01*
X037601Y005938D02*
X037111Y005448D01*
X037111Y005308D01*
X037111Y004923D02*
X037531Y005343D01*
X037531Y005623D01*
X037881Y005973D01*
X037881Y015458D01*
X037881Y016088D02*
X037181Y016788D01*
X037181Y025153D01*
X037181Y025716D01*
X037460Y025995D01*
X037460Y026339D01*
X037608Y026487D01*
X038149Y026487D01*
X039232Y026487D01*
X039281Y026536D01*
X039429Y026684D01*
X040807Y025306D01*
X040807Y025010D01*
X041496Y024321D01*
X042332Y024321D01*
X042332Y024125D02*
X042081Y024138D01*
X040751Y024138D01*
X040751Y024208D01*
X040471Y023928D02*
X040471Y025083D01*
X040118Y024814D02*
X040265Y024666D01*
X040265Y023928D01*
X040265Y023731D01*
X040462Y023534D01*
X042332Y023534D01*
X042332Y023928D02*
X042081Y023928D01*
X040471Y023928D01*
X040051Y024383D02*
X039911Y024523D01*
X040051Y024383D02*
X040051Y015983D01*
X040576Y015458D01*
X039771Y016718D02*
X039631Y016858D01*
X039631Y025818D01*
X039675Y026191D02*
X040068Y025798D01*
X040118Y025749D01*
X040118Y024814D01*
X039071Y024943D02*
X039071Y024523D01*
X039106Y024488D01*
X039071Y024523D01*
X039071Y024943D02*
X039004Y025010D01*
X038631Y025010D01*
X037962Y025010D02*
X037952Y025010D01*
X037657Y025010D01*
X037460Y025010D01*
X036621Y025258D02*
X036621Y025849D01*
X037146Y026374D01*
X037146Y035618D01*
X042396Y040868D01*
X053981Y040868D01*
X053981Y011468D01*
X052826Y010313D02*
X052651Y010138D01*
X052167Y010003D01*
X052896Y009438D02*
X051181Y009438D01*
X049991Y008248D01*
X049991Y005588D01*
X049772Y005369D01*
X047852Y005369D01*
X047852Y006369D02*
X048637Y006369D01*
X048871Y006603D01*
X048871Y007513D01*
X048871Y013778D01*
X050442Y014184D02*
X050516Y014478D01*
X050516Y022318D01*
X049886Y022948D01*
X049886Y023053D01*
X049781Y023158D01*
X049536Y023158D01*
X049501Y023123D01*
X049326Y023123D01*
X049046Y022843D02*
X049046Y022598D01*
X049025Y022353D01*
X048828Y022353D02*
X048836Y022108D01*
X048836Y020778D01*
X048941Y020673D01*
X048661Y020183D02*
X048661Y022108D01*
X048631Y022353D01*
X048434Y022353D02*
X048451Y022108D01*
X048451Y020008D01*
X048801Y019658D01*
X048801Y020043D02*
X048661Y020183D01*
X048206Y019833D02*
X048206Y022108D01*
X048238Y022353D01*
X048041Y022353D02*
X048031Y022108D01*
X048031Y020043D01*
X046946Y018958D01*
X046386Y019378D02*
X046001Y018993D01*
X046001Y011783D01*
X046326Y012369D02*
X046141Y012553D01*
X046141Y013253D01*
X046141Y018923D01*
X047436Y020218D01*
X047436Y022108D01*
X047450Y022353D01*
X047253Y022353D02*
X047226Y022108D01*
X047226Y021128D01*
X047156Y021058D01*
X046946Y021233D02*
X046841Y021128D01*
X046841Y020358D01*
X046456Y020358D02*
X046386Y020358D01*
X046386Y021968D01*
X046456Y022038D01*
X046456Y022108D01*
X046466Y022353D01*
X046860Y022353D02*
X046876Y022108D01*
X046876Y022038D01*
X046946Y021968D01*
X046946Y021233D01*
X046106Y020918D02*
X046106Y020743D01*
X044951Y019588D01*
X044951Y017838D01*
X044951Y015808D01*
X044951Y005063D01*
X044706Y004818D01*
X044426Y004678D02*
X044426Y017558D01*
X043936Y017943D02*
X043866Y018013D01*
X043866Y019938D01*
X044881Y020953D01*
X044881Y022108D01*
X044891Y022353D01*
X045088Y022353D02*
X045056Y022108D01*
X045056Y020743D01*
X044496Y020778D02*
X044496Y022108D01*
X044497Y022353D01*
X044301Y022353D02*
X044321Y022598D01*
X044321Y022843D01*
X044881Y023403D01*
X044076Y023403D02*
X044076Y022598D01*
X044104Y022353D01*
X043907Y022353D02*
X043901Y022598D01*
X043901Y023123D01*
X043411Y023123D01*
X040436Y020148D01*
X040436Y018818D01*
X041801Y018433D02*
X041801Y013813D01*
X041766Y013778D01*
X041742Y013754D01*
X041742Y013140D01*
X043096Y013743D02*
X043096Y020603D01*
X043236Y020743D01*
X043236Y020358D02*
X043691Y020813D01*
X043691Y022108D01*
X043710Y022353D01*
X043513Y022353D02*
X043516Y022598D01*
X043516Y022843D01*
X043096Y023228D02*
X040331Y020463D01*
X042291Y020078D02*
X042431Y019938D01*
X043236Y020358D02*
X043236Y009158D01*
X043166Y009158D01*
X043236Y009158D02*
X043236Y007163D01*
X042991Y006918D01*
X042726Y006694D02*
X042711Y006708D01*
X042711Y007513D01*
X043376Y007338D02*
X043376Y006918D01*
X043376Y007338D02*
X043446Y007408D01*
X043446Y019938D01*
X043831Y020323D01*
X043831Y021583D01*
X044111Y021863D01*
X045285Y021984D02*
X045285Y022353D01*
X045482Y022353D02*
X045476Y022598D01*
X045476Y022843D01*
X045679Y022353D02*
X045686Y022108D01*
X045686Y021023D01*
X045861Y021303D02*
X045861Y022108D01*
X045875Y022353D01*
X045336Y021933D02*
X045285Y021984D01*
X045336Y021933D02*
X045336Y021898D01*
X045336Y020183D01*
X044146Y018993D01*
X044146Y018118D02*
X044146Y004818D01*
X043131Y004818D01*
X043096Y004818D01*
X042923Y004992D01*
X042923Y005384D01*
X042726Y005384D02*
X042726Y006694D01*
X041941Y006148D02*
X041941Y005588D01*
X041938Y005384D01*
X041742Y005384D02*
X041742Y005053D01*
X041766Y005028D01*
X041766Y004818D01*
X041171Y004923D02*
X041171Y005098D01*
X041151Y005118D01*
X041151Y005384D01*
X041545Y005384D02*
X041556Y005588D01*
X041556Y005693D01*
X041626Y005763D01*
X041626Y007758D01*
X040364Y006746D02*
X040364Y005384D01*
X040560Y005384D02*
X040560Y006412D01*
X040576Y006428D01*
X042332Y005769D02*
X042332Y005384D01*
X042529Y005384D02*
X042536Y005168D01*
X042536Y005098D01*
X042956Y004678D01*
X044426Y004678D01*
X043936Y005798D02*
X043936Y017943D01*
X045231Y016648D02*
X045231Y012168D01*
X045231Y010523D01*
X045386Y010369D01*
X046852Y010369D01*
X046852Y012369D02*
X046326Y012369D01*
X047226Y012798D02*
X047261Y012763D01*
X046852Y013369D02*
X046516Y013369D01*
X046421Y013463D01*
X046421Y013883D01*
X046421Y013918D01*
X046421Y015248D01*
X050796Y014933D02*
X050796Y022248D01*
X050026Y023018D01*
X050026Y023053D01*
X050026Y023333D01*
X050131Y023438D01*
X050411Y023438D01*
X050512Y023337D01*
X050797Y023337D01*
X050797Y023534D02*
X051085Y023534D01*
X051181Y023438D01*
X051181Y023333D01*
X051181Y017978D01*
X051426Y017838D02*
X052581Y018993D01*
X052581Y025923D01*
X052581Y025958D01*
X052756Y026133D01*
X053701Y026133D01*
X054261Y026588D02*
X054331Y026658D01*
X054331Y034638D01*
X054331Y035303D01*
X055062Y036034D01*
X055679Y036034D01*
X056348Y036034D02*
X056785Y036034D01*
X056785Y036038D01*
X056781Y036038D01*
X056921Y036178D01*
X056921Y037298D01*
X057061Y037438D01*
X057691Y037438D01*
X059826Y037438D01*
X059861Y037438D01*
X060981Y037438D01*
X061121Y037298D01*
X061121Y036073D01*
X061121Y035541D01*
X060620Y035039D01*
X060001Y035163D02*
X060001Y035863D01*
X060071Y035933D01*
X059931Y036073D01*
X059931Y036108D01*
X060001Y036178D01*
X060001Y036843D01*
X060001Y036878D01*
X059861Y037018D01*
X059497Y037018D01*
X058828Y037018D02*
X057936Y037018D01*
X057831Y036913D01*
X057831Y036248D01*
X057831Y027953D01*
X058251Y027953D02*
X058251Y028303D01*
X058426Y028478D01*
X058426Y031313D01*
X058356Y031383D01*
X058356Y031768D01*
X058488Y031900D01*
X058828Y031900D01*
X059497Y031900D02*
X059888Y031900D01*
X060001Y032013D01*
X060001Y032783D01*
X059896Y032888D01*
X060001Y032993D01*
X060001Y034043D01*
X060097Y034139D01*
X060620Y034139D01*
X059888Y035050D02*
X059497Y035050D01*
X059888Y035050D02*
X060001Y035163D01*
X060071Y035933D02*
X060071Y035939D01*
X060100Y035939D01*
X060620Y035939D01*
X059931Y036108D02*
X059857Y036034D01*
X059497Y036034D01*
X058828Y036034D02*
X058212Y036034D01*
X058111Y035933D01*
X058111Y035548D01*
X058111Y035268D01*
X058041Y035198D01*
X058041Y034883D01*
X058111Y034813D01*
X058111Y033133D01*
X058006Y033028D01*
X058006Y032713D01*
X058111Y032608D01*
X058111Y031173D01*
X058340Y032884D02*
X058671Y032884D01*
X058828Y032884D01*
X059497Y032884D02*
X059511Y032884D01*
X059511Y032888D01*
X059896Y032888D01*
X062136Y033722D02*
X062136Y034603D01*
X062136Y037648D01*
X061996Y037788D01*
X061716Y037788D01*
X061681Y037788D01*
X056361Y037788D01*
X056348Y039380D02*
X057096Y039380D01*
X057293Y039577D01*
X057293Y040758D01*
X054261Y041008D02*
X054261Y035863D01*
X055029Y035050D02*
X055679Y035050D01*
X056348Y035050D02*
X056361Y035050D01*
X056361Y035058D01*
X056816Y035058D01*
X056921Y035163D01*
X056921Y035373D01*
X056921Y035898D01*
X056886Y035933D01*
X056785Y036034D01*
X056816Y035058D02*
X056921Y034953D01*
X056921Y034183D01*
X056804Y034066D01*
X056348Y034066D01*
X055679Y034066D02*
X055089Y034066D01*
X054891Y033868D01*
X054891Y033273D01*
X054891Y033238D01*
X054891Y029843D01*
X054611Y029563D01*
X055177Y030325D02*
X055423Y030325D01*
X055679Y030325D01*
X052581Y029283D02*
X052581Y036668D01*
X052301Y036178D02*
X052301Y028408D01*
X052196Y028303D01*
X052196Y027638D01*
X052029Y027471D01*
X050797Y027471D01*
X050797Y027274D02*
X051041Y027288D01*
X052301Y027288D01*
X052476Y027428D01*
X053561Y027148D02*
X053701Y027288D01*
X053701Y027323D01*
X053701Y038908D01*
X052231Y039363D02*
X050866Y040728D01*
X043971Y040728D01*
X043831Y040728D01*
X043730Y040627D01*
X043730Y040148D01*
X044045Y040148D02*
X044045Y039367D01*
X042256Y037578D01*
X042256Y037508D01*
X042256Y034113D01*
X042256Y033028D01*
X042851Y032433D01*
X042851Y030403D01*
X043224Y030030D01*
X044005Y030030D01*
X044104Y030129D01*
X044104Y030817D01*
X044301Y030817D02*
X044301Y031678D01*
X044881Y032258D01*
X044881Y034253D01*
X045301Y034673D01*
X045756Y034673D01*
X045791Y034673D01*
X045934Y034816D01*
X045934Y035857D01*
X045620Y035857D02*
X045620Y034956D01*
X045616Y034953D01*
X045476Y034813D01*
X045231Y034813D01*
X044811Y034393D01*
X044601Y034393D01*
X044251Y034393D01*
X043971Y034113D01*
X043971Y032398D01*
X043907Y032334D01*
X043907Y030817D01*
X043710Y030817D02*
X043710Y032491D01*
X043796Y032577D01*
X043796Y034288D01*
X043656Y034428D01*
X043201Y034428D01*
X042886Y034113D01*
X042606Y034113D01*
X042466Y034253D01*
X042466Y034359D01*
X042466Y035548D01*
X042470Y035857D01*
X042785Y035857D02*
X042785Y035167D01*
X042746Y035128D01*
X042746Y034358D01*
X042746Y034393D01*
X043026Y034673D02*
X043026Y034953D01*
X043100Y035027D01*
X043100Y035857D01*
X043415Y035857D02*
X043411Y035548D01*
X043411Y034743D01*
X043415Y034164D02*
X043218Y033967D01*
X043218Y033613D01*
X043218Y032943D02*
X043218Y032884D01*
X043218Y032589D01*
X043513Y032294D01*
X043513Y030817D01*
X044497Y030817D02*
X044496Y030578D01*
X044496Y030333D01*
X044694Y030817D02*
X044694Y031511D01*
X044706Y031523D01*
X045021Y031838D01*
X045021Y034183D01*
X045371Y034533D01*
X045896Y034533D01*
X046176Y034813D01*
X046249Y034886D01*
X046249Y035857D01*
X046564Y035857D02*
X046564Y034781D01*
X046176Y034393D01*
X046106Y034393D01*
X045476Y034393D01*
X045441Y034358D01*
X045161Y034078D01*
X045161Y033133D01*
X045161Y031593D01*
X045266Y031488D01*
X045266Y031068D01*
X045285Y030817D01*
X045482Y030817D02*
X045476Y031068D01*
X045476Y031768D01*
X045441Y031803D01*
X045441Y032293D01*
X045581Y032573D02*
X045791Y032363D01*
X045826Y032363D01*
X045826Y031908D01*
X045679Y031761D01*
X045679Y030817D01*
X045875Y030817D02*
X045861Y030578D01*
X045861Y030333D01*
X045756Y030228D01*
X045371Y030228D02*
X045371Y026518D01*
X042571Y026518D01*
X042332Y026487D01*
X042332Y026290D02*
X042571Y026308D01*
X047051Y026308D01*
X047051Y026658D01*
X047261Y026483D02*
X047436Y026658D01*
X047891Y026658D01*
X047891Y026588D01*
X047541Y026378D02*
X049291Y024628D01*
X049921Y024698D02*
X050271Y024348D01*
X050298Y024321D01*
X050797Y024321D01*
X050797Y024125D02*
X051440Y024125D01*
X051881Y023683D01*
X051881Y022843D01*
X052021Y022703D01*
X052126Y022598D01*
X052126Y022073D01*
X053316Y022703D02*
X053456Y022843D01*
X053316Y022703D02*
X053316Y009018D01*
X052791Y008493D01*
X052756Y008458D01*
X051181Y008458D01*
X050831Y008108D01*
X050831Y007478D01*
X050831Y007408D01*
X050831Y004608D01*
X050592Y004369D01*
X047852Y004369D01*
X043936Y005798D02*
X043236Y005098D01*
X042431Y005868D02*
X042332Y005769D01*
X043656Y007233D02*
X043726Y007303D01*
X043726Y020008D01*
X044496Y020778D01*
X045861Y021303D02*
X045966Y021303D01*
X046386Y020358D02*
X046386Y019378D01*
X048941Y019028D02*
X049081Y019168D01*
X049221Y019168D01*
X049396Y019343D01*
X049396Y019448D01*
X049396Y022108D01*
X049419Y022353D01*
X049222Y022353D02*
X049221Y022108D01*
X049221Y019693D01*
X049886Y019133D02*
X050026Y019273D01*
X050026Y022108D01*
X050009Y022353D01*
X049676Y021863D02*
X049676Y021233D01*
X049746Y021163D01*
X047716Y021863D02*
X047646Y021933D01*
X047646Y022108D01*
X047647Y022353D01*
X047057Y022353D02*
X047051Y022598D01*
X047051Y022843D01*
X048661Y022843D02*
X049571Y023753D01*
X049571Y025258D01*
X049589Y025276D01*
X046981Y027883D01*
X047856Y028163D02*
X050306Y025713D01*
X050320Y025699D01*
X050797Y025699D01*
X051160Y025699D01*
X051181Y025678D01*
X052441Y024418D01*
X052441Y019973D01*
X051461Y018993D01*
X051461Y019378D02*
X051741Y019658D01*
X051741Y023508D01*
X051321Y023928D01*
X051041Y023928D01*
X050797Y023928D01*
X050797Y023731D02*
X050551Y023753D01*
X049851Y023753D01*
X050797Y024518D02*
X051886Y024518D01*
X052161Y024243D01*
X052161Y024068D01*
X052161Y024033D01*
X052161Y023508D01*
X052721Y023928D02*
X052721Y017873D01*
X051566Y016718D01*
X051566Y016123D01*
X051566Y016018D01*
X051846Y015738D01*
X052756Y015738D01*
X052966Y015528D01*
X052966Y013568D01*
X052966Y013533D01*
X052966Y013113D01*
X052808Y012955D01*
X052167Y012955D01*
X051426Y011013D02*
X051289Y010985D01*
X051426Y010987D02*
X051426Y011013D01*
X052896Y009438D02*
X053176Y009718D01*
X053176Y024313D01*
X052861Y024068D02*
X052721Y023928D01*
X051461Y023403D02*
X051461Y019763D01*
X051426Y017838D02*
X051426Y015948D01*
X051181Y015703D01*
X051562Y008034D02*
X051426Y007898D01*
X051426Y007338D01*
X051562Y008034D02*
X052167Y008034D01*
X040156Y011013D02*
X040156Y011468D01*
X040156Y011748D01*
X040167Y011759D01*
X040167Y013140D01*
X038931Y013323D02*
X038931Y011818D01*
X038721Y011608D01*
X039351Y010908D02*
X039491Y011048D01*
X039491Y023228D01*
X039351Y023368D01*
X039211Y022563D02*
X039351Y022423D01*
X036901Y022388D02*
X036901Y013393D01*
X037041Y013253D01*
X036901Y013183D02*
X036901Y009963D01*
X037181Y009683D01*
X036901Y009578D02*
X036341Y010138D01*
X036341Y026098D01*
X035186Y025818D02*
X035186Y018258D01*
X035326Y018258D01*
X035186Y018258D02*
X035186Y013743D01*
X035606Y013778D02*
X034416Y012588D01*
X033436Y012588D01*
X033296Y012448D01*
X033296Y011223D01*
X033296Y010768D01*
X033471Y010593D01*
X033926Y010593D01*
X034906Y010593D01*
X035046Y010593D01*
X035186Y010453D01*
X035186Y009473D01*
X035050Y009337D01*
X034389Y009337D01*
X034389Y009837D02*
X033905Y009837D01*
X033541Y009473D01*
X032981Y008913D01*
X032981Y008038D01*
X032981Y006988D01*
X032859Y006695D01*
X032631Y007198D02*
X032771Y007338D01*
X032771Y008598D01*
X032771Y008983D01*
X033331Y009543D01*
X033331Y010033D01*
X033331Y010173D01*
X033495Y010337D01*
X034389Y010337D01*
X034389Y010837D02*
X034381Y010943D01*
X034381Y011223D01*
X034389Y011337D01*
X034389Y011837D02*
X034887Y011837D01*
X035237Y011837D01*
X035256Y011818D01*
X035396Y011678D01*
X035396Y009578D01*
X035396Y009123D01*
X035291Y009018D01*
X033969Y007695D01*
X033399Y007695D01*
X032316Y006918D02*
X032316Y006393D01*
X032106Y006183D01*
X031441Y006183D01*
X031231Y006393D01*
X031231Y007723D01*
X031231Y007688D01*
X031229Y007695D01*
X030776Y007933D02*
X030776Y007303D01*
X030679Y007206D01*
X030679Y006695D01*
X030496Y006288D02*
X030216Y006568D01*
X030216Y007058D01*
X030566Y007408D01*
X030566Y007898D01*
X030356Y008108D01*
X030111Y008108D01*
X029936Y008283D01*
X029936Y010068D01*
X029936Y014478D01*
X029936Y014548D01*
X029809Y014676D01*
X029143Y014676D01*
X029143Y014873D02*
X029911Y014873D01*
X030076Y015038D01*
X030076Y015388D01*
X030076Y015423D01*
X030076Y016998D01*
X030216Y017243D02*
X030356Y017103D01*
X030356Y014758D01*
X030321Y014723D01*
X030321Y014338D02*
X030321Y012868D01*
X030216Y012763D01*
X029656Y012763D02*
X029341Y012448D01*
X029341Y008948D01*
X028991Y009158D02*
X029201Y009368D01*
X029201Y012658D01*
X029201Y012973D01*
X029201Y013183D01*
X029061Y013323D01*
X028886Y013498D01*
X028256Y014128D01*
X028256Y014233D01*
X028256Y014548D01*
X027556Y015248D01*
X026978Y014600D02*
X026961Y014583D01*
X026856Y014478D01*
X026978Y014600D02*
X026978Y017629D01*
X027175Y017629D02*
X027171Y017383D01*
X027171Y014198D01*
X026961Y013883D02*
X028186Y013883D01*
X029061Y013043D01*
X029061Y009508D01*
X028746Y009193D01*
X028746Y008493D01*
X029061Y008178D01*
X029061Y007968D01*
X029049Y007695D01*
X028921Y007198D02*
X028466Y007653D01*
X028466Y009088D01*
X028186Y009368D01*
X028159Y009395D01*
X028159Y013101D01*
X028356Y013101D02*
X028356Y009584D01*
X028396Y009543D01*
X028501Y009438D01*
X028396Y009543D01*
X027836Y009543D02*
X027836Y012728D01*
X027765Y012799D01*
X027765Y013101D01*
X027568Y013101D02*
X027568Y012786D01*
X027661Y012693D01*
X027661Y012273D01*
X027661Y011293D01*
X027556Y011188D01*
X027276Y011748D02*
X027521Y011993D01*
X027521Y012133D01*
X027521Y012623D01*
X027416Y012728D01*
X027241Y012728D01*
X027175Y012795D01*
X027175Y013101D01*
X027371Y013101D02*
X027371Y013593D01*
X026961Y013883D02*
X026471Y014373D01*
X026471Y014898D01*
X026471Y015143D01*
X026296Y015318D01*
X026296Y017243D01*
X026387Y017334D01*
X026387Y017629D01*
X026190Y017629D02*
X026191Y017383D01*
X026191Y017348D01*
X026156Y017313D01*
X026156Y015073D01*
X025981Y015283D02*
X025994Y015295D01*
X025994Y017629D01*
X025797Y017629D02*
X025797Y017934D01*
X026051Y018188D01*
X026086Y018223D01*
X026961Y019098D01*
X027696Y018958D02*
X026856Y018118D01*
X026781Y018043D01*
X026781Y017629D01*
X027371Y017629D02*
X027371Y018093D01*
X027346Y018118D01*
X027765Y017629D02*
X027766Y017383D01*
X027766Y017313D01*
X027836Y017243D01*
X027836Y015878D01*
X028221Y016018D02*
X028348Y015892D01*
X028348Y015878D01*
X028361Y015878D01*
X028676Y015878D01*
X028698Y015857D01*
X029143Y015857D01*
X029143Y016054D02*
X028921Y016053D01*
X028676Y016053D01*
X028361Y016368D01*
X028361Y016543D01*
X028536Y016718D01*
X028536Y017628D01*
X029026Y018118D01*
X028431Y018188D02*
X028356Y018113D01*
X028356Y017629D01*
X028159Y017629D02*
X028159Y020541D01*
X028221Y020603D01*
X028921Y021303D01*
X029306Y021303D02*
X029306Y017278D01*
X029306Y017208D01*
X029516Y016998D01*
X029516Y016893D01*
X029464Y016841D01*
X029143Y016841D01*
X029143Y016644D02*
X029547Y016644D01*
X029656Y016753D01*
X029656Y017173D01*
X029586Y017243D01*
X029586Y017278D01*
X029586Y021408D01*
X028291Y022703D01*
X027976Y022983D02*
X027976Y022248D01*
X027962Y022234D01*
X027962Y017629D01*
X028431Y018188D02*
X028431Y018258D01*
X028431Y019658D01*
X030636Y018958D02*
X030741Y018853D01*
X030741Y008388D01*
X030321Y008388D02*
X030776Y007933D01*
X029796Y008108D02*
X029621Y007933D01*
X029621Y007443D01*
X030006Y007058D01*
X030006Y006358D01*
X030076Y006288D01*
X030496Y006288D02*
X030496Y006008D01*
X029599Y006695D02*
X029599Y007185D01*
X029481Y007303D01*
X029481Y008178D01*
X028991Y008668D01*
X028991Y009158D01*
X028186Y008668D02*
X027976Y008878D01*
X027976Y008913D01*
X027976Y012798D01*
X027962Y012812D01*
X027962Y013101D01*
X027241Y012448D02*
X027101Y012623D01*
X026978Y012782D01*
X026978Y013101D01*
X026781Y013101D02*
X026781Y012593D01*
X026786Y012588D01*
X026751Y012623D01*
X026191Y012868D02*
X026190Y013101D01*
X025994Y013101D02*
X025981Y013323D01*
X025981Y014653D01*
X025946Y014688D01*
X025666Y014968D02*
X025666Y013603D01*
X025386Y013568D02*
X025176Y013358D01*
X025176Y011188D01*
X025281Y011083D01*
X025281Y007373D01*
X025771Y006883D01*
X025771Y006638D01*
X027521Y004888D01*
X027801Y005343D02*
X028186Y004958D01*
X028186Y004363D01*
X027801Y005343D02*
X027801Y006113D01*
X027836Y006148D01*
X027836Y006883D01*
X027416Y007303D01*
X027416Y007758D01*
X027276Y007898D01*
X027276Y008983D01*
X027836Y009543D01*
X027556Y010628D02*
X026191Y011993D01*
X026191Y012868D01*
X025797Y013101D02*
X025797Y012423D01*
X025806Y012413D01*
X026051Y012168D01*
X026051Y011748D01*
X027171Y010628D01*
X026261Y010313D02*
X026261Y007373D01*
X026891Y006743D01*
X026891Y006603D01*
X028921Y006743D02*
X028921Y007198D01*
X028921Y006743D02*
X031616Y004048D01*
X031769Y006695D02*
X031721Y006918D01*
X031721Y008003D01*
X030881Y008913D01*
X030881Y009858D01*
X030881Y009998D01*
X030881Y012343D01*
X031546Y013008D01*
X031546Y013358D01*
X031546Y017278D01*
X031406Y017418D01*
X032036Y017418D02*
X033051Y016403D01*
X033179Y016276D01*
X033179Y015365D01*
X034179Y015365D02*
X034179Y016326D01*
X034066Y016438D01*
X033856Y016648D01*
X034906Y016333D02*
X034906Y015213D01*
X034906Y016333D02*
X033401Y017838D01*
X033296Y018293D02*
X032561Y017558D01*
X033296Y018293D02*
X033296Y018678D01*
X032421Y019938D02*
X034766Y017593D01*
X034766Y017558D01*
X035046Y017243D02*
X034871Y017068D01*
X035046Y017243D02*
X035046Y019028D01*
X031406Y022668D01*
X030216Y024033D02*
X030216Y017243D01*
X030356Y017313D02*
X030601Y017068D01*
X030601Y011328D01*
X030461Y011188D01*
X031301Y010768D02*
X031301Y010488D01*
X031452Y010337D01*
X031969Y010337D01*
X031969Y009837D02*
X032855Y009837D01*
X032981Y009963D01*
X032981Y010733D01*
X032981Y012028D01*
X032981Y012588D01*
X032841Y012728D01*
X032071Y012728D01*
X031931Y012868D01*
X031931Y013813D01*
X032316Y014198D01*
X032322Y014198D01*
X032322Y014204D01*
X031756Y013253D02*
X031756Y013218D01*
X031756Y012728D01*
X031896Y012588D01*
X032526Y012588D01*
X032666Y012448D01*
X032666Y012343D01*
X032666Y011853D01*
X032666Y010978D01*
X032525Y010837D01*
X031969Y010837D01*
X031969Y011337D02*
X031966Y011433D01*
X031966Y011713D01*
X031969Y011837D01*
X031969Y012337D02*
X031190Y012337D01*
X031021Y012168D01*
X031021Y009998D01*
X031021Y009123D01*
X031861Y008283D01*
X031861Y007373D01*
X032316Y006918D01*
X034801Y008248D02*
X035571Y009018D01*
X035571Y009438D01*
X035571Y011923D01*
X035186Y012308D01*
X035256Y012378D01*
X035746Y012868D01*
X035746Y021688D01*
X036061Y022003D01*
X035466Y021583D02*
X035466Y029633D01*
X035781Y029948D01*
X033716Y032328D02*
X031126Y029738D01*
X031126Y016158D01*
X031196Y016088D01*
X031196Y015143D02*
X031266Y015073D01*
X031266Y013813D01*
X030916Y013323D02*
X030916Y013008D01*
X031021Y012903D01*
X030916Y013323D02*
X030916Y027428D01*
X030461Y027883D01*
X029796Y027603D02*
X030846Y028653D01*
X031406Y029598D02*
X035186Y025818D01*
X035186Y026413D02*
X031686Y029913D01*
X029201Y030053D02*
X032736Y033588D01*
X033541Y033588D01*
X033927Y033709D01*
X033927Y034209D02*
X033541Y034113D01*
X033296Y033868D01*
X033927Y034709D02*
X034511Y034709D01*
X034655Y034853D01*
X034655Y037707D01*
X034557Y037806D01*
X030816Y037806D01*
X029931Y038691D01*
X029928Y038691D01*
X029928Y038684D01*
X028848Y038691D02*
X032330Y035209D01*
X033927Y035209D01*
X036061Y034743D02*
X042326Y041008D01*
X054261Y041008D01*
X052231Y039363D02*
X052231Y037123D01*
X052021Y036913D01*
X052021Y032048D01*
X051951Y031978D01*
X051671Y031873D02*
X051671Y033238D01*
X051391Y032398D02*
X051391Y036493D01*
X052091Y037193D01*
X052091Y039293D01*
X050796Y040588D01*
X046491Y040588D01*
X046351Y040588D01*
X046249Y040486D01*
X046249Y040148D01*
X045934Y040148D02*
X045934Y038205D01*
X046001Y038138D01*
X046631Y037508D01*
X046879Y037785D02*
X046911Y037753D01*
X046911Y036668D01*
X047509Y036945D02*
X047576Y036878D01*
X047576Y036598D01*
X047509Y036945D02*
X047509Y040148D01*
X047824Y040148D02*
X047824Y037715D01*
X047856Y037683D01*
X048311Y037228D01*
X049399Y038310D02*
X049431Y038278D01*
X050971Y036738D01*
X050971Y031418D01*
X051321Y031068D01*
X051881Y030823D02*
X051881Y029073D01*
X051881Y028793D01*
X051740Y028652D01*
X050797Y028652D01*
X050797Y028455D02*
X051333Y028455D01*
X051356Y028478D01*
X051636Y028478D01*
X051671Y028443D01*
X051986Y028443D01*
X051998Y028455D01*
X052161Y028618D01*
X052161Y028898D01*
X052161Y031383D01*
X051671Y031873D01*
X051601Y031733D02*
X051111Y032223D01*
X051111Y036983D01*
X049711Y038383D01*
X049399Y038310D02*
X049399Y040148D01*
X049714Y040148D02*
X049714Y038765D01*
X049746Y038733D01*
X050971Y037508D01*
X051251Y037228D02*
X051251Y038628D01*
X050411Y039468D01*
X050344Y039535D01*
X050344Y040148D01*
X048769Y040148D02*
X048769Y039640D01*
X048836Y039573D01*
X048836Y039258D01*
X048454Y038800D02*
X048521Y038733D01*
X050481Y036773D01*
X050344Y035857D02*
X050341Y035548D01*
X050341Y035198D01*
X050411Y035128D01*
X050411Y030823D01*
X050551Y030683D01*
X050271Y030403D02*
X050271Y034218D01*
X049466Y035023D01*
X049399Y035090D01*
X049399Y035857D01*
X049084Y035857D02*
X049084Y035446D01*
X048906Y035268D01*
X048556Y035268D01*
X048521Y035268D01*
X048241Y034988D01*
X048241Y034743D01*
X048241Y031068D01*
X048238Y030817D01*
X048434Y030817D02*
X048451Y031068D01*
X048451Y034568D01*
X048521Y034638D01*
X048836Y034953D02*
X048836Y031068D01*
X048828Y030817D01*
X048631Y030817D02*
X048626Y030578D01*
X048626Y030333D01*
X049011Y030333D02*
X046141Y027463D01*
X045091Y027673D02*
X045091Y028443D01*
X045091Y027673D02*
X042571Y027673D01*
X042332Y027668D01*
X042332Y027865D02*
X042081Y027848D01*
X041661Y027848D01*
X041941Y028163D02*
X040961Y028163D01*
X040961Y032083D01*
X040821Y032223D01*
X040541Y031173D02*
X040541Y035058D01*
X041801Y036318D01*
X041801Y035338D02*
X041941Y035198D01*
X041941Y030543D01*
X041976Y029913D02*
X041836Y029913D01*
X041976Y029913D02*
X041976Y029878D01*
X042011Y029843D01*
X042081Y029843D01*
X042332Y029833D01*
X042332Y029636D02*
X042081Y029633D01*
X041556Y029633D01*
X041556Y034183D01*
X041661Y034288D01*
X041661Y034953D01*
X041101Y034673D02*
X041101Y034288D01*
X041241Y034148D01*
X041241Y029073D01*
X042081Y029073D01*
X042332Y029046D01*
X042332Y029243D02*
X042571Y029213D01*
X042816Y029213D01*
X042816Y029108D01*
X043096Y029388D02*
X043096Y028093D01*
X042571Y028093D01*
X042332Y028062D01*
X042332Y028258D02*
X042081Y028233D01*
X042011Y028233D01*
X041941Y028163D01*
X042081Y028863D02*
X041101Y028863D01*
X041101Y034078D01*
X040821Y034358D01*
X040821Y034953D01*
X040121Y035023D02*
X040121Y028583D01*
X040121Y027568D01*
X040961Y026728D01*
X040961Y025783D01*
X041636Y025109D01*
X042332Y025109D01*
X042332Y024912D02*
X042571Y024908D01*
X043096Y024908D01*
X043096Y023228D01*
X042816Y024488D02*
X042571Y024488D01*
X042332Y024518D01*
X042332Y024715D02*
X042081Y024698D01*
X041626Y024698D01*
X042332Y025699D02*
X042571Y025678D01*
X046421Y025678D01*
X046421Y025538D01*
X046701Y025433D02*
X046701Y025888D01*
X042571Y025888D01*
X042332Y025896D01*
X042332Y026093D02*
X042571Y026063D01*
X046981Y026063D01*
X046981Y025538D01*
X046701Y025433D02*
X046876Y025258D01*
X047261Y025258D01*
X047261Y026483D01*
X049151Y026098D02*
X049921Y025328D01*
X049944Y025306D01*
X050797Y025306D01*
X050797Y025503D02*
X050551Y025503D01*
X050306Y025503D01*
X049991Y025818D01*
X049816Y025818D01*
X049589Y025276D02*
X049746Y025118D01*
X050551Y025118D01*
X050797Y025109D01*
X050797Y025896D02*
X051908Y025896D01*
X051986Y025818D01*
X052301Y025818D01*
X052446Y026093D02*
X052581Y025958D01*
X052446Y026093D02*
X050797Y026093D01*
X050797Y027077D02*
X051041Y027078D01*
X051111Y027078D01*
X051181Y027148D01*
X053561Y027148D01*
X055171Y026290D02*
X055171Y026133D01*
X055171Y026290D02*
X055177Y026290D01*
X055275Y026388D01*
X055679Y026388D01*
X055241Y025853D02*
X059169Y025853D01*
X059360Y026044D01*
X059366Y026044D01*
X059366Y026050D01*
X059371Y026050D01*
X059371Y028548D01*
X059371Y029703D01*
X060281Y030613D01*
X061961Y030613D01*
X063011Y031663D01*
X063011Y033747D01*
X062620Y034139D01*
X062136Y033722D02*
X062620Y033239D01*
X058828Y035050D02*
X058671Y035058D01*
X058340Y035050D01*
X051601Y031733D02*
X051601Y029493D01*
X051601Y029458D01*
X051601Y029178D01*
X051469Y029046D01*
X050797Y029046D01*
X050797Y028849D02*
X050075Y028849D01*
X049921Y029003D01*
X049921Y029143D01*
X049921Y030053D01*
X050271Y030403D01*
X050009Y030817D02*
X050009Y031365D01*
X049991Y031383D01*
X049991Y031628D01*
X049606Y031068D02*
X049616Y030817D01*
X049419Y030817D02*
X049419Y030496D01*
X049396Y030473D01*
X049396Y030333D01*
X049011Y030333D02*
X049011Y030578D01*
X049025Y030817D01*
X049222Y030817D02*
X049221Y031068D01*
X049221Y032608D01*
X049186Y032643D01*
X049186Y034183D01*
X049781Y035093D02*
X050131Y034743D01*
X049781Y035093D02*
X049714Y035160D01*
X049714Y035857D01*
X050621Y035303D02*
X050621Y032748D01*
X050691Y032678D01*
X049606Y032713D02*
X049616Y032943D01*
X049606Y032713D02*
X049606Y031068D01*
X049641Y029773D02*
X049641Y027918D01*
X049641Y027848D01*
X049821Y027668D01*
X050797Y027668D01*
X050797Y028258D02*
X051156Y028258D01*
X051216Y028198D01*
X051461Y028198D01*
X051496Y028198D01*
X051321Y029668D02*
X051146Y029668D01*
X051114Y029636D01*
X050797Y029636D01*
X047844Y030817D02*
X047856Y031068D01*
X047856Y034603D01*
X047926Y034673D01*
X047646Y034778D02*
X047646Y034883D01*
X047856Y035093D01*
X048066Y035093D01*
X048454Y035481D01*
X048454Y035857D01*
X047509Y035857D02*
X047509Y035551D01*
X047366Y035408D01*
X047366Y035338D01*
X047366Y032818D01*
X047086Y032538D01*
X047086Y031628D01*
X047121Y031593D01*
X047121Y031173D01*
X047057Y031108D01*
X047057Y030817D01*
X047253Y030817D02*
X047253Y030516D01*
X047261Y030508D01*
X047261Y030333D01*
X047450Y030529D02*
X047450Y030817D01*
X047647Y030817D02*
X047646Y031068D01*
X047646Y034778D01*
X047506Y035163D02*
X047646Y035303D01*
X047506Y035163D02*
X047506Y031978D01*
X047366Y031838D01*
X046417Y032097D02*
X046417Y031359D01*
X046614Y031162D01*
X046663Y031113D01*
X046663Y030817D01*
X046072Y030817D02*
X046071Y031068D01*
X046071Y032363D01*
X046141Y032433D01*
X046141Y033938D01*
X046456Y034253D01*
X046911Y034708D01*
X047194Y034991D01*
X047194Y035857D01*
X046879Y035857D02*
X046879Y034886D01*
X046771Y034778D01*
X046001Y034008D01*
X046001Y032503D01*
X045861Y032363D01*
X045826Y032363D01*
X045581Y032573D02*
X045581Y032923D01*
X045580Y032923D01*
X045580Y032943D01*
X044399Y032943D02*
X044399Y032441D01*
X044986Y031313D02*
X045088Y031211D01*
X045088Y030817D01*
X047450Y030529D02*
X047646Y030333D01*
X042571Y030753D02*
X042081Y031243D01*
X042081Y038838D01*
X042711Y039468D01*
X042785Y039542D01*
X042785Y040148D01*
X043100Y040148D02*
X043100Y040585D01*
X043026Y040658D01*
X042396Y040658D01*
X042326Y040588D01*
X040401Y038663D01*
X040401Y028513D01*
X041171Y027743D01*
X041171Y027568D01*
X041556Y027183D01*
X039675Y026191D02*
X039429Y026191D01*
X039232Y025995D01*
X038631Y025995D01*
X037962Y025995D02*
X037952Y025995D01*
X037460Y025995D01*
X039429Y026684D02*
X039429Y027225D01*
X039316Y027337D01*
X039316Y027603D01*
X041381Y029458D02*
X041381Y034393D01*
X044111Y035303D02*
X044360Y035552D01*
X044360Y035857D01*
X044675Y035857D02*
X044675Y035482D01*
X044671Y035443D01*
X044531Y035303D01*
X044776Y035198D02*
X044776Y034848D01*
X044636Y034708D01*
X044461Y034708D01*
X044391Y034708D01*
X044776Y035198D02*
X044990Y035412D01*
X044990Y035857D01*
X045305Y035857D02*
X045305Y035271D01*
X045231Y035198D01*
X045056Y035023D01*
X045056Y036423D02*
X045056Y037613D01*
X044990Y037680D01*
X044990Y040148D01*
X045305Y040148D02*
X045305Y036980D01*
X045371Y036913D01*
X045581Y036703D01*
X045686Y036983D02*
X045620Y037050D01*
X045620Y040148D01*
X044675Y040148D02*
X044675Y037330D01*
X044776Y037228D01*
X044741Y037263D01*
X045686Y036983D02*
X046246Y036423D01*
X046879Y037785D02*
X046879Y040148D01*
X048454Y040148D02*
X048454Y038800D01*
X044360Y038877D02*
X044286Y038803D01*
X042991Y037508D01*
X044360Y038877D02*
X044360Y040148D01*
X036061Y034743D02*
X036061Y023473D01*
X035746Y023158D01*
X036621Y022668D02*
X036901Y022388D01*
X034906Y023823D02*
X034906Y020743D01*
X035466Y019238D02*
X035606Y019098D01*
X035606Y013778D01*
X036621Y013463D02*
X036901Y013183D01*
X037461Y013183D02*
X037601Y013043D01*
X037601Y005938D01*
X035886Y008913D02*
X035886Y018398D01*
X036026Y018538D01*
X031756Y018328D02*
X031756Y013253D01*
X029796Y013918D02*
X029796Y008108D01*
X026261Y010313D02*
X025316Y011258D01*
X025316Y012168D01*
X025351Y012203D01*
X025403Y012255D01*
X025403Y013101D01*
X025600Y013101D02*
X025600Y012277D01*
X025596Y012273D01*
X025596Y012063D01*
X025596Y012028D01*
X024721Y012658D02*
X024721Y010383D01*
X025001Y010978D02*
X025001Y013708D01*
X025001Y013813D01*
X024926Y013888D01*
X024616Y013888D01*
X024616Y014085D02*
X025098Y014085D01*
X025106Y014093D01*
X024616Y014282D02*
X024315Y014282D01*
X024196Y014163D01*
X024196Y013218D01*
X024196Y013183D01*
X024196Y012133D01*
X024196Y011783D01*
X024336Y011643D01*
X024336Y011328D01*
X024231Y011223D01*
X024231Y007338D01*
X024266Y007303D01*
X024651Y006918D01*
X024651Y005168D01*
X023531Y005658D02*
X023531Y006883D01*
X023531Y007095D01*
X023631Y007195D01*
X023631Y007688D01*
X023631Y007695D01*
X023619Y007695D01*
X023090Y007737D02*
X023090Y008052D01*
X023601Y008563D01*
X023601Y011573D01*
X023671Y011643D01*
X023671Y014023D01*
X023671Y014758D01*
X023786Y014873D01*
X024616Y014873D01*
X024616Y015069D02*
X023535Y015069D01*
X023391Y015213D01*
X023391Y015388D01*
X023391Y015423D01*
X023391Y018258D01*
X023181Y018258D01*
X023391Y018258D02*
X023391Y021408D01*
X021886Y022913D01*
X021466Y022738D02*
X021466Y019133D01*
X021186Y018853D01*
X021186Y017943D01*
X021466Y017663D01*
X021466Y013183D01*
X022201Y012448D01*
X022691Y011993D02*
X022761Y011923D01*
X022761Y010418D01*
X022621Y010278D01*
X022726Y009998D02*
X022236Y009998D01*
X021958Y009991D01*
X021958Y010276D01*
X021851Y010383D01*
X021501Y010383D01*
X021466Y010383D01*
X020974Y009321D02*
X020974Y008916D01*
X021081Y008808D01*
X021851Y008808D01*
X021956Y008913D01*
X021956Y009298D01*
X021958Y009298D01*
X021958Y009321D01*
X022726Y009998D02*
X022901Y010173D01*
X022901Y014233D01*
X022831Y014303D01*
X022831Y016963D01*
X022901Y017033D01*
X022901Y019448D01*
X023111Y019658D01*
X022621Y019378D02*
X022586Y019378D01*
X022131Y019378D01*
X022026Y019273D01*
X021466Y018713D01*
X021466Y018643D01*
X021466Y018153D01*
X021676Y017943D01*
X022096Y017523D01*
X022096Y014093D01*
X020941Y014268D02*
X020556Y013883D01*
X020556Y009018D01*
X020766Y008808D01*
X020871Y008703D01*
X020871Y007443D01*
X020871Y007408D01*
X021081Y007198D01*
X021396Y007198D01*
X022032Y007198D01*
X022529Y007695D01*
X022746Y007195D02*
X022549Y006999D01*
X022549Y006113D01*
X023111Y005238D02*
X023531Y005658D01*
X023111Y005238D02*
X023111Y004433D01*
X023741Y004433D02*
X023741Y006988D01*
X024056Y007303D01*
X024056Y011258D01*
X024161Y011363D01*
X024161Y011573D01*
X024021Y011713D01*
X024021Y013638D01*
X024021Y014338D01*
X024162Y014479D01*
X024616Y014479D01*
X024616Y014676D02*
X024009Y014676D01*
X023881Y014548D01*
X023881Y013813D01*
X023881Y011468D01*
X022691Y011993D02*
X022691Y018048D01*
X022621Y018118D01*
X022481Y017768D02*
X022481Y011818D01*
X022481Y011433D02*
X020836Y013078D01*
X019856Y013253D02*
X019506Y012903D01*
X019506Y008318D01*
X019506Y006848D01*
X020359Y007695D02*
X020346Y007968D01*
X020346Y014058D01*
X019856Y013253D02*
X019856Y018433D01*
X019506Y018783D01*
X016846Y018783D01*
X015586Y020043D01*
X015586Y022003D01*
X015586Y022038D01*
X015586Y028758D01*
X015586Y028863D01*
X015761Y029038D01*
X018701Y029038D01*
X018771Y028968D01*
X019016Y028723D01*
X019156Y028723D01*
X019497Y028977D02*
X019506Y028968D01*
X019497Y028977D02*
X019497Y029575D01*
X019301Y029575D02*
X019301Y029909D01*
X019296Y029913D01*
X019296Y030088D01*
X019716Y030088D02*
X019716Y029913D01*
X019694Y029891D01*
X019694Y029575D01*
X019104Y029575D02*
X019051Y029598D01*
X018806Y029598D01*
X018377Y028849D02*
X017777Y028849D01*
X017406Y028478D01*
X016671Y028478D01*
X016671Y028479D01*
X016643Y028479D01*
X017511Y028373D02*
X017791Y028653D01*
X018351Y028653D01*
X018351Y028652D01*
X018377Y028652D01*
X018876Y028163D02*
X018876Y027883D01*
X018631Y027883D01*
X018377Y027865D01*
X018377Y027668D02*
X018951Y027668D01*
X019331Y027288D01*
X018377Y027274D02*
X017987Y027274D01*
X017966Y027253D01*
X017721Y027253D01*
X017352Y027479D02*
X016643Y027479D01*
X017352Y027479D02*
X017511Y027638D01*
X017511Y028373D01*
X013801Y027918D02*
X013066Y027183D01*
X013066Y023543D01*
X014886Y021723D01*
X016076Y020463D02*
X019576Y020463D01*
X019694Y020581D01*
X019694Y024382D01*
X020482Y024382D02*
X020482Y022034D01*
X020451Y022003D01*
X020451Y021723D01*
X021186Y022633D02*
X020696Y023123D01*
X020679Y023141D01*
X020679Y024382D01*
X020875Y024382D02*
X020875Y023329D01*
X020906Y023298D01*
X021466Y022738D01*
X021606Y023893D02*
X021606Y020393D01*
X022621Y019378D01*
X021886Y018363D02*
X022481Y017768D01*
X023111Y016858D02*
X023111Y009508D01*
X021571Y007968D01*
X021449Y007695D01*
X022746Y007195D02*
X023090Y007540D01*
X023090Y007737D01*
X023321Y009333D02*
X023321Y012308D01*
X023391Y012378D01*
X025386Y013568D02*
X025386Y015458D01*
X025386Y015528D01*
X025254Y015660D01*
X024616Y015660D01*
X024616Y015463D02*
X023666Y015463D01*
X023531Y015598D01*
X023531Y015703D01*
X023531Y023333D01*
X023566Y023753D02*
X023461Y023858D01*
X022866Y023858D01*
X022647Y024077D01*
X022647Y024382D01*
X022450Y024382D02*
X022446Y024138D01*
X022446Y023893D01*
X022844Y024382D02*
X022844Y024781D01*
X022901Y024838D01*
X022901Y025258D01*
X023181Y025223D02*
X023181Y025013D01*
X024721Y023473D01*
X025305Y023479D01*
X026016Y023298D02*
X026016Y023158D01*
X025876Y023018D01*
X024301Y023018D01*
X023566Y023753D01*
X024196Y024278D02*
X024021Y024453D01*
X024021Y024488D01*
X024021Y025013D01*
X023926Y025109D01*
X023570Y025109D01*
X023570Y025306D02*
X023264Y025306D01*
X023181Y025223D01*
X023041Y025678D02*
X022761Y025678D01*
X022747Y025678D01*
X022747Y025664D01*
X022621Y025538D01*
X022621Y024978D01*
X021851Y025013D02*
X021851Y028828D01*
X022450Y028159D02*
X022450Y029575D01*
X023076Y028653D02*
X023274Y028455D01*
X023570Y028455D01*
X023570Y028258D02*
X023976Y028258D01*
X024021Y028303D01*
X024196Y028303D01*
X024231Y028303D01*
X024263Y027992D02*
X024263Y027988D01*
X024266Y027988D01*
X024021Y027988D01*
X023948Y028062D01*
X023570Y028062D01*
X023570Y027865D02*
X022990Y027865D01*
X022901Y027953D01*
X022901Y028303D01*
X022901Y028268D01*
X022621Y027988D02*
X022481Y028128D01*
X022450Y028159D01*
X022131Y027673D02*
X023321Y027673D01*
X023570Y027668D01*
X023570Y027471D02*
X023943Y027471D01*
X024091Y027323D01*
X024091Y026868D01*
X024266Y026693D01*
X024616Y026693D01*
X024896Y026973D01*
X025281Y026973D01*
X026016Y026973D01*
X026366Y027323D01*
X027101Y027988D02*
X028186Y026903D01*
X028186Y024978D01*
X028186Y023193D01*
X028151Y023158D01*
X027976Y022983D01*
X027696Y023053D02*
X027906Y023263D01*
X027906Y023298D01*
X027906Y023718D01*
X027795Y023829D01*
X027411Y023829D01*
X026742Y023829D02*
X026395Y023829D01*
X026296Y023928D01*
X026296Y024243D01*
X026296Y024278D01*
X026391Y024814D02*
X026226Y024978D01*
X026391Y024814D02*
X026742Y024814D01*
X027411Y024814D02*
X027777Y024814D01*
X027906Y024943D01*
X027906Y025083D01*
X027781Y025798D02*
X027411Y025798D01*
X027781Y025798D02*
X027906Y025923D01*
X027906Y026063D01*
X026742Y025798D02*
X026317Y025798D01*
X026226Y025888D01*
X026226Y026063D01*
X026016Y025748D02*
X025771Y025993D01*
X025631Y025993D01*
X025491Y025993D01*
X025305Y026180D01*
X025305Y026479D01*
X024616Y026098D02*
X023811Y026098D01*
X023570Y026093D01*
X023570Y025896D02*
X023978Y025896D01*
X024056Y025818D01*
X024162Y025503D02*
X023570Y025503D01*
X023570Y025699D02*
X023167Y025699D01*
X023062Y025699D01*
X023041Y025678D01*
X022901Y025958D02*
X023216Y026273D01*
X023233Y026290D01*
X023570Y026290D01*
X023570Y026684D02*
X023321Y026693D01*
X023216Y026693D01*
X023146Y026763D01*
X022376Y026763D01*
X022131Y027078D02*
X022131Y027358D01*
X023146Y027358D01*
X023181Y027358D01*
X023265Y027274D01*
X023570Y027274D01*
X024371Y026973D02*
X024371Y026938D01*
X024371Y027883D01*
X024266Y027988D01*
X024263Y027992D01*
X024546Y028408D02*
X024546Y027568D01*
X024635Y027479D01*
X025305Y027479D01*
X025305Y028479D02*
X024685Y028479D01*
X024651Y028513D01*
X024315Y028849D01*
X023570Y028849D01*
X023566Y028653D02*
X024266Y028653D01*
X024546Y028408D01*
X023570Y028652D02*
X023566Y028652D01*
X023566Y028653D01*
X026646Y028898D02*
X029516Y026028D01*
X029516Y026413D02*
X029516Y027883D01*
X026086Y031313D01*
X028395Y033081D02*
X028454Y033081D01*
X029143Y033081D01*
X029340Y033278D01*
X029340Y033573D01*
X029476Y033709D01*
X030067Y033709D01*
X030067Y034209D02*
X029385Y034209D01*
X029143Y033967D01*
X028454Y033967D01*
X028395Y033967D01*
X027726Y033967D02*
X027273Y033967D01*
X027175Y034066D01*
X027175Y034361D01*
X027273Y034459D01*
X029045Y034459D01*
X029242Y034656D01*
X029295Y034709D01*
X030067Y034709D01*
X030067Y035209D02*
X029303Y035209D01*
X029045Y034951D01*
X028454Y034951D01*
X028395Y034951D01*
X027726Y034951D02*
X026978Y034951D01*
X026879Y035050D01*
X026879Y036231D01*
X026978Y036329D01*
X029143Y036329D01*
X029242Y036231D01*
X030029Y036231D01*
X030029Y036209D01*
X030067Y036209D01*
X030067Y035709D02*
X029173Y035709D01*
X029045Y035837D01*
X028356Y035837D01*
X028395Y035837D01*
X028848Y038684D02*
X028848Y038691D01*
X022520Y034959D02*
X022131Y034848D01*
X021081Y033798D01*
X029796Y027603D02*
X029796Y017278D01*
X029796Y016403D01*
X029644Y016251D01*
X029143Y016251D01*
X029796Y015948D02*
X029796Y015773D01*
X029683Y015660D01*
X029143Y015660D01*
X029143Y015463D02*
X029581Y015463D01*
X029656Y015388D01*
X029143Y015266D02*
X028833Y015266D01*
X028501Y015598D01*
X028501Y015143D02*
X028711Y015143D01*
X028785Y015069D01*
X029143Y015069D01*
X029143Y014479D02*
X029585Y014479D01*
X029656Y014408D01*
X029629Y014085D02*
X029143Y014085D01*
X029143Y013888D02*
X029546Y013888D01*
X029656Y013778D01*
X029656Y012763D01*
X029796Y013918D02*
X029629Y014085D01*
X028501Y015143D02*
X028466Y015143D01*
X028221Y016018D02*
X028221Y016053D01*
X028221Y017138D01*
X030356Y017313D02*
X030356Y026763D01*
X030076Y027043D01*
X031406Y027323D02*
X034906Y023823D01*
X030216Y024033D02*
X030076Y024173D01*
X027696Y023053D02*
X027696Y022423D01*
X027346Y023158D02*
X024686Y020498D01*
X024686Y018083D01*
X024231Y017628D01*
X024231Y016543D01*
X024231Y016508D01*
X024231Y016333D01*
X024314Y016251D01*
X024616Y016251D01*
X024616Y016447D02*
X025570Y016447D01*
X025701Y016578D01*
X025701Y016648D01*
X025701Y016998D01*
X025141Y017103D02*
X025106Y017138D01*
X025106Y017278D01*
X025141Y017103D02*
X025141Y016753D01*
X025032Y016644D01*
X024616Y016644D01*
X024616Y016841D02*
X024949Y016841D01*
X025001Y016893D01*
X025001Y016998D01*
X024826Y017173D01*
X024826Y018083D01*
X024826Y018118D01*
X024966Y018258D01*
X025421Y018328D02*
X025421Y018118D01*
X025403Y018100D01*
X025403Y017629D01*
X025600Y017629D02*
X025600Y018122D01*
X025631Y018153D01*
X025876Y018398D01*
X024406Y018013D02*
X024406Y020218D01*
X024406Y018013D02*
X023811Y017418D01*
X023951Y016718D02*
X023951Y016053D01*
X023951Y015983D01*
X024078Y015857D01*
X024616Y015857D01*
X025666Y014968D02*
X025981Y015283D01*
X027381Y011853D02*
X027276Y011748D01*
X031756Y018328D02*
X031406Y018678D01*
X026016Y023298D02*
X026016Y024768D01*
X025946Y024838D01*
X025946Y025223D01*
X026016Y025293D01*
X026016Y025748D01*
X024301Y025363D02*
X024301Y024558D01*
X024231Y024278D02*
X024476Y024278D01*
X024677Y024479D01*
X025305Y024479D01*
X024231Y024278D02*
X024196Y024278D01*
X024301Y025363D02*
X024162Y025503D01*
X019051Y025188D02*
X019051Y025153D01*
X019051Y025118D01*
X013346Y025468D02*
X013346Y026763D01*
X012238Y024979D02*
X010903Y024979D01*
X010885Y024961D01*
X010738Y024814D01*
X010738Y022599D01*
X010238Y022099D01*
X010238Y021270D01*
X009238Y021270D02*
X009238Y022132D01*
X009507Y022402D01*
X009950Y022402D01*
X010246Y022697D01*
X010246Y025798D01*
X011377Y023977D02*
X012263Y023977D01*
X012263Y023979D01*
X012238Y023979D01*
X011377Y023977D02*
X011238Y023837D01*
X011238Y021270D01*
X012238Y021270D02*
X012238Y022972D01*
X012226Y022983D01*
X012226Y022979D01*
X012238Y022979D01*
X007116Y023543D02*
X007014Y023276D01*
X007116Y023543D02*
X007116Y023648D01*
X004340Y018416D02*
X003553Y018416D01*
X003454Y018317D01*
X003454Y017825D01*
X004438Y017530D02*
X004438Y018317D01*
X004340Y018416D01*
X004438Y017530D02*
X004438Y017471D01*
X005816Y016841D02*
X005816Y015562D01*
X005620Y015365D01*
X003651Y015365D01*
X003454Y015168D01*
X003454Y014479D01*
X004635Y013455D02*
X004635Y013396D01*
X004635Y012609D01*
X004537Y012510D01*
X003553Y012510D01*
X003454Y012609D01*
X003454Y013101D01*
X005816Y016840D02*
X005821Y016840D01*
X005816Y016841D02*
X005816Y016840D01*
X009286Y010523D02*
X010616Y010523D01*
X010738Y010402D01*
X010738Y009991D01*
X010738Y009321D02*
X010738Y008475D01*
X010546Y008283D01*
X009356Y008283D01*
X009181Y008108D01*
X009180Y008108D01*
X009180Y008109D01*
X009006Y008283D01*
X007396Y008283D01*
X007120Y008006D01*
X009180Y008109D02*
X009180Y007504D01*
X009360Y006506D02*
X012312Y006506D01*
X012312Y007506D02*
X012331Y007793D01*
X012331Y009088D01*
X012312Y009321D01*
X013887Y009321D02*
X013887Y005719D01*
X013690Y005522D01*
X012312Y005522D01*
X012312Y005506D01*
X009360Y006506D02*
X009180Y006327D01*
X009180Y005457D01*
X009163Y009991D02*
X009163Y010400D01*
X009286Y010523D01*
X015966Y012884D02*
X015942Y013419D01*
X015966Y013419D01*
X015954Y013790D02*
X015971Y013807D01*
X015971Y013813D01*
X015966Y013819D01*
X016187Y012929D02*
X015966Y012884D01*
X016187Y012916D02*
X016187Y012929D01*
X016594Y012904D02*
X016635Y012904D01*
X016636Y012903D01*
X016631Y012903D01*
X016631Y012916D01*
X041381Y029458D02*
X042081Y029458D01*
X042332Y029440D01*
X042332Y028849D02*
X042081Y028863D01*
X040681Y031033D02*
X040541Y031173D01*
X054646Y025258D02*
X055241Y025853D01*
X058251Y027953D02*
X058251Y027988D01*
X063466Y020621D02*
X063466Y020568D01*
X063434Y020577D01*
D48*
X063434Y019754D01*
X063444Y019745D01*
X063466Y020621D02*
X062809Y020621D01*
X063466Y020621D02*
X064025Y020621D01*
X016631Y012916D02*
X016187Y012916D01*
X015777Y012916D01*
X015966Y012884D02*
X015966Y012030D01*
X015954Y012018D01*
X015966Y012965D02*
X015966Y013419D01*
X015966Y013819D01*
M02*
