G75*
G70*
%OFA0B0*%
%FSLAX24Y24*%
%IPPOS*%
%LPD*%
%AMOC8*
5,1,8,0,0,1.08239X$1,22.5*
%
%ADD10R,0.0157X0.0630*%
%ADD11R,0.0512X0.0118*%
%ADD12R,0.0118X0.0512*%
%ADD13R,0.0800X0.0260*%
%ADD14R,0.0236X0.0866*%
%ADD15R,0.2283X0.2441*%
%ADD16R,0.0630X0.1181*%
%ADD17R,0.0118X0.0472*%
%ADD18R,0.0512X0.0106*%
%ADD19R,0.0106X0.0512*%
%ADD20R,0.0512X0.0591*%
%ADD21R,0.0591X0.0512*%
%ADD22R,0.0984X0.0315*%
%ADD23R,0.1575X0.1043*%
%ADD24R,0.0984X0.0276*%
%ADD25R,0.0984X0.0433*%
%ADD26R,0.0591X0.0591*%
D10*
X042470Y035857D03*
X042785Y035857D03*
X043100Y035857D03*
X043415Y035857D03*
X043730Y035857D03*
X044045Y035857D03*
X044360Y035857D03*
X044675Y035857D03*
X044990Y035857D03*
X045305Y035857D03*
X045620Y035857D03*
X045934Y035857D03*
X046249Y035857D03*
X046564Y035857D03*
X046879Y035857D03*
X047194Y035857D03*
X047509Y035857D03*
X047824Y035857D03*
X048139Y035857D03*
X048454Y035857D03*
X048769Y035857D03*
X049084Y035857D03*
X049399Y035857D03*
X049714Y035857D03*
X050029Y035857D03*
X050344Y035857D03*
X050659Y035857D03*
X050659Y040148D03*
X050344Y040148D03*
X050029Y040148D03*
X049714Y040148D03*
X049399Y040148D03*
X049084Y040148D03*
X048769Y040148D03*
X048454Y040148D03*
X048139Y040148D03*
X047824Y040148D03*
X047509Y040148D03*
X047194Y040148D03*
X046879Y040148D03*
X046564Y040148D03*
X046249Y040148D03*
X045934Y040148D03*
X045620Y040148D03*
X045305Y040148D03*
X044990Y040148D03*
X044675Y040148D03*
X044360Y040148D03*
X044045Y040148D03*
X043730Y040148D03*
X043415Y040148D03*
X043100Y040148D03*
X042785Y040148D03*
X042470Y040148D03*
D11*
X042332Y030030D03*
X042332Y029833D03*
X042332Y029636D03*
X042332Y029440D03*
X042332Y029243D03*
X042332Y029046D03*
X042332Y028849D03*
X042332Y028652D03*
X042332Y028455D03*
X042332Y028258D03*
X042332Y028062D03*
X042332Y027865D03*
X042332Y027668D03*
X042332Y027471D03*
X042332Y027274D03*
X042332Y027077D03*
X042332Y026880D03*
X042332Y026684D03*
X042332Y026487D03*
X042332Y026290D03*
X042332Y026093D03*
X042332Y025896D03*
X042332Y025699D03*
X042332Y025503D03*
X042332Y025306D03*
X042332Y025109D03*
X042332Y024912D03*
X042332Y024715D03*
X042332Y024518D03*
X042332Y024321D03*
X042332Y024125D03*
X042332Y023928D03*
X042332Y023731D03*
X042332Y023534D03*
X042332Y023337D03*
X042332Y023140D03*
X050797Y023140D03*
X050797Y023337D03*
X050797Y023534D03*
X050797Y023731D03*
X050797Y023928D03*
X050797Y024125D03*
X050797Y024321D03*
X050797Y024518D03*
X050797Y024715D03*
X050797Y024912D03*
X050797Y025109D03*
X050797Y025306D03*
X050797Y025503D03*
X050797Y025699D03*
X050797Y025896D03*
X050797Y026093D03*
X050797Y026290D03*
X050797Y026487D03*
X050797Y026684D03*
X050797Y026880D03*
X050797Y027077D03*
X050797Y027274D03*
X050797Y027471D03*
X050797Y027668D03*
X050797Y027865D03*
X050797Y028062D03*
X050797Y028258D03*
X050797Y028455D03*
X050797Y028652D03*
X050797Y028849D03*
X050797Y029046D03*
X050797Y029243D03*
X050797Y029440D03*
X050797Y029636D03*
X050797Y029833D03*
X050797Y030030D03*
X029143Y016841D03*
X029143Y016644D03*
X029143Y016447D03*
X029143Y016251D03*
X029143Y016054D03*
X029143Y015857D03*
X029143Y015660D03*
X029143Y015463D03*
X029143Y015266D03*
X029143Y015069D03*
X029143Y014873D03*
X029143Y014676D03*
X029143Y014479D03*
X029143Y014282D03*
X029143Y014085D03*
X029143Y013888D03*
X024616Y013888D03*
X024616Y014085D03*
X024616Y014282D03*
X024616Y014479D03*
X024616Y014676D03*
X024616Y014873D03*
X024616Y015069D03*
X024616Y015266D03*
X024616Y015463D03*
X024616Y015660D03*
X024616Y015857D03*
X024616Y016054D03*
X024616Y016251D03*
X024616Y016447D03*
X024616Y016644D03*
X024616Y016841D03*
D12*
X025403Y017629D03*
X025600Y017629D03*
X025797Y017629D03*
X025994Y017629D03*
X026190Y017629D03*
X026387Y017629D03*
X026584Y017629D03*
X026781Y017629D03*
X026978Y017629D03*
X027175Y017629D03*
X027371Y017629D03*
X027568Y017629D03*
X027765Y017629D03*
X027962Y017629D03*
X028159Y017629D03*
X028356Y017629D03*
X028356Y013101D03*
X028159Y013101D03*
X027962Y013101D03*
X027765Y013101D03*
X027568Y013101D03*
X027371Y013101D03*
X027175Y013101D03*
X026978Y013101D03*
X026781Y013101D03*
X026584Y013101D03*
X026387Y013101D03*
X026190Y013101D03*
X025994Y013101D03*
X025797Y013101D03*
X025600Y013101D03*
X025403Y013101D03*
X043120Y022353D03*
X043316Y022353D03*
X043513Y022353D03*
X043710Y022353D03*
X043907Y022353D03*
X044104Y022353D03*
X044301Y022353D03*
X044497Y022353D03*
X044694Y022353D03*
X044891Y022353D03*
X045088Y022353D03*
X045285Y022353D03*
X045482Y022353D03*
X045679Y022353D03*
X045875Y022353D03*
X046072Y022353D03*
X046269Y022353D03*
X046466Y022353D03*
X046663Y022353D03*
X046860Y022353D03*
X047057Y022353D03*
X047253Y022353D03*
X047450Y022353D03*
X047647Y022353D03*
X047844Y022353D03*
X048041Y022353D03*
X048238Y022353D03*
X048434Y022353D03*
X048631Y022353D03*
X048828Y022353D03*
X049025Y022353D03*
X049222Y022353D03*
X049419Y022353D03*
X049616Y022353D03*
X049812Y022353D03*
X050009Y022353D03*
X050009Y030817D03*
X049812Y030817D03*
X049616Y030817D03*
X049419Y030817D03*
X049222Y030817D03*
X049025Y030817D03*
X048828Y030817D03*
X048631Y030817D03*
X048434Y030817D03*
X048238Y030817D03*
X048041Y030817D03*
X047844Y030817D03*
X047647Y030817D03*
X047450Y030817D03*
X047253Y030817D03*
X047057Y030817D03*
X046860Y030817D03*
X046663Y030817D03*
X046466Y030817D03*
X046269Y030817D03*
X046072Y030817D03*
X045875Y030817D03*
X045679Y030817D03*
X045482Y030817D03*
X045285Y030817D03*
X045088Y030817D03*
X044891Y030817D03*
X044694Y030817D03*
X044497Y030817D03*
X044301Y030817D03*
X044104Y030817D03*
X043907Y030817D03*
X043710Y030817D03*
X043513Y030817D03*
X043316Y030817D03*
X043120Y030817D03*
D13*
X033927Y032709D03*
X033927Y033209D03*
X033927Y033709D03*
X033927Y034209D03*
X033927Y034709D03*
X033927Y035209D03*
X033927Y035709D03*
X033927Y036209D03*
X030067Y036209D03*
X030067Y035709D03*
X030067Y035209D03*
X030067Y034709D03*
X030067Y034209D03*
X030067Y033709D03*
X030067Y033209D03*
X030067Y032709D03*
X024940Y032959D03*
X024940Y033459D03*
X024940Y033959D03*
X024940Y034459D03*
X024940Y034959D03*
X024940Y035459D03*
X024940Y035959D03*
X022520Y035959D03*
X022520Y035459D03*
X022520Y034959D03*
X022520Y034459D03*
X022520Y033959D03*
X022520Y033459D03*
X022520Y032959D03*
X031969Y012337D03*
X031969Y011837D03*
X031969Y011337D03*
X031969Y010837D03*
X031969Y010337D03*
X031969Y009837D03*
X031969Y009337D03*
X034389Y009337D03*
X034389Y009837D03*
X034389Y010337D03*
X034389Y010837D03*
X034389Y011337D03*
X034389Y011837D03*
X034389Y012337D03*
D14*
X009180Y005457D03*
X009680Y005457D03*
X010180Y005457D03*
X010680Y005457D03*
X010680Y007504D03*
X010180Y007504D03*
X009680Y007504D03*
X009180Y007504D03*
D15*
X015068Y015711D03*
X062537Y023404D03*
D16*
X063434Y020577D03*
X061639Y020577D03*
X015966Y012884D03*
X014171Y012884D03*
D17*
X039970Y013140D03*
X040167Y013140D03*
X040364Y013140D03*
X040560Y013140D03*
X040757Y013140D03*
X040954Y013140D03*
X041151Y013140D03*
X041348Y013140D03*
X041545Y013140D03*
X041742Y013140D03*
X041938Y013140D03*
X042135Y013140D03*
X042332Y013140D03*
X042529Y013140D03*
X042726Y013140D03*
X042923Y013140D03*
X042923Y005384D03*
X042726Y005384D03*
X042529Y005384D03*
X042332Y005384D03*
X042135Y005384D03*
X041938Y005384D03*
X041742Y005384D03*
X041545Y005384D03*
X041348Y005384D03*
X041151Y005384D03*
X040954Y005384D03*
X040757Y005384D03*
X040560Y005384D03*
X040364Y005384D03*
X040167Y005384D03*
X039970Y005384D03*
D18*
X023570Y025109D03*
X023570Y025306D03*
X023570Y025503D03*
X023570Y025699D03*
X023570Y025896D03*
X023570Y026093D03*
X023570Y026290D03*
X023570Y026487D03*
X023570Y026684D03*
X023570Y026880D03*
X023570Y027077D03*
X023570Y027274D03*
X023570Y027471D03*
X023570Y027668D03*
X023570Y027865D03*
X023570Y028062D03*
X023570Y028258D03*
X023570Y028455D03*
X023570Y028652D03*
X023570Y028849D03*
X018377Y028849D03*
X018377Y028652D03*
X018377Y028455D03*
X018377Y028258D03*
X018377Y028062D03*
X018377Y027865D03*
X018377Y027668D03*
X018377Y027471D03*
X018377Y027274D03*
X018377Y027077D03*
X018377Y026880D03*
X018377Y026684D03*
X018377Y026487D03*
X018377Y026290D03*
X018377Y026093D03*
X018377Y025896D03*
X018377Y025699D03*
X018377Y025503D03*
X018377Y025306D03*
X018377Y025109D03*
D19*
X019104Y024382D03*
X019301Y024382D03*
X019497Y024382D03*
X019694Y024382D03*
X019891Y024382D03*
X020088Y024382D03*
X020285Y024382D03*
X020482Y024382D03*
X020679Y024382D03*
X020875Y024382D03*
X021072Y024382D03*
X021269Y024382D03*
X021466Y024382D03*
X021663Y024382D03*
X021860Y024382D03*
X022057Y024382D03*
X022253Y024382D03*
X022450Y024382D03*
X022647Y024382D03*
X022844Y024382D03*
X022844Y029575D03*
X022647Y029575D03*
X022450Y029575D03*
X022253Y029575D03*
X022057Y029575D03*
X021860Y029575D03*
X021663Y029575D03*
X021466Y029575D03*
X021269Y029575D03*
X021072Y029575D03*
X020875Y029575D03*
X020679Y029575D03*
X020482Y029575D03*
X020285Y029575D03*
X020088Y029575D03*
X019891Y029575D03*
X019694Y029575D03*
X019497Y029575D03*
X019301Y029575D03*
X019104Y029575D03*
D20*
X014812Y027373D03*
X014143Y027373D03*
X014143Y026487D03*
X014812Y026487D03*
X026742Y026782D03*
X027411Y026782D03*
X027411Y025798D03*
X026742Y025798D03*
X026742Y024814D03*
X027411Y024814D03*
X027411Y023829D03*
X026742Y023829D03*
X037962Y024026D03*
X038631Y024026D03*
X038631Y023042D03*
X037962Y023042D03*
X037962Y025010D03*
X038631Y025010D03*
X038631Y025995D03*
X037962Y025995D03*
X037962Y026979D03*
X038631Y026979D03*
X038631Y027963D03*
X037962Y027963D03*
X037962Y028947D03*
X038631Y028947D03*
X038631Y029932D03*
X037962Y029932D03*
X028395Y033081D03*
X027726Y033081D03*
X027726Y033967D03*
X028395Y033967D03*
X028395Y034951D03*
X027726Y034951D03*
X027726Y035837D03*
X028395Y035837D03*
X028395Y036920D03*
X027726Y036920D03*
X031663Y037215D03*
X032332Y037215D03*
X055679Y036034D03*
X056348Y036034D03*
X056348Y035050D03*
X055679Y035050D03*
X055679Y034066D03*
X056348Y034066D03*
X058828Y035050D03*
X059497Y035050D03*
X059497Y036034D03*
X058828Y036034D03*
X058828Y037018D03*
X059497Y037018D03*
X056348Y039380D03*
X055679Y039380D03*
X058828Y032884D03*
X059497Y032884D03*
X059497Y031900D03*
X058828Y031900D03*
X056348Y031310D03*
X055679Y031310D03*
X055679Y030325D03*
X056348Y030325D03*
X056348Y029341D03*
X055679Y029341D03*
X055679Y028357D03*
X056348Y028357D03*
X056348Y027373D03*
X055679Y027373D03*
X055679Y026388D03*
X056348Y026388D03*
X057450Y026388D03*
X058120Y026388D03*
X056348Y025404D03*
X055679Y025404D03*
X055679Y024420D03*
X056348Y024420D03*
X056348Y023436D03*
X055679Y023436D03*
X050442Y014184D03*
X049773Y014184D03*
X049773Y013003D03*
X050442Y013003D03*
X050442Y011034D03*
X049773Y011034D03*
X049773Y009853D03*
X050442Y009853D03*
X041781Y003751D03*
X041112Y003751D03*
X033513Y013199D03*
X032844Y013199D03*
X032844Y014184D03*
X033513Y014184D03*
X005954Y009656D03*
X005285Y009656D03*
D21*
X009163Y009321D03*
X009163Y009991D03*
X010738Y009991D03*
X010738Y009321D03*
X012312Y009321D03*
X012312Y009991D03*
X013887Y009991D03*
X013887Y009321D03*
X012903Y012668D03*
X012903Y013337D03*
X012903Y015424D03*
X012903Y016093D03*
X020974Y015896D03*
X020974Y015227D03*
X020974Y009991D03*
X020974Y009321D03*
X021958Y009321D03*
X021958Y009991D03*
X025698Y009991D03*
X025698Y009321D03*
X026683Y009321D03*
X026683Y009991D03*
X026879Y021132D03*
X026879Y021802D03*
X020974Y021802D03*
X020974Y021132D03*
X020974Y032353D03*
X020974Y033022D03*
X041446Y037668D03*
X041446Y038337D03*
X043218Y033613D03*
X043218Y032943D03*
X044399Y032943D03*
X044399Y033613D03*
X045580Y033613D03*
X045580Y032943D03*
X046761Y032943D03*
X046761Y033613D03*
X049616Y033613D03*
X049616Y032943D03*
X051683Y037668D03*
X051683Y038337D03*
X060344Y023770D03*
X060344Y023101D03*
X060344Y021408D03*
X060344Y020739D03*
X050108Y018455D03*
X050108Y017786D03*
X048927Y017786D03*
X048927Y018455D03*
X047746Y018455D03*
X047746Y017786D03*
X046564Y017786D03*
X046564Y018455D03*
X045383Y018455D03*
X045383Y017786D03*
X004635Y014125D03*
X004635Y013455D03*
X004438Y016802D03*
X004438Y017471D03*
D22*
X052167Y014924D03*
X052167Y013940D03*
X052167Y012955D03*
X052167Y011971D03*
X052167Y010987D03*
X052167Y010003D03*
X052167Y009018D03*
X052167Y008034D03*
X052167Y007443D03*
D23*
X063454Y006735D03*
X063454Y015947D03*
D24*
X052167Y006853D03*
X052167Y006459D03*
D25*
X052167Y016420D03*
D26*
X003454Y016447D03*
X003454Y017825D03*
X003454Y014479D03*
X003454Y013101D03*
M02*
