G75*
G70*
%OFA0B0*%
%FSLAX24Y24*%
%IPPOS*%
%LPD*%
%AMOC8*
5,1,8,0,0,1.08239X$1,22.5*
%
%ADD10OC8,0.0600*%
%ADD11C,0.2000*%
%ADD12O,0.0600X0.1200*%
%ADD13O,0.1200X0.0600*%
%ADD14O,0.0787X0.1575*%
%ADD15O,0.1575X0.0787*%
%ADD16O,0.0520X0.1040*%
%ADD17C,0.0750*%
%ADD18OC8,0.0750*%
%ADD19R,0.0436X0.0436*%
%ADD20O,0.1040X0.0520*%
%ADD21C,0.0550*%
%ADD22R,0.1660X0.1660*%
%ADD23O,0.1320X0.0660*%
%ADD24C,0.0520*%
%ADD25C,0.0554*%
%ADD26OC8,0.0554*%
%ADD27C,0.0310*%
%ADD28C,0.0070*%
D10*
X020359Y007695D03*
X021449Y007695D03*
X022529Y007695D03*
X023619Y007695D03*
X024709Y007695D03*
X025789Y007695D03*
X026879Y007695D03*
X027969Y007695D03*
X029049Y007695D03*
X030139Y007695D03*
X031229Y007695D03*
X032309Y007695D03*
X033399Y007695D03*
X032859Y006695D03*
X031769Y006695D03*
X030679Y006695D03*
X029599Y006695D03*
X028509Y006695D03*
X027419Y006695D03*
X026339Y006695D03*
X025249Y006695D03*
X024159Y006695D03*
X023079Y006695D03*
X021989Y006695D03*
X020899Y006695D03*
X046852Y006369D03*
X047852Y006369D03*
X047852Y007369D03*
X046852Y007369D03*
X046852Y008369D03*
X047852Y008369D03*
X047852Y009369D03*
X046852Y009369D03*
X046852Y010369D03*
X047852Y010369D03*
X047852Y011369D03*
X046852Y011369D03*
X046852Y012369D03*
X047852Y012369D03*
X047852Y013369D03*
X046852Y013369D03*
X046852Y005369D03*
X047852Y005369D03*
X047852Y004369D03*
X046852Y004369D03*
X031008Y038684D03*
X029928Y038684D03*
X028848Y038684D03*
X027768Y038684D03*
X026688Y038684D03*
X027228Y039684D03*
X028308Y039684D03*
X029388Y039684D03*
X030468Y039684D03*
D11*
X033778Y039184D03*
X023918Y039184D03*
X017619Y007195D03*
X036139Y007195D03*
D12*
X034179Y015365D03*
X033179Y015365D03*
X032179Y015365D03*
X012238Y021270D03*
X011238Y021270D03*
X010238Y021270D03*
X009238Y021270D03*
D13*
X016643Y023479D03*
X016643Y024479D03*
X016643Y025479D03*
X016643Y026479D03*
X016643Y027479D03*
X016643Y028479D03*
X016643Y029479D03*
X016643Y030479D03*
X025305Y030479D03*
X025305Y029479D03*
X025305Y028479D03*
X025305Y027479D03*
X025305Y026479D03*
X025305Y025479D03*
X025305Y024479D03*
X025305Y023479D03*
X010419Y037396D03*
X010419Y038396D03*
X010419Y039396D03*
X012312Y007506D03*
X012312Y006506D03*
X012312Y005506D03*
D14*
X007037Y038396D03*
X004635Y038396D03*
D15*
X005816Y036506D03*
D16*
X008769Y036396D03*
X008769Y040396D03*
D17*
X020186Y039396D03*
X018218Y016562D03*
X062509Y027388D03*
D18*
X062509Y025388D03*
X020186Y037396D03*
X018218Y014562D03*
D19*
X054734Y040758D03*
X057293Y040758D03*
D20*
X012238Y030979D03*
X012238Y029979D03*
X012238Y028979D03*
X012238Y027979D03*
X012238Y026979D03*
X012238Y025979D03*
X012238Y024979D03*
X012238Y023979D03*
X012238Y022979D03*
X009238Y022979D03*
X009238Y023979D03*
X009238Y024979D03*
X009238Y025979D03*
X009238Y026979D03*
X009238Y027979D03*
X009238Y028979D03*
X009238Y029979D03*
X009238Y030979D03*
D21*
X007014Y025276D03*
X007014Y024276D03*
X007014Y023276D03*
X006014Y022776D03*
X006014Y023776D03*
X006014Y024776D03*
D22*
X003364Y026026D03*
X003364Y022026D03*
D23*
X003651Y028629D03*
X003651Y030129D03*
X003651Y031629D03*
D24*
X004120Y005006D03*
X007120Y005006D03*
X007120Y008006D03*
X004120Y008006D03*
D25*
X060620Y032339D03*
X061620Y032789D03*
X060620Y033239D03*
X061620Y033689D03*
X060620Y034139D03*
X061620Y034589D03*
X060620Y035039D03*
X061620Y035489D03*
X061620Y036389D03*
X062620Y035939D03*
X062620Y035039D03*
X062620Y034139D03*
X062620Y033239D03*
X062620Y032339D03*
D26*
X060620Y035939D03*
D27*
X058340Y035050D03*
X055029Y035050D03*
X054261Y035863D03*
X052581Y036668D03*
X052301Y036178D03*
X051683Y037166D03*
X051251Y037228D03*
X050971Y037508D03*
X050481Y036773D03*
X050698Y036428D03*
X050009Y036428D03*
X048779Y036428D03*
X048139Y036428D03*
X047576Y036598D03*
X046911Y036668D03*
X046246Y036423D03*
X045581Y036703D03*
X045056Y036423D03*
X044104Y036477D03*
X043661Y036477D03*
X042991Y037508D03*
X041446Y037166D03*
X041801Y036318D03*
X041801Y035338D03*
X041661Y034953D03*
X041101Y034673D03*
X040821Y034953D03*
X040121Y035023D03*
X041381Y034393D03*
X042746Y034393D03*
X043026Y034673D03*
X043411Y034743D03*
X043415Y034164D03*
X044399Y034115D03*
X044391Y034708D03*
X045056Y035023D03*
X044531Y035303D03*
X044111Y035303D03*
X045580Y034115D03*
X046761Y034115D03*
X047926Y034673D03*
X048521Y034638D03*
X048836Y034953D03*
X050131Y034743D03*
X049616Y034115D03*
X049186Y034183D03*
X050621Y035303D03*
X047646Y035303D03*
X048311Y037228D03*
X049711Y038383D03*
X048836Y039258D03*
X049123Y039577D03*
X050009Y039577D03*
X050698Y039577D03*
X051683Y038839D03*
X053701Y038908D03*
X055177Y039380D03*
X056361Y037788D03*
X051671Y033238D03*
X051391Y032398D03*
X051951Y031978D03*
X051321Y031068D03*
X051881Y030823D03*
X050551Y030683D03*
X049812Y030325D03*
X049396Y030333D03*
X049641Y029773D03*
X050206Y029833D03*
X051321Y029668D03*
X052581Y029283D03*
X051496Y028198D03*
X051289Y027865D03*
X050305Y028062D03*
X050206Y026585D03*
X050206Y026191D03*
X049816Y025818D03*
X049151Y026098D03*
X047891Y026588D03*
X047541Y026378D03*
X047051Y026658D03*
X046981Y025538D03*
X046421Y025538D03*
X046141Y027463D03*
X046981Y027883D03*
X047856Y028163D03*
X045091Y028443D03*
X043096Y029388D03*
X042816Y029108D03*
X042824Y028652D03*
X041840Y028455D03*
X041661Y027848D03*
X041840Y027471D03*
X041556Y027183D03*
X042923Y027176D03*
X042923Y026782D03*
X042824Y025306D03*
X042816Y024488D03*
X042824Y023731D03*
X042824Y023337D03*
X043516Y022843D03*
X044076Y023403D03*
X044881Y023403D03*
X044694Y022845D03*
X045476Y022843D03*
X045974Y022943D03*
X046368Y022943D03*
X047051Y022843D03*
X047844Y022845D03*
X048661Y022843D03*
X049046Y022843D03*
X049326Y023123D03*
X049616Y022845D03*
X050305Y023140D03*
X051461Y023403D03*
X052161Y023508D03*
X052861Y024068D03*
X053176Y024313D03*
X054646Y025258D03*
X055177Y025404D03*
X055171Y026133D03*
X054261Y026588D03*
X053701Y026133D03*
X052301Y025818D03*
X051289Y024912D03*
X050305Y024715D03*
X049921Y024698D03*
X049291Y024628D03*
X049851Y023753D03*
X049676Y021863D03*
X049746Y021163D03*
X048941Y020673D03*
X048801Y020043D03*
X048801Y019658D03*
X048206Y019833D03*
X046841Y020358D03*
X046456Y020358D03*
X046106Y020918D03*
X045966Y021303D03*
X045686Y021023D03*
X045056Y020743D03*
X044111Y021863D03*
X042711Y021443D03*
X042431Y021163D03*
X042046Y021303D03*
X042851Y020743D03*
X043236Y020743D03*
X042291Y020078D03*
X042151Y019693D03*
X041661Y018678D03*
X040856Y018538D03*
X040436Y018818D03*
X040716Y019098D03*
X040331Y020463D03*
X039071Y019903D03*
X038161Y019378D03*
X036026Y018538D03*
X035326Y018258D03*
X034766Y017558D03*
X034871Y017068D03*
X033856Y016648D03*
X032561Y017558D03*
X032036Y017418D03*
X031406Y017418D03*
X030076Y016998D03*
X029796Y015948D03*
X029656Y015388D03*
X030321Y014723D03*
X030321Y014338D03*
X029656Y014408D03*
X028651Y014282D03*
X028466Y015143D03*
X028501Y015598D03*
X027836Y015878D03*
X028651Y016447D03*
X028221Y017138D03*
X027568Y017136D03*
X026584Y017136D03*
X025701Y016998D03*
X025106Y017278D03*
X024966Y018258D03*
X025421Y018328D03*
X025876Y018398D03*
X026961Y019098D03*
X027696Y018958D03*
X027346Y018118D03*
X029026Y018118D03*
X030636Y018958D03*
X031406Y018678D03*
X032421Y019938D03*
X033296Y018678D03*
X033401Y017838D03*
X035466Y019238D03*
X034906Y020743D03*
X035466Y021583D03*
X036061Y022003D03*
X036621Y022668D03*
X037460Y023042D03*
X037460Y024026D03*
X037460Y025010D03*
X036621Y025258D03*
X036341Y026098D03*
X035186Y026413D03*
X037460Y026979D03*
X037411Y027963D03*
X037411Y028947D03*
X037460Y029932D03*
X039133Y029932D03*
X039133Y028947D03*
X039133Y027963D03*
X039316Y027603D03*
X039133Y026979D03*
X039631Y025818D03*
X040471Y025083D03*
X039911Y024523D03*
X040751Y024208D03*
X041626Y024698D03*
X041840Y025503D03*
X039071Y024523D03*
X039133Y024026D03*
X039351Y023368D03*
X039133Y023042D03*
X039211Y022563D03*
X039071Y022003D03*
X035746Y023158D03*
X031406Y022668D03*
X029306Y021303D03*
X028921Y021303D03*
X028291Y022703D03*
X027696Y022423D03*
X027346Y023158D03*
X026879Y022304D03*
X026879Y020630D03*
X028431Y019658D03*
X024406Y020218D03*
X023111Y019658D03*
X022621Y019378D03*
X023181Y018258D03*
X022621Y018118D03*
X021886Y018363D03*
X023111Y016858D03*
X023951Y016718D03*
X023811Y017418D03*
X025108Y016054D03*
X025108Y015266D03*
X025946Y014688D03*
X026156Y015073D03*
X026856Y014478D03*
X027171Y014198D03*
X027371Y013593D03*
X026683Y013691D03*
X026289Y013691D03*
X025666Y013603D03*
X025106Y014093D03*
X024721Y012658D03*
X023391Y012378D03*
X023881Y011468D03*
X025001Y010978D03*
X024721Y010383D03*
X025698Y010493D03*
X026683Y010493D03*
X027171Y010628D03*
X027556Y010628D03*
X027556Y011188D03*
X027276Y011748D03*
X027241Y012448D03*
X026786Y012588D03*
X025596Y012028D03*
X022481Y011818D03*
X022481Y011433D03*
X022201Y012448D03*
X020836Y013078D03*
X020346Y014058D03*
X020941Y014268D03*
X020974Y014676D03*
X022096Y014093D03*
X020974Y016398D03*
X017037Y016349D03*
X017037Y017136D03*
X017037Y017924D03*
X017037Y015562D03*
X017037Y014774D03*
X017037Y013987D03*
X015954Y013790D03*
X016594Y012904D03*
X015954Y012018D03*
X013887Y010493D03*
X012312Y010493D03*
X012903Y012166D03*
X009163Y008819D03*
X006456Y009656D03*
X004783Y009656D03*
X010147Y006802D03*
X010738Y006802D03*
X010688Y006162D03*
X010147Y006162D03*
X019506Y006848D03*
X022549Y006113D03*
X024651Y005168D03*
X023741Y004433D03*
X023111Y004433D03*
X026891Y006603D03*
X027521Y004888D03*
X030076Y006288D03*
X030496Y006008D03*
X032631Y007198D03*
X030741Y008388D03*
X030321Y008388D03*
X029341Y008948D03*
X028501Y009438D03*
X028186Y008668D03*
X026683Y008819D03*
X025698Y008819D03*
X023321Y009333D03*
X022621Y010278D03*
X021466Y010383D03*
X020974Y010493D03*
X027556Y015248D03*
X030216Y012763D03*
X031021Y012903D03*
X031266Y013813D03*
X032342Y013199D03*
X033720Y012314D03*
X034015Y013199D03*
X035186Y013743D03*
X036621Y013463D03*
X037181Y013498D03*
X037461Y013183D03*
X038931Y013323D03*
X040261Y014233D03*
X040646Y014303D03*
X040856Y014653D03*
X040296Y015073D03*
X040576Y015458D03*
X039981Y015458D03*
X039771Y016718D03*
X040576Y017558D03*
X038441Y016648D03*
X037881Y016088D03*
X037881Y015458D03*
X034906Y015213D03*
X031196Y015143D03*
X031196Y016088D03*
X035186Y012308D03*
X038721Y011608D03*
X039351Y010908D03*
X040296Y010768D03*
X040156Y011468D03*
X040576Y011748D03*
X041556Y012273D03*
X041545Y012658D03*
X042431Y012588D03*
X042151Y012028D03*
X041871Y011748D03*
X042151Y010908D03*
X042711Y010138D03*
X043166Y009158D03*
X042151Y008878D03*
X042151Y008493D03*
X041626Y007758D03*
X041346Y007198D03*
X040856Y006638D03*
X040576Y006918D03*
X040786Y007758D03*
X039946Y008038D03*
X038826Y008388D03*
X038546Y008668D03*
X039106Y009228D03*
X039246Y009858D03*
X040506Y009228D03*
X042711Y007513D03*
X043656Y007233D03*
X043376Y006918D03*
X042991Y006918D03*
X041941Y006148D03*
X042431Y005868D03*
X041348Y005867D03*
X041171Y004923D03*
X041766Y004818D03*
X042283Y003751D03*
X043236Y005098D03*
X044706Y004818D03*
X040610Y003751D03*
X040156Y004328D03*
X039666Y005378D03*
X038161Y005308D03*
X037881Y005588D03*
X037111Y005308D03*
X037111Y004923D03*
X036831Y004328D03*
X036271Y003908D03*
X036971Y006288D03*
X037041Y008108D03*
X035081Y008108D03*
X036901Y009578D03*
X032637Y009361D03*
X031301Y010768D03*
X030461Y011188D03*
X040576Y012623D03*
X042256Y013638D03*
X042816Y013813D03*
X042606Y014198D03*
X041521Y013918D03*
X044951Y015808D03*
X045231Y016648D03*
X045383Y017284D03*
X046564Y017284D03*
X047191Y017523D03*
X047746Y017284D03*
X048927Y017284D03*
X049816Y017033D03*
X050108Y017284D03*
X051181Y017978D03*
X051461Y018993D03*
X051461Y019378D03*
X051461Y019763D03*
X049676Y019938D03*
X047156Y021058D03*
X046663Y021861D03*
X047716Y021863D03*
X052126Y022073D03*
X053456Y022843D03*
X055177Y023436D03*
X055177Y024420D03*
X056850Y024420D03*
X056850Y025404D03*
X058621Y026388D03*
X060147Y026438D03*
X060147Y027028D03*
X060147Y027619D03*
X058251Y027988D03*
X057831Y027953D03*
X056850Y028357D03*
X056850Y029341D03*
X056850Y030325D03*
X056850Y031310D03*
X058111Y031173D03*
X058340Y032884D03*
X055177Y031310D03*
X055177Y030325D03*
X054611Y029563D03*
X055177Y029341D03*
X055177Y028357D03*
X055177Y027373D03*
X056850Y027373D03*
X060147Y025847D03*
X060147Y025256D03*
X056850Y023436D03*
X060344Y020237D03*
X062805Y020630D03*
X063444Y019745D03*
X064035Y020630D03*
X063444Y015168D03*
X053981Y011468D03*
X052913Y011969D03*
X052826Y010313D03*
X051289Y010985D03*
X049271Y011034D03*
X049271Y009853D03*
X046001Y011783D03*
X047226Y012798D03*
X048871Y013778D03*
X049271Y014184D03*
X049271Y013003D03*
X050796Y014933D03*
X051181Y015703D03*
X052913Y016398D03*
X047121Y016088D03*
X046421Y016368D03*
X046421Y015248D03*
X044426Y017558D03*
X044146Y018118D03*
X044146Y018993D03*
X045383Y018957D03*
X046564Y018957D03*
X046946Y018958D03*
X051289Y026880D03*
X052476Y027428D03*
X048626Y030333D03*
X048041Y030325D03*
X047646Y030333D03*
X047261Y030333D03*
X046564Y030227D03*
X046171Y030227D03*
X045756Y030228D03*
X045371Y030228D03*
X044891Y030325D03*
X044496Y030333D03*
X043316Y030325D03*
X042824Y030030D03*
X041941Y030543D03*
X041836Y029913D03*
X042571Y030753D03*
X043120Y031310D03*
X044399Y032441D03*
X045441Y032293D03*
X046417Y032097D03*
X046761Y032441D03*
X047366Y031838D03*
X046860Y031310D03*
X044986Y031313D03*
X040821Y032223D03*
X040681Y031033D03*
X035781Y029948D03*
X033716Y032328D03*
X033296Y033868D03*
X033228Y035739D03*
X033228Y036231D03*
X032834Y037215D03*
X031161Y037215D03*
X028897Y036920D03*
X027224Y036920D03*
X027224Y035837D03*
X024271Y035985D03*
X023881Y036073D03*
X020974Y033524D03*
X020451Y032573D03*
X020974Y031851D03*
X020311Y031103D03*
X020031Y031383D03*
X021501Y030893D03*
X022656Y030333D03*
X023181Y029598D03*
X023181Y029213D03*
X023076Y028653D03*
X022901Y028268D03*
X022621Y027988D03*
X022131Y027673D03*
X022131Y027078D03*
X022376Y026763D03*
X023041Y026487D03*
X023041Y027077D03*
X024371Y026973D03*
X024616Y026098D03*
X024056Y025818D03*
X022901Y025958D03*
X022901Y025258D03*
X022621Y024978D03*
X021851Y025013D03*
X021368Y025010D03*
X020974Y025010D03*
X020186Y025010D03*
X019793Y025010D03*
X019051Y025188D03*
X019331Y026308D03*
X019005Y026585D03*
X019005Y026979D03*
X019611Y027603D03*
X020031Y027078D03*
X018876Y028163D03*
X019156Y028723D03*
X019926Y029073D03*
X020777Y028947D03*
X021171Y028947D03*
X021851Y028828D03*
X019716Y030088D03*
X019296Y030088D03*
X018806Y029598D03*
X017721Y027253D03*
X017441Y025748D03*
X015314Y026487D03*
X015314Y027373D03*
X013801Y027918D03*
X013641Y027373D03*
X013346Y026763D03*
X013641Y026487D03*
X008936Y025468D03*
X014886Y021723D03*
X016076Y020463D03*
X016286Y022913D03*
X015306Y023508D03*
X020451Y021723D03*
X020974Y022304D03*
X021186Y022633D03*
X021886Y022913D03*
X021606Y023893D03*
X022446Y023893D03*
X023531Y023333D03*
X024301Y024558D03*
X026226Y024978D03*
X026296Y024278D03*
X027906Y025083D03*
X027906Y026063D03*
X027913Y026782D03*
X026366Y027323D03*
X026240Y026782D03*
X026226Y026063D03*
X027101Y027988D03*
X026646Y028898D03*
X024231Y028303D03*
X026086Y031313D03*
X027224Y033081D03*
X023188Y032934D03*
X018612Y036034D03*
X018612Y036821D03*
X018612Y037609D03*
X018612Y038396D03*
X018612Y039184D03*
X018612Y039971D03*
X018612Y040758D03*
X017824Y040758D03*
X017037Y040758D03*
X016249Y040758D03*
X015462Y040758D03*
X014675Y040758D03*
X013887Y040758D03*
X013887Y039971D03*
X013887Y039184D03*
X013887Y038396D03*
X013887Y037609D03*
X013887Y036821D03*
X013887Y036034D03*
X014675Y036034D03*
X015462Y036034D03*
X016249Y036034D03*
X017037Y036034D03*
X017824Y036034D03*
X029201Y030053D03*
X030846Y028653D03*
X030461Y027883D03*
X030076Y027043D03*
X029516Y026413D03*
X029516Y026028D03*
X031406Y027323D03*
X031406Y029598D03*
X031686Y029913D03*
X030076Y024173D03*
X020974Y020630D03*
X005821Y016840D03*
X004438Y016300D03*
X003454Y015906D03*
X004635Y014627D03*
X031616Y004048D03*
X051426Y007338D03*
X052913Y009016D03*
X049991Y031628D03*
X050691Y032678D03*
X046631Y037508D03*
X044776Y037228D03*
X043366Y039577D03*
X042431Y039577D03*
X041446Y038839D03*
X046564Y039577D03*
X047204Y039577D03*
X048139Y039577D03*
D28*
X048836Y039258D02*
X049711Y038383D01*
X050971Y037508D02*
X051741Y037508D01*
X052581Y036668D01*
X052301Y036178D02*
X051251Y037228D01*
X050831Y036773D02*
X050726Y036773D01*
X050481Y036773D01*
X050831Y036773D02*
X050971Y036633D01*
X050971Y035268D01*
X050726Y035023D01*
X050026Y035023D01*
X049186Y034183D01*
X048521Y034638D02*
X048521Y035723D01*
X048031Y036143D01*
X047576Y036598D01*
X047191Y036598D02*
X047191Y037088D01*
X047051Y037228D01*
X044776Y037228D01*
X045581Y036703D02*
X046421Y036703D01*
X047646Y035478D01*
X047646Y035303D01*
X047926Y035653D02*
X047716Y035863D01*
X046911Y036668D01*
X047191Y036598D02*
X047786Y036003D01*
X048206Y035618D01*
X048206Y034288D01*
X048206Y034253D01*
X048206Y033378D01*
X046806Y031978D01*
X046141Y031313D01*
X044986Y031313D01*
X045441Y032293D02*
X045301Y032433D01*
X045285Y032433D01*
X045285Y032441D01*
X044399Y032441D01*
X043691Y032503D02*
X043691Y032888D01*
X043691Y033868D01*
X043691Y034008D01*
X044391Y034708D01*
X045056Y035023D02*
X041731Y035023D01*
X041661Y034953D01*
X041836Y035303D02*
X044111Y035303D01*
X044146Y035618D02*
X044391Y035618D01*
X044531Y035478D01*
X044531Y035303D01*
X044146Y035618D02*
X041486Y035618D01*
X040821Y034953D01*
X041101Y034673D02*
X043026Y034673D01*
X043411Y034743D02*
X043411Y034533D01*
X041101Y032223D01*
X040821Y032223D01*
X040856Y031873D02*
X041136Y031873D01*
X043411Y034148D01*
X043415Y034148D01*
X043415Y034164D01*
X042746Y034393D02*
X041381Y034393D01*
X041836Y035303D02*
X041801Y035338D01*
X041801Y036318D02*
X042991Y037508D01*
X042886Y037788D02*
X056361Y037788D01*
X056221Y038033D02*
X056256Y038068D01*
X056466Y038068D01*
X059091Y035443D01*
X059091Y022773D01*
X059091Y022528D01*
X058916Y022353D01*
X058356Y022353D01*
X058286Y022353D01*
X052826Y022353D01*
X051881Y022353D01*
X051741Y022213D01*
X051601Y022353D01*
X051496Y022353D01*
X049816Y022353D01*
X049536Y022353D01*
X049326Y022563D01*
X049046Y022843D01*
X048976Y022563D02*
X048941Y022563D01*
X048661Y022843D01*
X048976Y022563D02*
X049676Y021863D01*
X049746Y021163D02*
X051881Y021163D01*
X052021Y021023D01*
X052021Y011328D01*
X048626Y007933D01*
X047436Y007933D01*
X047121Y008248D01*
X046852Y008369D01*
X047261Y008808D02*
X047576Y008493D01*
X047852Y008369D01*
X048136Y008493D01*
X048311Y008493D01*
X051076Y011258D01*
X051741Y011258D01*
X051741Y019868D01*
X051566Y020043D01*
X051356Y020043D01*
X050971Y019658D01*
X048801Y019658D01*
X048801Y020043D02*
X048031Y019273D01*
X041591Y019273D01*
X040856Y018538D01*
X041101Y018398D02*
X040961Y018258D01*
X035326Y018258D01*
X035081Y018398D02*
X035221Y018538D01*
X036026Y018538D01*
X035081Y018398D02*
X025876Y018398D01*
X025771Y018678D02*
X025421Y018328D01*
X024966Y018258D02*
X024686Y018538D01*
X022446Y018538D01*
X020066Y016158D01*
X020066Y013253D01*
X020241Y013078D01*
X020836Y013078D01*
X020941Y012798D02*
X020101Y012798D01*
X019926Y012973D01*
X019926Y016998D01*
X016181Y020743D01*
X015866Y020743D01*
X014886Y021723D01*
X016076Y020463D02*
X012453Y016840D01*
X005821Y016840D01*
X008411Y022003D02*
X016601Y022003D01*
X020241Y018363D01*
X021886Y018363D01*
X022341Y018223D02*
X022341Y017943D01*
X022446Y017838D01*
X033401Y017838D01*
X033646Y017978D02*
X033506Y018118D01*
X029026Y018118D01*
X028361Y017278D02*
X031161Y017278D01*
X031301Y017138D01*
X032141Y017138D01*
X032561Y017558D01*
X032036Y017418D02*
X031756Y017698D01*
X022831Y017698D01*
X022691Y017558D01*
X022691Y016018D01*
X020941Y014268D01*
X021046Y013988D02*
X020416Y013988D01*
X020346Y014058D01*
X021046Y013988D02*
X022586Y015528D01*
X027486Y015528D01*
X027836Y015878D01*
X027661Y016438D02*
X023146Y016438D01*
X022831Y016753D01*
X022831Y017278D01*
X022971Y017418D01*
X023811Y017418D01*
X023251Y016998D02*
X025561Y016998D01*
X025701Y016998D01*
X025841Y016858D01*
X029831Y016858D01*
X030041Y016648D01*
X033856Y016648D01*
X034101Y016788D02*
X033891Y016998D01*
X030076Y016998D01*
X029761Y016718D02*
X030111Y016368D01*
X046036Y016368D01*
X047191Y017523D01*
X046281Y017803D02*
X045476Y016998D01*
X034941Y016998D01*
X034871Y017068D01*
X035046Y017278D02*
X034766Y017558D01*
X035046Y017278D02*
X044986Y017278D01*
X045756Y018048D01*
X050131Y018048D01*
X051461Y019378D01*
X051461Y018993D02*
X051461Y014373D01*
X048031Y010943D01*
X047401Y010943D01*
X047121Y011223D01*
X046852Y011369D01*
X047296Y011783D02*
X047576Y011503D01*
X047852Y011369D01*
X047296Y011783D02*
X046001Y011783D01*
X042396Y011783D01*
X042151Y012028D01*
X041871Y011748D02*
X041871Y011398D01*
X042221Y011398D01*
X042816Y010803D01*
X047261Y010803D01*
X047576Y010488D01*
X047852Y010369D01*
X047296Y009788D02*
X047576Y009508D01*
X047852Y009369D01*
X047296Y009788D02*
X046806Y009788D01*
X046176Y010418D01*
X042956Y010418D01*
X042746Y010628D01*
X042116Y010628D01*
X042151Y010663D01*
X042151Y010838D01*
X042116Y010873D01*
X042151Y010908D01*
X042116Y010628D02*
X041976Y010488D01*
X041906Y010488D01*
X031161Y010488D01*
X031021Y010348D01*
X027451Y010348D01*
X027171Y010628D01*
X027556Y010628D02*
X027696Y010768D01*
X031301Y010768D01*
X031126Y011188D02*
X041451Y011188D01*
X041661Y011188D01*
X041871Y011398D01*
X041241Y012028D02*
X041416Y012203D01*
X041556Y012273D01*
X041591Y012308D01*
X046561Y012308D01*
X046852Y012369D01*
X047226Y012798D02*
X048661Y012798D01*
X050796Y014933D01*
X051181Y015703D02*
X048976Y013498D01*
X048136Y013498D01*
X047852Y013369D01*
X047576Y013498D01*
X046596Y014478D01*
X042186Y014478D01*
X041731Y014933D01*
X040751Y014933D01*
X040611Y014793D01*
X036201Y014793D01*
X035326Y014793D01*
X034906Y015213D01*
X033506Y016088D02*
X036656Y016088D01*
X037566Y015178D01*
X039211Y015178D01*
X039981Y015948D01*
X042291Y015948D01*
X044671Y015948D01*
X044811Y015948D01*
X044951Y015808D01*
X045056Y015528D02*
X045266Y015738D01*
X048941Y015738D01*
X051181Y017978D01*
X049886Y018188D02*
X044286Y018188D01*
X044146Y018118D01*
X044006Y017978D01*
X033646Y017978D01*
X033296Y018678D02*
X033436Y018818D01*
X040436Y018818D01*
X040716Y019098D02*
X040856Y019168D01*
X041101Y019413D01*
X047786Y019413D01*
X048206Y019833D01*
X048941Y020673D02*
X049676Y019938D01*
X049886Y018188D02*
X051461Y019763D01*
X052161Y021303D02*
X052021Y021443D01*
X047191Y021443D01*
X047174Y021461D01*
X046176Y020463D01*
X042501Y020463D01*
X041801Y021163D01*
X034731Y021163D01*
X034591Y021023D01*
X025211Y021023D01*
X024406Y020218D01*
X024266Y020288D01*
X022551Y022003D01*
X016811Y022003D01*
X015306Y023508D01*
X016286Y022913D02*
X021886Y022913D01*
X022061Y022703D02*
X021991Y022633D01*
X021186Y022633D01*
X022061Y022703D02*
X028291Y022703D01*
X028431Y022633D01*
X028676Y022388D01*
X037181Y022388D01*
X038861Y024068D01*
X038861Y024453D01*
X038931Y024453D01*
X039071Y024523D01*
X039911Y024523D01*
X040436Y024523D01*
X040751Y024208D01*
X040576Y024803D02*
X037811Y024803D01*
X037671Y024663D01*
X037286Y024663D01*
X037146Y024803D01*
X030776Y024803D01*
X030216Y024243D01*
X030076Y024173D01*
X027731Y024173D01*
X026016Y025888D01*
X024791Y025888D01*
X024721Y025818D01*
X024336Y025818D01*
X024336Y026203D01*
X024371Y026238D01*
X024371Y026973D01*
X024511Y027358D02*
X024826Y027043D01*
X030076Y027043D01*
X029516Y026413D02*
X030111Y025818D01*
X039631Y025818D01*
X049816Y025818D01*
X050096Y025923D02*
X052021Y025923D01*
X052511Y026413D01*
X054051Y026413D01*
X054156Y026308D01*
X054506Y026308D01*
X054801Y026308D01*
X055964Y027471D01*
X055964Y029095D01*
X056653Y029784D01*
X057107Y029784D01*
X057236Y029913D01*
X058426Y031103D01*
X058426Y031698D01*
X058356Y031768D01*
X058356Y032888D01*
X058340Y032884D01*
X057831Y031488D02*
X057831Y034778D01*
X057831Y034883D01*
X057998Y035050D01*
X058340Y035050D01*
X055486Y034638D02*
X055486Y035688D01*
X055311Y035863D01*
X054296Y035863D01*
X054261Y035828D01*
X054261Y035863D01*
X055029Y035050D02*
X055029Y033278D01*
X054709Y032958D01*
X053631Y032958D01*
X048101Y032958D01*
X045371Y030228D01*
X045756Y030228D02*
X046561Y031033D01*
X046981Y031033D01*
X047366Y031418D01*
X047366Y031838D01*
X046417Y032097D02*
X046246Y032268D01*
X046246Y036423D01*
X045336Y036143D02*
X045336Y034883D01*
X045336Y034358D01*
X045301Y034323D01*
X045301Y032433D01*
X043691Y032503D02*
X042641Y031453D01*
X042256Y031453D01*
X040541Y031453D01*
X040401Y031313D01*
X040401Y030928D01*
X041066Y030263D01*
X042011Y030263D01*
X042816Y029458D01*
X042816Y029108D01*
X043096Y029388D02*
X041941Y030543D01*
X041836Y029913D02*
X041591Y029668D01*
X031861Y029668D01*
X030846Y028653D01*
X030566Y028373D02*
X041381Y028373D01*
X041731Y028723D01*
X042361Y028723D01*
X042921Y028163D01*
X047856Y028163D01*
X046981Y027883D02*
X042011Y027883D01*
X041661Y028233D01*
X030496Y028233D01*
X028816Y029913D01*
X020766Y029913D01*
X019926Y029073D01*
X019786Y029318D02*
X020521Y030053D01*
X029201Y030053D01*
X029166Y029178D02*
X030461Y027883D01*
X030566Y028373D02*
X030566Y029073D01*
X028746Y030893D01*
X021501Y030893D01*
X020801Y031173D02*
X025841Y031173D01*
X025981Y031033D01*
X029971Y031033D01*
X031406Y029598D01*
X031686Y029913D02*
X030006Y031593D01*
X025981Y031593D01*
X025946Y031558D01*
X020206Y031558D01*
X020031Y031383D01*
X020311Y031103D02*
X020521Y031313D01*
X026086Y031313D01*
X025305Y030479D02*
X024721Y030368D01*
X022691Y030368D01*
X022656Y030333D01*
X023181Y029598D02*
X024721Y029598D01*
X025305Y029479D01*
X024826Y028898D02*
X026646Y028898D01*
X026436Y029073D02*
X026541Y029178D01*
X029166Y029178D01*
X027556Y027603D02*
X039316Y027603D01*
X041556Y027183D02*
X041941Y027183D01*
X042221Y027463D01*
X046141Y027463D01*
X046736Y027743D02*
X047331Y027148D01*
X053596Y027148D01*
X056501Y030053D01*
X056991Y030053D01*
X058111Y031173D01*
X057831Y031488D02*
X057096Y030753D01*
X054401Y030753D01*
X054191Y030543D01*
X054016Y030543D01*
X051811Y030543D01*
X050761Y029493D01*
X046141Y029493D01*
X045091Y028443D01*
X046736Y027743D02*
X041766Y027743D01*
X041661Y027848D01*
X042641Y026693D02*
X042956Y026378D01*
X047541Y026378D01*
X047891Y026588D02*
X048101Y026378D01*
X049641Y026378D01*
X050096Y025923D01*
X049151Y026098D02*
X036341Y026098D01*
X035501Y026098D01*
X035186Y026413D01*
X036621Y025258D02*
X028081Y025258D01*
X027906Y025083D01*
X027906Y026063D02*
X028536Y026693D01*
X042641Y026693D01*
X041416Y025538D02*
X042046Y024908D01*
X049711Y024908D01*
X049921Y024698D01*
X050026Y024593D01*
X050166Y024453D01*
X053036Y024453D01*
X053176Y024313D01*
X052861Y024068D02*
X052721Y024208D01*
X049711Y024208D01*
X049291Y024628D01*
X049256Y024348D02*
X043341Y024348D01*
X042921Y024768D01*
X041941Y024768D01*
X041731Y024978D01*
X040751Y024978D01*
X040576Y024803D01*
X040471Y025083D02*
X040086Y025083D01*
X037776Y025083D01*
X037706Y025013D01*
X037460Y025010D01*
X035396Y023893D02*
X036621Y022668D01*
X037006Y022003D02*
X036061Y022003D01*
X035816Y021863D02*
X035956Y021723D01*
X043866Y021723D01*
X044006Y021583D01*
X045406Y021583D01*
X046946Y023123D01*
X049326Y023123D01*
X049851Y023753D02*
X049256Y024348D01*
X051461Y023403D02*
X044881Y023403D01*
X045196Y023123D02*
X043201Y023123D01*
X042081Y022003D01*
X039071Y022003D01*
X039211Y022563D02*
X040891Y022563D01*
X042816Y024488D01*
X041626Y024698D02*
X040296Y023368D01*
X039351Y023368D01*
X037286Y022283D02*
X037006Y022003D01*
X037286Y022283D02*
X042151Y022283D01*
X043131Y023263D01*
X043936Y023263D01*
X044076Y023403D01*
X043516Y022843D02*
X043516Y021863D01*
X044111Y021863D01*
X043131Y021023D02*
X045686Y021023D01*
X045441Y021163D02*
X045581Y021303D01*
X045966Y021303D01*
X046106Y020918D02*
X047051Y021863D01*
X047051Y022843D01*
X047576Y021863D02*
X047716Y021863D01*
X047576Y021863D02*
X047174Y021461D01*
X047156Y021058D02*
X047156Y020288D01*
X046666Y019798D01*
X042256Y019798D01*
X042151Y019693D01*
X042011Y019623D01*
X038406Y019623D01*
X038161Y019378D01*
X039071Y019903D02*
X039771Y019903D01*
X040331Y020463D01*
X041731Y021023D02*
X034801Y021023D01*
X033156Y019378D01*
X022621Y019378D01*
X023111Y019658D02*
X028431Y019658D01*
X027696Y018958D02*
X030636Y018958D01*
X031406Y018678D02*
X025771Y018678D01*
X026961Y019098D02*
X027101Y019238D01*
X035466Y019238D01*
X036551Y019098D02*
X040716Y019098D01*
X041661Y018678D02*
X041976Y018993D01*
X044146Y018993D01*
X044426Y017558D02*
X040576Y017558D01*
X041101Y018398D02*
X046386Y018398D01*
X046946Y018958D01*
X046281Y017803D02*
X049046Y017803D01*
X049816Y017033D01*
X047121Y016088D02*
X038896Y016088D01*
X038511Y016088D01*
X037881Y015458D01*
X037881Y016088D02*
X038021Y016228D01*
X046281Y016228D01*
X046421Y016368D01*
X045231Y016648D02*
X045161Y016718D01*
X039771Y016718D01*
X038441Y016648D02*
X038301Y016788D01*
X034101Y016788D01*
X033506Y016088D02*
X032001Y016088D01*
X031581Y015668D01*
X028991Y015668D01*
X028466Y015143D01*
X028711Y015003D02*
X028571Y014863D01*
X027941Y014863D01*
X027836Y014968D01*
X026436Y014968D01*
X026226Y014758D01*
X026086Y014758D01*
X025946Y014688D01*
X022096Y014688D01*
X022061Y014653D01*
X021711Y014303D01*
X021711Y013568D01*
X020941Y012798D01*
X021746Y012553D02*
X021746Y010733D01*
X021921Y010558D01*
X023566Y010558D01*
X026296Y007828D01*
X026611Y007828D01*
X026879Y007695D01*
X026996Y008178D02*
X026716Y008178D01*
X025806Y009088D01*
X025631Y009088D01*
X023916Y010803D01*
X023111Y010803D01*
X022481Y011433D01*
X022481Y011818D02*
X023251Y011048D01*
X024861Y011048D01*
X025001Y010978D01*
X025071Y010908D01*
X030846Y010908D01*
X031126Y011188D01*
X030811Y011328D02*
X040016Y011328D01*
X040156Y011468D01*
X040436Y011888D02*
X040576Y011748D01*
X040436Y011888D02*
X027416Y011888D01*
X027276Y011748D01*
X027696Y011328D02*
X030111Y011328D01*
X030251Y011188D01*
X030461Y011188D01*
X030671Y011188D01*
X030811Y011328D01*
X031861Y012448D02*
X027241Y012448D01*
X026961Y012763D02*
X026786Y012588D01*
X026961Y012763D02*
X030216Y012763D01*
X030601Y013463D02*
X036621Y013463D01*
X036726Y013743D02*
X036901Y013568D01*
X036901Y013078D01*
X037076Y012903D01*
X041416Y012903D01*
X041451Y012938D01*
X042081Y012938D01*
X042431Y012588D01*
X041696Y013078D02*
X042256Y013638D01*
X042501Y013918D02*
X041521Y013918D01*
X041416Y013813D01*
X039421Y013813D01*
X038931Y013323D01*
X037601Y013043D02*
X041346Y013043D01*
X041381Y013078D01*
X041696Y013078D01*
X040576Y012623D02*
X040471Y012728D01*
X031196Y012728D01*
X031021Y012903D01*
X031861Y012448D02*
X032001Y012588D01*
X034906Y012588D01*
X035186Y012308D01*
X035186Y013743D02*
X031336Y013743D01*
X031266Y013813D01*
X030601Y013463D02*
X029656Y014408D01*
X029936Y014338D02*
X029936Y014583D01*
X029726Y014793D01*
X028816Y014793D01*
X028641Y014618D01*
X028536Y014618D01*
X028397Y014618D01*
X027371Y013593D01*
X027171Y013778D02*
X027171Y014163D01*
X027171Y014198D01*
X027171Y013778D02*
X025771Y012378D01*
X023391Y012378D01*
X024231Y012728D02*
X021921Y012728D01*
X021746Y012553D01*
X022201Y012448D02*
X022551Y012098D01*
X025456Y012098D01*
X025596Y012028D01*
X041241Y012028D01*
X040296Y010768D02*
X039491Y010768D01*
X039351Y010908D01*
X038721Y011608D02*
X038581Y011468D01*
X023881Y011468D01*
X024721Y010383D02*
X026716Y008388D01*
X030321Y008388D01*
X030531Y008108D02*
X030741Y008388D01*
X030531Y008108D02*
X028536Y008108D01*
X028256Y007828D01*
X027969Y007695D01*
X028046Y007268D02*
X027661Y007268D01*
X027451Y007478D01*
X027451Y007898D01*
X027171Y008178D01*
X026996Y008178D01*
X028186Y008668D02*
X031476Y008668D01*
X031756Y008388D01*
X038826Y008388D01*
X039596Y008388D01*
X039946Y008038D01*
X040786Y007758D02*
X037391Y007758D01*
X037041Y008108D01*
X038161Y007478D02*
X036971Y006288D01*
X037496Y005588D02*
X037776Y005308D01*
X038161Y005308D01*
X037881Y005588D02*
X037741Y005728D01*
X030391Y005728D01*
X030251Y005588D01*
X027906Y005588D01*
X026891Y006603D01*
X028046Y007268D02*
X031721Y007268D01*
X032001Y007548D01*
X032036Y007548D01*
X032309Y007695D01*
X032631Y007198D02*
X032561Y007128D01*
X019331Y007128D01*
X017826Y005623D01*
X017710Y005506D01*
X012312Y005506D01*
X012312Y007506D02*
X015160Y007506D01*
X016356Y008703D01*
X019786Y008703D01*
X020556Y009473D01*
X021466Y010383D01*
X022621Y010278D02*
X022621Y008913D01*
X022621Y008878D01*
X023041Y008458D01*
X023811Y008458D01*
X024441Y007828D01*
X024709Y007695D01*
X024546Y008108D02*
X025176Y008108D01*
X025491Y007793D01*
X025789Y007695D01*
X024546Y008108D02*
X023321Y009333D01*
X019506Y006848D02*
X021641Y004713D01*
X024441Y004713D01*
X024546Y004608D01*
X041591Y004608D01*
X041661Y004538D01*
X046421Y004538D01*
X046666Y004783D01*
X047296Y004783D01*
X047576Y004503D01*
X047852Y004369D01*
X048276Y004188D02*
X048031Y003943D01*
X047506Y003943D01*
X046316Y003943D01*
X046001Y004258D01*
X040506Y004258D01*
X040191Y003943D01*
X040156Y003908D01*
X039491Y003908D01*
X036271Y003908D01*
X036481Y003663D02*
X036446Y003628D01*
X036061Y003628D01*
X035921Y003768D01*
X035431Y003768D01*
X031581Y003768D01*
X023776Y003768D01*
X023111Y004433D01*
X023741Y004433D02*
X023846Y004328D01*
X036831Y004328D01*
X036656Y004048D02*
X036516Y004188D01*
X036026Y004188D01*
X035886Y004048D01*
X031616Y004048D01*
X030391Y005308D02*
X030531Y005448D01*
X036971Y005448D01*
X037111Y005308D01*
X037111Y004923D02*
X027556Y004923D01*
X027521Y004888D01*
X028291Y005308D02*
X024791Y005308D01*
X024651Y005168D01*
X024336Y005448D02*
X022721Y005448D01*
X022549Y005621D01*
X022549Y006113D01*
X024336Y005448D02*
X030321Y005448D01*
X030461Y005588D01*
X037496Y005588D01*
X038791Y005868D02*
X039666Y004993D01*
X041031Y004993D01*
X041171Y004923D01*
X041346Y005098D01*
X043236Y005098D01*
X042431Y005868D02*
X042501Y005938D01*
X048031Y005938D01*
X052301Y010208D01*
X052301Y021443D01*
X051741Y022003D01*
X051741Y022213D01*
X052126Y022073D02*
X054331Y019903D01*
X054331Y019308D01*
X054331Y009683D01*
X050516Y005868D01*
X048451Y003803D01*
X047471Y003803D01*
X046211Y003803D01*
X045896Y004118D01*
X040576Y004118D01*
X040226Y003768D01*
X036586Y003768D01*
X036481Y003663D01*
X036656Y004048D02*
X039876Y004048D01*
X040156Y004328D01*
X039666Y005378D02*
X046561Y005378D01*
X046852Y005369D01*
X046561Y006253D02*
X046852Y006369D01*
X047121Y006498D01*
X047576Y006953D01*
X048031Y006953D01*
X052161Y011083D01*
X052161Y021303D01*
X052826Y022843D02*
X053456Y022843D01*
X052826Y022843D02*
X052161Y023508D01*
X054646Y025258D02*
X046701Y025258D01*
X046421Y025538D01*
X046981Y025538D02*
X054926Y025538D01*
X055101Y025713D01*
X055976Y025713D01*
X058251Y027988D01*
X057831Y027953D02*
X055731Y025853D01*
X052336Y025853D01*
X052301Y025818D01*
X051181Y026588D02*
X054261Y026588D01*
X053701Y026133D02*
X055171Y026133D01*
X052476Y027428D02*
X054611Y029563D01*
X055177Y030325D02*
X051978Y030325D01*
X051496Y029843D01*
X051321Y029668D01*
X050551Y030683D02*
X049641Y029773D01*
X049396Y030333D02*
X049011Y029948D01*
X044076Y029948D01*
X043271Y030753D01*
X042571Y030753D01*
X043796Y031033D02*
X040681Y031033D01*
X040856Y031873D02*
X037706Y031873D01*
X035781Y029948D01*
X033716Y032328D02*
X038581Y037193D01*
X040681Y037193D01*
X041521Y038033D01*
X056221Y038033D01*
X053701Y038908D02*
X053561Y038978D01*
X052686Y039853D01*
X042081Y039853D01*
X040296Y038068D01*
X025876Y038068D01*
X023881Y036073D01*
X021746Y033868D02*
X033296Y033868D01*
X040121Y035023D02*
X042886Y037788D01*
X045056Y036423D02*
X045336Y036143D01*
X046631Y037508D02*
X048416Y037508D01*
X050621Y035303D01*
X050166Y034743D02*
X050131Y034743D01*
X050166Y034743D02*
X051671Y033238D01*
X051391Y032398D02*
X049711Y032398D01*
X047646Y030333D01*
X047261Y030333D02*
X049606Y032678D01*
X050691Y032678D01*
X051636Y032258D02*
X051006Y031628D01*
X049991Y031628D01*
X049641Y031348D02*
X051321Y031348D01*
X051951Y031978D01*
X051636Y032258D02*
X055311Y032258D01*
X055486Y032433D01*
X055486Y034638D01*
X051881Y030823D02*
X051636Y031068D01*
X051321Y031068D01*
X049641Y031348D02*
X048626Y030333D01*
X051496Y028198D02*
X052581Y029283D01*
X050901Y026868D02*
X051181Y026588D01*
X050901Y026868D02*
X047261Y026868D01*
X047051Y026658D01*
X045196Y023123D02*
X045476Y022843D01*
X045441Y021163D02*
X042431Y021163D01*
X042711Y021443D02*
X042571Y021583D01*
X035466Y021583D01*
X029201Y021583D01*
X028921Y021303D01*
X029306Y021303D02*
X042046Y021303D01*
X041731Y021023D02*
X042431Y020323D01*
X046421Y020323D01*
X046456Y020358D01*
X046561Y020078D02*
X042291Y020078D01*
X042851Y020743D02*
X043131Y021023D01*
X043236Y020743D02*
X045056Y020743D01*
X046561Y020078D02*
X046841Y020358D01*
X044601Y015738D02*
X040611Y015738D01*
X040261Y015738D01*
X039981Y015458D01*
X040296Y015073D02*
X041801Y015073D01*
X041906Y014968D01*
X047681Y014968D01*
X048871Y013778D01*
X046421Y015248D02*
X044566Y015248D01*
X044356Y015458D01*
X040576Y015458D01*
X040856Y014653D02*
X030776Y014653D01*
X030426Y015003D01*
X028711Y015003D01*
X028501Y015598D02*
X027661Y016438D01*
X028221Y017138D02*
X028361Y017278D01*
X027346Y018118D02*
X027206Y017978D01*
X022761Y017978D01*
X022621Y018118D01*
X022516Y018398D02*
X022341Y018223D01*
X022516Y018398D02*
X023041Y018398D01*
X023181Y018258D01*
X023251Y016998D02*
X023111Y016858D01*
X023951Y016718D02*
X029761Y016718D01*
X029936Y016088D02*
X031196Y016088D01*
X031196Y015143D02*
X029901Y015143D01*
X029656Y015388D01*
X029796Y015948D02*
X029936Y016088D01*
X030076Y014723D02*
X030286Y014723D01*
X030321Y014723D01*
X030076Y014723D02*
X029936Y014583D01*
X029936Y014338D02*
X030216Y014058D01*
X030426Y014058D01*
X030461Y014093D01*
X040121Y014093D01*
X040261Y014233D01*
X040436Y014513D02*
X040646Y014303D01*
X040436Y014513D02*
X030496Y014513D01*
X030321Y014338D01*
X027556Y015248D02*
X026331Y015248D01*
X026156Y015073D01*
X026856Y014478D02*
X026331Y013953D01*
X025456Y013953D01*
X024231Y012728D01*
X024721Y012658D02*
X025666Y013603D01*
X025106Y014093D02*
X022096Y014093D01*
X025106Y017278D02*
X025246Y017418D01*
X031406Y017418D01*
X032421Y019938D02*
X022236Y019938D01*
X020451Y021723D01*
X022166Y023613D02*
X017406Y023613D01*
X017126Y023893D01*
X013276Y023893D01*
X012996Y023613D01*
X012856Y023473D01*
X011456Y023473D01*
X010950Y023979D01*
X009238Y023979D01*
X008621Y024488D02*
X012926Y024488D01*
X013346Y024908D01*
X019156Y024908D01*
X019541Y025293D01*
X020696Y025293D01*
X020696Y024803D01*
X021606Y023893D01*
X022166Y023613D02*
X022446Y023893D01*
X022481Y024733D02*
X023321Y023893D01*
X035396Y023893D01*
X035746Y023158D02*
X027346Y023158D01*
X027556Y022983D02*
X027451Y022878D01*
X024056Y022878D01*
X023671Y023263D01*
X023531Y023333D01*
X021851Y025013D01*
X022236Y025293D02*
X020696Y025293D01*
X021361Y025748D02*
X017441Y025748D01*
X017290Y025479D02*
X016643Y025479D01*
X017290Y025479D02*
X017336Y025433D01*
X018806Y025433D01*
X018876Y025363D01*
X019051Y025188D01*
X019331Y026273D02*
X019296Y026308D01*
X018526Y026308D01*
X018355Y026479D01*
X016643Y026479D01*
X017511Y027043D02*
X013241Y027043D01*
X012786Y027498D01*
X011526Y027498D01*
X011045Y027979D01*
X009238Y027979D01*
X008936Y025468D02*
X012541Y025468D01*
X013101Y026028D01*
X021081Y026028D01*
X022131Y027078D01*
X022376Y026763D02*
X021361Y025748D01*
X022236Y025293D02*
X022901Y025958D01*
X022796Y025538D02*
X022341Y025083D01*
X022341Y024733D01*
X022481Y024733D01*
X022621Y024978D02*
X026226Y024978D01*
X026296Y024278D02*
X026086Y024068D01*
X024791Y024068D01*
X024301Y024558D01*
X024721Y025363D02*
X023006Y025363D01*
X022901Y025258D01*
X022796Y025538D02*
X023776Y025538D01*
X024056Y025818D01*
X024616Y026098D02*
X024651Y026063D01*
X026226Y026063D01*
X025305Y025479D02*
X024721Y025363D01*
X024511Y027358D02*
X019856Y027358D01*
X019611Y027603D01*
X019891Y027218D02*
X019156Y027218D01*
X019121Y027253D01*
X018106Y027253D01*
X017756Y026903D01*
X013486Y026903D01*
X013346Y026763D01*
X013801Y027918D02*
X017126Y027918D01*
X017161Y027883D01*
X021921Y027883D01*
X022131Y027673D01*
X022621Y027988D02*
X027101Y027988D01*
X027241Y027918D01*
X027556Y027603D01*
X026366Y027323D02*
X031406Y027323D01*
X030006Y025538D02*
X041416Y025538D01*
X035816Y021863D02*
X028256Y021863D01*
X027696Y022423D01*
X027556Y022983D02*
X031091Y022983D01*
X031406Y022668D01*
X034906Y020743D02*
X036551Y019098D01*
X037636Y013953D02*
X041171Y013953D01*
X041416Y014198D01*
X042606Y014198D01*
X042501Y013918D02*
X042711Y013918D01*
X042746Y013883D01*
X042816Y013813D01*
X044601Y015738D02*
X044811Y015528D01*
X045056Y015528D01*
X037636Y013953D02*
X037181Y013498D01*
X037461Y013183D02*
X037601Y013043D01*
X036726Y013743D02*
X035186Y013743D01*
X039246Y009858D02*
X039526Y010138D01*
X042711Y010138D01*
X043166Y009158D02*
X042046Y009158D01*
X041836Y008948D01*
X029341Y008948D01*
X028501Y009438D02*
X030286Y009438D01*
X030636Y009088D01*
X039106Y009088D01*
X039106Y009228D01*
X039106Y009088D02*
X040366Y009088D01*
X040506Y009228D01*
X040716Y008668D02*
X038546Y008668D01*
X038161Y007478D02*
X042676Y007478D01*
X042711Y007513D01*
X042851Y007793D02*
X047296Y007793D01*
X047576Y007513D01*
X047852Y007369D01*
X046561Y006253D02*
X042046Y006253D01*
X041941Y006148D01*
X040996Y006638D02*
X043096Y006638D01*
X043376Y006918D01*
X042991Y006918D02*
X040576Y006918D01*
X040856Y006638D02*
X040996Y006638D01*
X040856Y006638D02*
X040226Y006008D01*
X031021Y006008D01*
X030741Y006288D01*
X030076Y006288D01*
X030496Y006008D02*
X030636Y005868D01*
X030986Y005868D01*
X038791Y005868D01*
X041346Y007198D02*
X041381Y007233D01*
X043656Y007233D01*
X042851Y007793D02*
X042151Y008493D01*
X042221Y008808D02*
X047261Y008808D01*
X046852Y009369D02*
X046561Y009473D01*
X046456Y009578D01*
X036901Y009578D01*
X035081Y008108D02*
X030986Y008108D01*
X030706Y007828D01*
X030426Y007828D01*
X030139Y007695D01*
X030391Y005308D02*
X028291Y005308D01*
X027556Y011188D02*
X027696Y011328D01*
X040716Y008668D02*
X041626Y007758D01*
X042221Y008808D02*
X042151Y008878D01*
X041766Y004818D02*
X044706Y004818D01*
X048276Y004188D02*
X051426Y007338D01*
X052826Y010313D02*
X053981Y011468D01*
X030006Y025538D02*
X029516Y026028D01*
X026436Y029073D02*
X024616Y029073D01*
X023916Y028373D01*
X023006Y028373D01*
X022901Y028268D01*
X022971Y028548D02*
X019331Y028548D01*
X019156Y028723D01*
X018876Y029178D02*
X018876Y028163D01*
X018876Y029178D02*
X019016Y029318D01*
X019786Y029318D01*
X019716Y030088D02*
X020801Y031173D01*
X020451Y032573D02*
X021746Y033868D01*
X018905Y030479D02*
X016643Y030479D01*
X016643Y029479D02*
X018687Y029479D01*
X018806Y029598D01*
X019296Y030088D02*
X019016Y030368D01*
X018905Y030479D01*
X021851Y028828D02*
X022236Y029213D01*
X023181Y029213D01*
X023076Y028653D02*
X022971Y028548D01*
X024231Y028303D02*
X024826Y028898D01*
X020031Y027078D02*
X019891Y027218D01*
X019331Y026308D02*
X019331Y026273D01*
X017721Y027253D02*
X017511Y027043D01*
X008621Y024488D02*
X007909Y023776D01*
X006014Y023776D01*
X007014Y023276D02*
X007256Y023158D01*
X008411Y022003D01*
X043796Y031033D02*
X044496Y030333D01*
X047926Y034673D02*
X047926Y035653D01*
X048836Y036143D02*
X048836Y034953D01*
X048836Y036143D02*
X048871Y036143D01*
X049046Y036318D01*
X049046Y036668D01*
X048941Y036773D01*
X048486Y037228D01*
X048311Y037228D01*
X053701Y038908D02*
X055346Y040553D01*
X055551Y040758D01*
X057293Y040758D01*
M02*
