%
M48
M72
T01C0.0150
T02C0.0236
T03C0.0320
T04C0.0350
T05C0.0354
T06C0.0394
T07C0.0400
T08C0.0440
T09C0.0591
T10C0.1181
T11C0.1260
T12C0.1300
%
T01
X10147Y6162
X10688Y6162
X10738Y6802
X10147Y6802
X9163Y8819
X6456Y9656
X4783Y9656
X4635Y14627
X3454Y15906
X4438Y16300
X5821Y16840
X12903Y12166
X12312Y10493
X13887Y10493
X15954Y12018
X16594Y12904
X15954Y13790
X17037Y13987
X17037Y14774
X17037Y15562
X17037Y16349
X17037Y17136
X17037Y17924
X16076Y20463
X14886Y21723
X16286Y22913
X15306Y23508
X17441Y25748
X19051Y25188
X19793Y25010
X20186Y25010
X20974Y25010
X21368Y25010
X21851Y25013
X22621Y24978
X22901Y25258
X22901Y25958
X23041Y26487
X23041Y27077
X22376Y26763
X22131Y27078
X22131Y27673
X22621Y27988
X22901Y28268
X23076Y28653
X23181Y29213
X23181Y29598
X22656Y30333
X21501Y30893
X20974Y31851
X20311Y31103
X20031Y31383
X20451Y32573
X20974Y33524
X23188Y32934
X26086Y31313
X27224Y33081
X27224Y35837
X27224Y36920
X28897Y36920
X31161Y37215
X32834Y37215
X33228Y36231
X33228Y35739
X33296Y33868
X33716Y32328
X35781Y29948
X37460Y29932
X37411Y28947
X37411Y27963
X37460Y26979
X36341Y26098
X35186Y26413
X36621Y25258
X37460Y25010
X37460Y24026
X37460Y23042
X36621Y22668
X36061Y22003
X35466Y21583
X34906Y20743
X35466Y19238
X36026Y18538
X35326Y18258
X34766Y17558
X34871Y17068
X33856Y16648
X32561Y17558
X32036Y17418
X31406Y17418
X30076Y16998
X29796Y15948
X29656Y15388
X30321Y14723
X30321Y14338
X29656Y14408
X28651Y14282
X28466Y15143
X28501Y15598
X27836Y15878
X28651Y16447
X28221Y17138
X27568Y17136
X26584Y17136
X25701Y16998
X25106Y17278
X24966Y18258
X25421Y18328
X25876Y18398
X26961Y19098
X27696Y18958
X27346Y18118
X29026Y18118
X30636Y18958
X31406Y18678
X32421Y19938
X33296Y18678
X33401Y17838
X31196Y16088
X31196Y15143
X31266Y13813
X31021Y12903
X30216Y12763
X30461Y11188
X31301Y10768
X32637Y9361
X30741Y8388
X30321Y8388
X29341Y8948
X28501Y9438
X28186Y8668
X26683Y8819
X25698Y8819
X25698Y10493
X25001Y10978
X24721Y10383
X23881Y11468
X23391Y12378
X24721Y12658
X25596Y12028
X26786Y12588
X27241Y12448
X27276Y11748
X27556Y11188
X27556Y10628
X27171Y10628
X26683Y10493
X23321Y9333
X22621Y10278
X21466Y10383
X20974Y10493
X22481Y11433
X22481Y11818
X22201Y12448
X20836Y13078
X20346Y14058
X20941Y14268
X20974Y14676
X22096Y14093
X25106Y14093
X25666Y13603
X26289Y13691
X26683Y13691
X27371Y13593
X27171Y14198
X26856Y14478
X26156Y15073
X25946Y14688
X25108Y15266
X25108Y16054
X23951Y16718
X23811Y17418
X23111Y16858
X22621Y18118
X23181Y18258
X22621Y19378
X23111Y19658
X24406Y20218
X26879Y20630
X28431Y19658
X28921Y21303
X29306Y21303
X28291Y22703
X27696Y22423
X27346Y23158
X26879Y22304
X26296Y24278
X26226Y24978
X27906Y25083
X27906Y26063
X27913Y26782
X26366Y27323
X26240Y26782
X26226Y26063
X24616Y26098
X24056Y25818
X24371Y26973
X24231Y28303
X26646Y28898
X27101Y27988
X29516Y26413
X29516Y26028
X30076Y27043
X30461Y27883
X30846Y28653
X31406Y29598
X31686Y29913
X29201Y30053
X31406Y27323
X30076Y24173
X31406Y22668
X35746Y23158
X39133Y23042
X39351Y23368
X39133Y24026
X39071Y24523
X39911Y24523
X40751Y24208
X41626Y24698
X41840Y25503
X42824Y25306
X42816Y24488
X42824Y23731
X42824Y23337
X43516Y22843
X44076Y23403
X44881Y23403
X44694Y22845
X45476Y22843
X45974Y22943
X46368Y22943
X47051Y22843
X47844Y22845
X48661Y22843
X49046Y22843
X49326Y23123
X49616Y22845
X50305Y23140
X51461Y23403
X52161Y23508
X52861Y24068
X53176Y24313
X54646Y25258
X55177Y25404
X55171Y26133
X54261Y26588
X53701Y26133
X52301Y25818
X51289Y24912
X50305Y24715
X49921Y24698
X49291Y24628
X49851Y23753
X49676Y21863
X49746Y21163
X48941Y20673
X48801Y20043
X48801Y19658
X48206Y19833
X46841Y20358
X46456Y20358
X46106Y20918
X45966Y21303
X45686Y21023
X45056Y20743
X44111Y21863
X42711Y21443
X42431Y21163
X42046Y21303
X42851Y20743
X43236Y20743
X42291Y20078
X42151Y19693
X41661Y18678
X40856Y18538
X40436Y18818
X40716Y19098
X40331Y20463
X39071Y19903
X38161Y19378
X40576Y17558
X39771Y16718
X38441Y16648
X37881Y16088
X37881Y15458
X39981Y15458
X40296Y15073
X40576Y15458
X40856Y14653
X40646Y14303
X40261Y14233
X41521Y13918
X42256Y13638
X42816Y13813
X42606Y14198
X42431Y12588
X41545Y12658
X41556Y12273
X41871Y11748
X42151Y12028
X42151Y10908
X42711Y10138
X43166Y9158
X42151Y8878
X42151Y8493
X41626Y7758
X41346Y7198
X40856Y6638
X40576Y6918
X40786Y7758
X39946Y8038
X38826Y8388
X38546Y8668
X39106Y9228
X39246Y9858
X39351Y10908
X40296Y10768
X40156Y11468
X40576Y11748
X40576Y12623
X38931Y13323
X37461Y13183
X37181Y13498
X36621Y13463
X35186Y13743
X34015Y13199
X33720Y12314
X35186Y12308
X32342Y13199
X34906Y15213
X38721Y11608
X36901Y9578
X37041Y8108
X35081Y8108
X32631Y7198
X30496Y6008
X30076Y6288
X27521Y4888
X26891Y6603
X24651Y5168
X23741Y4433
X23111Y4433
X22549Y6113
X19506Y6848
X27556Y15248
X21886Y18363
X20974Y16398
X20974Y20630
X20451Y21723
X20974Y22304
X21186Y22633
X21886Y22913
X21606Y23893
X22446Y23893
X23531Y23333
X24301Y24558
X20031Y27078
X19611Y27603
X19005Y26979
X19005Y26585
X19331Y26308
X17721Y27253
X18876Y28163
X19156Y28723
X19926Y29073
X20777Y28947
X21171Y28947
X21851Y28828
X19716Y30088
X19296Y30088
X18806Y29598
X15314Y27373
X15314Y26487
X13641Y26487
X13346Y26763
X13641Y27373
X13801Y27918
X8936Y25468
X13887Y36034
X14675Y36034
X15462Y36034
X16249Y36034
X17037Y36034
X17824Y36034
X18612Y36034
X18612Y36821
X18612Y37609
X18612Y38396
X18612Y39184
X18612Y39971
X18612Y40758
X17824Y40758
X17037Y40758
X16249Y40758
X15462Y40758
X14675Y40758
X13887Y40758
X13887Y39971
X13887Y39184
X13887Y38396
X13887Y37609
X13887Y36821
X23881Y36073
X24271Y35985
X39133Y29932
X39133Y28947
X39133Y27963
X39316Y27603
X39133Y26979
X39631Y25818
X40471Y25083
X41556Y27183
X41840Y27471
X41661Y27848
X41840Y28455
X42824Y28652
X42816Y29108
X43096Y29388
X42824Y30030
X43316Y30325
X44496Y30333
X44891Y30325
X45371Y30228
X45756Y30228
X46171Y30227
X46564Y30227
X47261Y30333
X47646Y30333
X48041Y30325
X48626Y30333
X49396Y30333
X49812Y30325
X49641Y29773
X50206Y29833
X51321Y29668
X52581Y29283
X51496Y28198
X51289Y27865
X50305Y28062
X50206Y26585
X50206Y26191
X49816Y25818
X49151Y26098
X47891Y26588
X47541Y26378
X47051Y26658
X46981Y25538
X46421Y25538
X46141Y27463
X46981Y27883
X47856Y28163
X45091Y28443
X42923Y27176
X42923Y26782
X41836Y29913
X41941Y30543
X42571Y30753
X43120Y31310
X44399Y32441
X45441Y32293
X46417Y32097
X46761Y32441
X47366Y31838
X46860Y31310
X44986Y31313
X44399Y34115
X44391Y34708
X45056Y35023
X44531Y35303
X44111Y35303
X43411Y34743
X43026Y34673
X42746Y34393
X43415Y34164
X41661Y34953
X41801Y35338
X40821Y34953
X41101Y34673
X41381Y34393
X40121Y35023
X41801Y36318
X41446Y37166
X42991Y37508
X43661Y36477
X44104Y36477
X45056Y36423
X45581Y36703
X46246Y36423
X46911Y36668
X47576Y36598
X48139Y36428
X48779Y36428
X50009Y36428
X50481Y36773
X50698Y36428
X51251Y37228
X50971Y37508
X51683Y37166
X52581Y36668
X52301Y36178
X50621Y35303
X50131Y34743
X49616Y34115
X49186Y34183
X48521Y34638
X48836Y34953
X47926Y34673
X46761Y34115
X45580Y34115
X47646Y35303
X48311Y37228
X49711Y38383
X48836Y39258
X49123Y39577
X50009Y39577
X50698Y39577
X51683Y38839
X53701Y38908
X55177Y39380
X56361Y37788
X54261Y35863
X55029Y35050
X58340Y35050
X58340Y32884
X58111Y31173
X56850Y31310
X56850Y30325
X56850Y29341
X56850Y28357
X56850Y27373
X57831Y27953
X58251Y27988
X60147Y27619
X60147Y27028
X60147Y26438
X60147Y25847
X60147Y25256
X58621Y26388
X56850Y25404
X56850Y24420
X56850Y23436
X55177Y23436
X55177Y24420
X53456Y22843
X52126Y22073
X51461Y19763
X51461Y19378
X51461Y18993
X51181Y17978
X50108Y17284
X49816Y17033
X48927Y17284
X47746Y17284
X47191Y17523
X46564Y17284
X45383Y17284
X45231Y16648
X44951Y15808
X46421Y15248
X47121Y16088
X46421Y16368
X44426Y17558
X44146Y18118
X44146Y18993
X45383Y18957
X46564Y18957
X46946Y18958
X49676Y19938
X47156Y21058
X46663Y21861
X47716Y21863
X51289Y26880
X52476Y27428
X55177Y27373
X55177Y28357
X55177Y29341
X54611Y29563
X55177Y30325
X55177Y31310
X51951Y31978
X51391Y32398
X50691Y32678
X51671Y33238
X49991Y31628
X50551Y30683
X51321Y31068
X51881Y30823
X46631Y37508
X44776Y37228
X43366Y39577
X42431Y39577
X41446Y38839
X46564Y39577
X47204Y39577
X48139Y39577
X40821Y32223
X40681Y31033
X39211Y22563
X39071Y22003
X49271Y14184
X48871Y13778
X49271Y13003
X47226Y12798
X46001Y11783
X49271Y11034
X49271Y9853
X51289Y10985
X52826Y10313
X53981Y11468
X52913Y11969
X52913Y9016
X51426Y7338
X44706Y4818
X43236Y5098
X42431Y5868
X41941Y6148
X41348Y5867
X41171Y4923
X41766Y4818
X42283Y3751
X40610Y3751
X40156Y4328
X39666Y5378
X38161Y5308
X37881Y5588
X37111Y5308
X37111Y4923
X36831Y4328
X36271Y3908
X36971Y6288
X40506Y9228
X42711Y7513
X43656Y7233
X43376Y6918
X42991Y6918
X31616Y4048
X50796Y14933
X51181Y15703
X52913Y16398
X60344Y20237
X62805Y20630
X63444Y19745
X64035Y20630
X63444Y15168
T02
X57293Y40758
X54734Y40758
T03
X4120Y5006
X7120Y5006
X7120Y8006
X4120Y8006
X18218Y14562
X18218Y16562
X12238Y22979
X12238Y23979
X12238Y24979
X12238Y25979
X12238Y26979
X12238Y27979
X12238Y28979
X12238Y29979
X12238Y30979
X9238Y30979
X9238Y29979
X9238Y28979
X9238Y27979
X9238Y26979
X9238Y25979
X9238Y24979
X9238Y23979
X9238Y22979
X8769Y36396
X8769Y40396
X20186Y39396
X20186Y37396
X62509Y27388
X62509Y25388
T04
X7014Y25276
X7014Y24276
X7014Y23276
X6014Y22776
X6014Y23776
X6014Y24776
T05
X60620Y32339
X61620Y32789
X60620Y33239
X61620Y33689
X60620Y34139
X61620Y34589
X60620Y35039
X61620Y35489
X60620Y35939
X61620Y36389
X62620Y35939
X62620Y35039
X62620Y34139
X62620Y33239
X62620Y32339
T06
X7037Y38396
X5816Y36506
X4635Y38396
T07
X10419Y38396
X10419Y37396
X10419Y39396
X16643Y30479
X16643Y29479
X16643Y28479
X16643Y27479
X16643Y26479
X16643Y25479
X16643Y24479
X16643Y23479
X12238Y21270
X11238Y21270
X10238Y21270
X9238Y21270
X25305Y23479
X25305Y24479
X25305Y25479
X25305Y26479
X25305Y27479
X25305Y28479
X25305Y29479
X25305Y30479
X26688Y38684
X27768Y38684
X28848Y38684
X29928Y38684
X31008Y38684
X30468Y39684
X29388Y39684
X28308Y39684
X27228Y39684
X32179Y15365
X33179Y15365
X34179Y15365
X33399Y7695
X32309Y7695
X31229Y7695
X30139Y7695
X29049Y7695
X27969Y7695
X26879Y7695
X25789Y7695
X24709Y7695
X23619Y7695
X22529Y7695
X21449Y7695
X20359Y7695
X20899Y6695
X21989Y6695
X23079Y6695
X24159Y6695
X25249Y6695
X26339Y6695
X27419Y6695
X28509Y6695
X29599Y6695
X30679Y6695
X31769Y6695
X32859Y6695
X46852Y6369
X47852Y6369
X47852Y7369
X46852Y7369
X46852Y8369
X47852Y8369
X47852Y9369
X46852Y9369
X46852Y10369
X47852Y10369
X47852Y11369
X46852Y11369
X46852Y12369
X47852Y12369
X47852Y13369
X46852Y13369
X46852Y5369
X47852Y5369
X47852Y4369
X46852Y4369
X12312Y5506
X12312Y6506
X12312Y7506
T08
X3651Y28629
X3651Y30129
X3651Y31629
T09
X61919Y16034
X61919Y6467
T10
X61620Y29314
X61620Y39156
T11
X3364Y26026
X3364Y22026
T12
X17619Y7195
X36139Y7195
X16319Y38396
X23918Y39184
X33778Y39184
M30
